RobotoSerifText-SuperWideitalic.ufo
<glyph name="exclam" format="2">
  <advance width="423"/>
  <unicode hex="0021"/>
  <outline>
    <contour>
      <point x="441" y="714" type="line"/>
      <point x="410" y="536"/>
      <point x="339" y="444"/>
      <point x="299" y="254" type="curve"/>
      <point x="117" y="254" type="line"/>
      <point x="154" y="461"/>
      <point x="126" y="555"/>
      <point x="158" y="714" type="curve"/>
    </contour>
    <component base="period" xOffset="-12"/>
  </outline>
</glyph>
<glyph name="hyphen" format="2">
  <advance width="566"/>
  <unicode hex="002D"/>
  <outline>
    <contour>
      <point x="93" y="362" type="line"/>
      <point x="59" y="212" type="line"/>
      <point x="478" y="212" type="line"/>
      <point x="513" y="362" type="line"/>
    </contour>
  </outline>
</glyph>
<glyph name="period" format="2">
  <advance width="393"/>
  <unicode hex="002E"/>
  <outline>
    <contour>
      <point x="349" y="93" type="curve" smooth="yes"/>
      <point x="349" y="155"/>
      <point x="293" y="200"/>
      <point x="197" y="200" type="curve" smooth="yes"/>
      <point x="100" y="200"/>
      <point x="44" y="155"/>
      <point x="44" y="93" type="curve" smooth="yes"/>
      <point x="44" y="29"/>
      <point x="100" y="-14"/>
      <point x="197" y="-14" type="curve" smooth="yes"/>
      <point x="293" y="-14"/>
      <point x="349" y="29"/>
    </contour>
  </outline>
</glyph>
<glyph name="zero" format="2">
  <advance width="661"/>
  <unicode hex="0030"/>
  <outline>
    <contour>
      <point x="296" y="-11" type="curve"/>
      <point x="553" y="-11"/>
      <point x="650" y="193"/>
      <point x="650" y="355" type="curve" smooth="yes"/>
      <point x="650" y="510"/>
      <point x="549" y="619"/>
      <point x="369" y="619" type="curve"/>
      <point x="108" y="619"/>
      <point x="10" y="415"/>
      <point x="10" y="253" type="curve" smooth="yes"/>
      <point x="10" y="98"/>
      <point x="111" y="-11"/>
    </contour>
    <contour>
      <point x="287" y="78" type="curve" smooth="yes"/>
      <point x="265" y="78"/>
      <point x="259" y="100"/>
      <point x="259" y="142" type="curve" smooth="yes"/>
      <point x="259" y="178"/>
      <point x="269" y="227"/>
      <point x="289" y="305" type="curve" smooth="yes"/>
      <point x="325" y="475"/>
      <point x="341" y="530"/>
      <point x="374" y="530" type="curve" smooth="yes"/>
      <point x="396" y="530"/>
      <point x="402" y="508"/>
      <point x="402" y="466" type="curve" smooth="yes"/>
      <point x="402" y="430"/>
      <point x="391" y="381"/>
      <point x="372" y="303" type="curve" smooth="yes"/>
      <point x="335" y="133"/>
      <point x="320" y="78"/>
    </contour>
  </outline>
</glyph>
<glyph name="one" format="2">
  <advance width="661"/>
  <unicode hex="0031"/>
  <outline>
    <contour>
      <point x="476" y="120" type="curve" smooth="yes"/>
      <point x="576" y="609" type="line"/>
      <point x="335" y="609" type="line"/>
      <point x="285" y="560"/>
      <point x="227" y="533"/>
      <point x="94" y="532" type="curve"/>
      <point x="66" y="415" type="line"/>
      <point x="177" y="414"/>
      <point x="247" y="439"/>
      <point x="299" y="521" type="curve"/>
      <point x="274" y="514" type="line"/>
      <point x="195" y="120" type="line" smooth="yes"/>
      <point x="187" y="83"/>
      <point x="126" y="76"/>
      <point x="58" y="76" type="curve" smooth="yes"/>
      <point x="29" y="76" type="line"/>
      <point x="11" y="0" type="line"/>
      <point x="586" y="0" type="line"/>
      <point x="604" y="76" type="line"/>
      <point x="588" y="76" type="line" smooth="yes"/>
      <point x="513" y="76"/>
      <point x="467" y="83"/>
    </contour>
  </outline>
</glyph>
<glyph name="two" format="2">
  <advance width="660"/>
  <unicode hex="0032"/>
  <outline>
    <contour>
      <point x="-36" y="0" type="line"/>
      <point x="0" y="158" type="line"/>
      <point x="274" y="267"/>
      <point x="365" y="347"/>
      <point x="365" y="462" type="curve" smooth="yes"/>
      <point x="365" y="505"/>
      <point x="349" y="529"/>
      <point x="310" y="529" type="curve" smooth="yes"/>
      <point x="274" y="529"/>
      <point x="239" y="507"/>
      <point x="222" y="486" type="curve"/>
      <point x="209" y="506"/>
      <point x="234" y="538"/>
      <point x="280" y="539" type="curve"/>
      <point x="252" y="413" type="line"/>
      <point x="48" y="413" type="line"/>
      <point x="78" y="553" type="line"/>
      <point x="132" y="583"/>
      <point x="231" y="618"/>
      <point x="347" y="618" type="curve" smooth="yes"/>
      <point x="530" y="618"/>
      <point x="637" y="560"/>
      <point x="637" y="452" type="curve"/>
      <point x="637" y="279"/>
      <point x="398" y="211"/>
      <point x="100" y="125" type="curve"/>
      <point x="103" y="145" type="line"/>
      <point x="350" y="145" type="line" smooth="yes"/>
      <point x="439" y="145"/>
      <point x="471" y="149"/>
      <point x="486" y="184" type="curve" smooth="yes"/>
      <point x="505" y="235" type="line"/>
      <point x="614" y="235" type="line"/>
      <point x="563" y="0" type="line"/>
    </contour>
  </outline>
</glyph>
<glyph name="four" format="2">
  <advance width="661"/>
  <unicode hex="0034"/>
  <outline>
    <contour>
      <point x="-16" y="78" type="line"/>
      <point x="613" y="78" type="line"/>
      <point x="643" y="213" type="line"/>
      <point x="122" y="213" type="line"/>
      <point x="70" y="141" type="line"/>
      <point x="406" y="530" type="line"/>
      <point x="443" y="609" type="line"/>
      <point x="364" y="609" type="line"/>
      <point x="16" y="220" type="line"/>
    </contour>
    <contour>
      <point x="511" y="-77" type="line"/>
      <point x="653" y="609" type="line"/>
      <point x="401" y="609" type="line"/>
      <point x="362" y="522" type="line"/>
      <point x="240" y="-77" type="line"/>
    </contour>
  </outline>
</glyph>
<glyph name="eight" format="2">
  <advance width="661"/>
  <unicode hex="0038"/>
  <outline>
    <contour>
      <point x="291" y="81" type="curve" smooth="yes"/>
      <point x="268" y="81"/>
      <point x="259" y="106"/>
      <point x="259" y="148" type="curve" smooth="yes"/>
      <point x="259" y="169"/>
      <point x="261" y="191"/>
      <point x="267" y="217" type="curve" smooth="yes"/>
      <point x="284" y="299"/>
      <point x="301" y="332"/>
      <point x="332" y="332" type="curve" smooth="yes"/>
      <point x="358" y="332"/>
      <point x="365" y="308"/>
      <point x="365" y="271" type="curve" smooth="yes"/>
      <point x="365" y="248"/>
      <point x="361" y="226"/>
      <point x="356" y="198" type="curve" smooth="yes"/>
      <point x="340" y="120"/>
      <point x="317" y="81"/>
    </contour>
    <contour>
      <point x="361" y="420" type="curve" smooth="yes"/>
      <point x="339" y="420"/>
      <point x="331" y="440"/>
      <point x="331" y="474" type="curve" smooth="yes"/>
      <point x="331" y="491"/>
      <point x="333" y="509"/>
      <point x="337" y="531" type="curve" smooth="yes"/>
      <point x="352" y="599"/>
      <point x="368" y="629"/>
      <point x="392" y="629" type="curve" smooth="yes"/>
      <point x="415" y="629"/>
      <point x="423" y="608"/>
      <point x="423" y="575" type="curve" smooth="yes"/>
      <point x="423" y="558"/>
      <point x="421" y="539"/>
      <point x="416" y="518" type="curve" smooth="yes"/>
      <point x="402" y="447"/>
      <point x="385" y="420"/>
    </contour>
    <contour>
      <point x="306" y="-11" type="curve" smooth="yes"/>
      <point x="510" y="-11"/>
      <point x="635" y="88"/>
      <point x="635" y="213" type="curve" smooth="yes"/>
      <point x="635" y="289"/>
      <point x="584" y="351"/>
      <point x="470" y="379" type="curve"/>
      <point x="499" y="361" type="line"/>
      <point x="506" y="381" type="line"/>
      <point x="470" y="366" type="line"/>
      <point x="595" y="384"/>
      <point x="672" y="449"/>
      <point x="672" y="544" type="curve" smooth="yes"/>
      <point x="672" y="648"/>
      <point x="561" y="720"/>
      <point x="385" y="720" type="curve" smooth="yes"/>
      <point x="200" y="720"/>
      <point x="82" y="645"/>
      <point x="82" y="537" type="curve" smooth="yes"/>
      <point x="82" y="457"/>
      <point x="146" y="399"/>
      <point x="251" y="374" type="curve"/>
      <point x="199" y="398" type="line"/>
      <point x="196" y="380" type="line"/>
      <point x="252" y="394" type="line"/>
      <point x="79" y="382"/>
      <point x="-11" y="306"/>
      <point x="-11" y="201" type="curve" smooth="yes"/>
      <point x="-11" y="71"/>
      <point x="114" y="-11"/>
    </contour>
  </outline>
</glyph>
<glyph name="less" format="2">
  <advance width="660"/>
  <unicode hex="003C"/>
  <outline>
    <contour>
      <point x="511" y="105" type="line"/>
      <point x="87" y="281" type="line"/>
      <point x="115" y="408" type="line"/>
      <point x="609" y="585" type="line"/>
      <point x="578" y="448" type="line"/>
      <point x="113" y="286" type="line"/>
      <point x="142" y="404" type="line"/>
      <point x="544" y="244" type="line"/>
    </contour>
  </outline>
</glyph>
<glyph name="at" format="2">
  <advance width="1090"/>
  <unicode hex="0040"/>
  <outline>
    <contour>
      <point x="543" y="-153" type="curve" smooth="yes"/>
      <point x="660" y="-153"/>
      <point x="764" y="-132"/>
      <point x="836" y="-103" type="curve"/>
      <point x="820" y="-21" type="line"/>
      <point x="745" y="-47"/>
      <point x="660" y="-69"/>
      <point x="543" y="-69" type="curve" smooth="yes"/>
      <point x="326" y="-69"/>
      <point x="137" y="31"/>
      <point x="137" y="226" type="curve" smooth="yes"/>
      <point x="137" y="441"/>
      <point x="327" y="589"/>
      <point x="614" y="589" type="curve" smooth="yes"/>
      <point x="834" y="589"/>
      <point x="952" y="505"/>
      <point x="952" y="352" type="curve" smooth="yes"/>
      <point x="952" y="226"/>
      <point x="878" y="126"/>
      <point x="811" y="126" type="curve" smooth="yes"/>
      <point x="792" y="126"/>
      <point x="784" y="134"/>
      <point x="784" y="150" type="curve" smooth="yes"/>
      <point x="784" y="159"/>
      <point x="787" y="169"/>
      <point x="791" y="184" type="curve" smooth="yes"/>
      <point x="883" y="470" type="line"/>
      <point x="695" y="470" type="line"/>
      <point x="645" y="388" type="line"/>
      <point x="632" y="383" type="line"/>
      <point x="557" y="156" type="line"/>
      <point x="575" y="154" type="line"/>
      <point x="589" y="85"/>
      <point x="655" y="47"/>
      <point x="767" y="47" type="curve" smooth="yes"/>
      <point x="932" y="47"/>
      <point x="1078" y="168"/>
      <point x="1078" y="352" type="curve" smooth="yes"/>
      <point x="1078" y="555"/>
      <point x="907" y="673"/>
      <point x="614" y="673" type="curve" smooth="yes"/>
      <point x="264" y="673"/>
      <point x="11" y="490"/>
      <point x="11" y="226" type="curve" smooth="yes"/>
      <point x="11" y="-26"/>
      <point x="268" y="-153"/>
    </contour>
    <contour>
      <point x="439" y="47" type="curve" smooth="yes"/>
      <point x="514" y="47"/>
      <point x="568" y="91"/>
      <point x="620" y="172" type="curve"/>
      <point x="585" y="213" type="line"/>
      <point x="554" y="154"/>
      <point x="528" y="125"/>
      <point x="500" y="125" type="curve"/>
      <point x="474" y="125"/>
      <point x="461" y="150"/>
      <point x="461" y="196" type="curve" smooth="yes"/>
      <point x="461" y="281"/>
      <point x="504" y="397"/>
      <point x="572" y="397" type="curve" smooth="yes"/>
      <point x="614" y="397"/>
      <point x="632" y="369"/>
      <point x="644" y="281" type="curve"/>
      <point x="687" y="325" type="line"/>
      <point x="684" y="427"/>
      <point x="643" y="476"/>
      <point x="515" y="476" type="curve" smooth="yes"/>
      <point x="349" y="476"/>
      <point x="235" y="347"/>
      <point x="235" y="223" type="curve" smooth="yes"/>
      <point x="235" y="115"/>
      <point x="320" y="47"/>
    </contour>
  </outline>
</glyph>
<glyph name="B" format="2">
  <advance width="884"/>
  <unicode hex="0042"/>
  <outline>
    <contour>
      <point x="419" y="330" type="line" smooth="yes"/>
      <point x="494" y="330"/>
      <point x="530" y="293"/>
      <point x="530" y="233" type="curve" smooth="yes"/>
      <point x="530" y="165"/>
      <point x="500" y="84"/>
      <point x="398" y="84" type="curve" smooth="yes"/>
      <point x="348" y="84" type="line"/>
      <point x="397" y="330" type="line"/>
    </contour>
    <contour>
      <point x="487" y="626" type="line" smooth="yes"/>
      <point x="538" y="626"/>
      <point x="565" y="600"/>
      <point x="565" y="550" type="curve" smooth="yes"/>
      <point x="565" y="484"/>
      <point x="535" y="411"/>
      <point x="441" y="411" type="curve" smooth="yes"/>
      <point x="415" y="411" type="line"/>
      <point x="458" y="626" type="line"/>
    </contour>
    <contour>
      <point x="610" y="374" type="line"/>
      <point x="776" y="376"/>
      <point x="871" y="443"/>
      <point x="871" y="549" type="curve" smooth="yes"/>
      <point x="871" y="641"/>
      <point x="783" y="710"/>
      <point x="547" y="710" type="curve" smooth="yes"/>
      <point x="106" y="710" type="line"/>
      <point x="88" y="634" type="line"/>
      <point x="99" y="634" type="line" smooth="yes"/>
      <point x="129" y="634"/>
      <point x="149" y="627"/>
      <point x="143" y="598" type="curve" smooth="yes"/>
      <point x="44" y="112" type="line" smooth="yes"/>
      <point x="38" y="83"/>
      <point x="16" y="76"/>
      <point x="-13" y="76" type="curve" smooth="yes"/>
      <point x="-25" y="76" type="line"/>
      <point x="-43" y="0" type="line"/>
      <point x="489" y="0" type="line" smooth="yes"/>
      <point x="723" y="0"/>
      <point x="843" y="85"/>
      <point x="843" y="214" type="curve" smooth="yes"/>
      <point x="843" y="314"/>
      <point x="737" y="368"/>
      <point x="604" y="383" type="curve"/>
      <point x="647" y="367" type="line"/>
      <point x="650" y="383" type="line"/>
    </contour>
  </outline>
</glyph>
<glyph name="F" format="2">
  <advance width="738"/>
  <unicode hex="0046"/>
  <outline>
    <contour>
      <point x="-43" y="0" type="line"/>
      <point x="414" y="0" type="line"/>
      <point x="431" y="76" type="line"/>
      <point x="411" y="76" type="line" smooth="yes"/>
      <point x="383" y="76"/>
      <point x="347" y="77"/>
      <point x="353" y="112" type="curve" smooth="yes"/>
      <point x="457" y="624" type="line"/>
      <point x="541" y="624" type="line" smooth="yes"/>
      <point x="598" y="624"/>
      <point x="630" y="617"/>
      <point x="626" y="581" type="curve" smooth="yes"/>
      <point x="618" y="503" type="line"/>
      <point x="744" y="503" type="line"/>
      <point x="788" y="710" type="line"/>
      <point x="106" y="710" type="line"/>
      <point x="88" y="634" type="line"/>
      <point x="99" y="634" type="line" smooth="yes"/>
      <point x="129" y="634"/>
      <point x="149" y="627"/>
      <point x="143" y="598" type="curve" smooth="yes"/>
      <point x="44" y="112" type="line" smooth="yes"/>
      <point x="38" y="83"/>
      <point x="16" y="76"/>
      <point x="-13" y="76" type="curve" smooth="yes"/>
      <point x="-25" y="76" type="line"/>
    </contour>
    <contour>
      <point x="379" y="393" type="curve"/>
      <point x="363" y="319" type="line"/>
      <point x="443" y="314"/>
      <point x="526" y="310"/>
      <point x="607" y="306" type="curve"/>
      <point x="630" y="406" type="line"/>
      <point x="546" y="402"/>
      <point x="462" y="398"/>
    </contour>
  </outline>
</glyph>
<glyph name="H" format="2">
  <advance width="963"/>
  <unicode hex="0048"/>
  <anchor x="482" y="741" name="top"/>
  <anchor x="482" y="0" name="bottom"/>
  <outline>
    <contour>
      <point x="217" y="409" type="line"/>
      <point x="196" y="322" type="line"/>
      <point x="700" y="322" type="line"/>
      <point x="719" y="409" type="line"/>
    </contour>
    <contour>
      <point x="-43" y="0" type="line"/>
      <point x="389" y="0" type="line"/>
      <point x="407" y="76" type="line"/>
      <point x="398" y="76" type="line" smooth="yes"/>
      <point x="374" y="76"/>
      <point x="348" y="79"/>
      <point x="349" y="86" type="curve" smooth="yes"/>
      <point x="458" y="624" type="line" smooth="yes"/>
      <point x="459" y="631"/>
      <point x="488" y="634"/>
      <point x="511" y="634" type="curve" smooth="yes"/>
      <point x="520" y="634" type="line"/>
      <point x="538" y="710" type="line"/>
      <point x="106" y="710" type="line"/>
      <point x="88" y="634" type="line"/>
      <point x="99" y="634" type="line" smooth="yes"/>
      <point x="129" y="634"/>
      <point x="149" y="627"/>
      <point x="143" y="598" type="curve" smooth="yes"/>
      <point x="44" y="112" type="line" smooth="yes"/>
      <point x="38" y="83"/>
      <point x="16" y="76"/>
      <point x="-13" y="76" type="curve" smooth="yes"/>
      <point x="-25" y="76" type="line"/>
    </contour>
    <contour>
      <point x="436" y="0" type="line"/>
      <point x="869" y="0" type="line"/>
      <point x="886" y="76" type="line"/>
      <point x="874" y="76" type="line" smooth="yes"/>
      <point x="846" y="76"/>
      <point x="826" y="83"/>
      <point x="832" y="112" type="curve" smooth="yes"/>
      <point x="930" y="598" type="line" smooth="yes"/>
      <point x="937" y="627"/>
      <point x="959" y="634"/>
      <point x="988" y="634" type="curve" smooth="yes"/>
      <point x="999" y="634" type="line"/>
      <point x="1017" y="710" type="line"/>
      <point x="585" y="710" type="line"/>
      <point x="568" y="634" type="line"/>
      <point x="577" y="634" type="line" smooth="yes"/>
      <point x="600" y="634"/>
      <point x="627" y="631"/>
      <point x="626" y="624" type="curve" smooth="yes"/>
      <point x="516" y="86" type="line" smooth="yes"/>
      <point x="515" y="79"/>
      <point x="487" y="76"/>
      <point x="464" y="76" type="curve" smooth="yes"/>
      <point x="454" y="76" type="line"/>
    </contour>
  </outline>
</glyph>
<glyph name="J" format="2">
  <advance width="748"/>
  <unicode hex="004A"/>
  <anchor x="485" y="741" name="top"/>
  <outline>
    <contour>
      <point x="408" y="598" type="curve" smooth="yes"/>
      <point x="333" y="235" type="line" smooth="yes"/>
      <point x="311" y="118"/>
      <point x="280" y="83"/>
      <point x="229" y="83" type="curve" smooth="yes"/>
      <point x="174" y="83"/>
      <point x="154" y="113"/>
      <point x="142" y="146" type="curve"/>
      <point x="102" y="148"/>
      <point x="113" y="89"/>
      <point x="177" y="75" type="curve"/>
      <point x="210" y="227" type="line"/>
      <point x="4" y="227" type="line"/>
      <point x="-33" y="65" type="line"/>
      <point x="9" y="30"/>
      <point x="114" y="-10"/>
      <point x="264" y="-10" type="curve" smooth="yes"/>
      <point x="469" y="-10"/>
      <point x="609" y="61"/>
      <point x="642" y="227" type="curve" smooth="yes"/>
      <point x="717" y="598" type="line" smooth="yes"/>
      <point x="723" y="627"/>
      <point x="745" y="634"/>
      <point x="774" y="634" type="curve" smooth="yes"/>
      <point x="786" y="634" type="line"/>
      <point x="803" y="710" type="line"/>
      <point x="351" y="710" type="line"/>
      <point x="334" y="634" type="line"/>
      <point x="355" y="634" type="line" smooth="yes"/>
      <point x="390" y="634"/>
      <point x="413" y="627"/>
    </contour>
  </outline>
</glyph>
<glyph name="M" format="2">
  <advance width="1151"/>
  <unicode hex="004D"/>
  <anchor x="565" y="0" name="bottom"/>
  <outline>
    <contour>
      <point x="-43" y="0" type="line"/>
      <point x="198" y="0" type="line"/>
      <point x="215" y="76" type="line"/>
      <point x="205" y="76" type="line" smooth="yes"/>
      <point x="180" y="76"/>
      <point x="154" y="79"/>
      <point x="156" y="86" type="curve" smooth="yes"/>
      <point x="279" y="689" type="line"/>
      <point x="259" y="687" type="line"/>
      <point x="330" y="-2" type="line"/>
      <point x="483" y="-2" type="line"/>
      <point x="848" y="686" type="line"/>
      <point x="828" y="688" type="line"/>
      <point x="704" y="86" type="line" smooth="yes"/>
      <point x="703" y="79"/>
      <point x="675" y="76"/>
      <point x="649" y="76" type="curve" smooth="yes"/>
      <point x="640" y="76" type="line"/>
      <point x="624" y="0" type="line"/>
      <point x="1058" y="0" type="line"/>
      <point x="1075" y="76" type="line"/>
      <point x="1063" y="76" type="line"/>
      <point x="1034" y="76"/>
      <point x="1014" y="83"/>
      <point x="1020" y="111" type="curve" smooth="yes"/>
      <point x="1119" y="598" type="line" smooth="yes"/>
      <point x="1125" y="627"/>
      <point x="1147" y="634"/>
      <point x="1176" y="634" type="curve" smooth="yes"/>
      <point x="1188" y="634" type="line"/>
      <point x="1205" y="710" type="line"/>
      <point x="743" y="710" type="line"/>
      <point x="423" y="93" type="line"/>
      <point x="585" y="222" type="line"/>
      <point x="562" y="710" type="line"/>
      <point x="105" y="710" type="line"/>
      <point x="87" y="634" type="line"/>
      <point x="98" y="634" type="line" smooth="yes"/>
      <point x="128" y="634"/>
      <point x="148" y="627"/>
      <point x="141" y="598" type="curve" smooth="yes"/>
      <point x="43" y="112" type="line" smooth="yes"/>
      <point x="37" y="83"/>
      <point x="15" y="76"/>
      <point x="-15" y="76" type="curve"/>
      <point x="-27" y="76" type="line"/>
    </contour>
  </outline>
</glyph>
<glyph name="P" format="2">
  <advance width="865"/>
  <unicode hex="0050"/>
  <outline>
    <contour>
      <point x="404" y="355" type="line"/>
      <point x="457" y="623" type="line"/>
      <point x="475" y="623" type="line" smooth="yes"/>
      <point x="538" y="623"/>
      <point x="571" y="587"/>
      <point x="571" y="520" type="curve" smooth="yes"/>
      <point x="571" y="433"/>
      <point x="532" y="355"/>
      <point x="431" y="355" type="curve" smooth="yes"/>
    </contour>
    <contour>
      <point x="106" y="710" type="line"/>
      <point x="88" y="634" type="line"/>
      <point x="99" y="634" type="line" smooth="yes"/>
      <point x="129" y="634"/>
      <point x="149" y="627"/>
      <point x="143" y="598" type="curve" smooth="yes"/>
      <point x="44" y="111" type="line" smooth="yes"/>
      <point x="38" y="83"/>
      <point x="16" y="76"/>
      <point x="-13" y="76" type="curve" smooth="yes"/>
      <point x="-25" y="76" type="line"/>
      <point x="-43" y="0" type="line"/>
      <point x="403" y="0" type="line"/>
      <point x="421" y="76" type="line"/>
      <point x="405" y="76" type="line"/>
      <point x="372" y="76"/>
      <point x="348" y="79"/>
      <point x="349" y="86" type="curve" smooth="yes"/>
      <point x="384" y="268" type="line"/>
      <point x="489" y="268" type="line" smooth="yes"/>
      <point x="751" y="268"/>
      <point x="872" y="361"/>
      <point x="872" y="515" type="curve" smooth="yes"/>
      <point x="872" y="629"/>
      <point x="766" y="710"/>
      <point x="537" y="710" type="curve" smooth="yes"/>
    </contour>
  </outline>
</glyph>
<glyph name="Q" format="2">
  <advance width="956"/>
  <unicode hex="0051"/>
  <outline>
    <contour>
      <point x="930" y="393" type="curve" smooth="yes"/>
      <point x="930" y="587"/>
      <point x="761" y="720"/>
      <point x="522" y="720" type="curve" smooth="yes"/>
      <point x="208" y="720"/>
      <point x="28" y="537"/>
      <point x="28" y="317" type="curve" smooth="yes"/>
      <point x="28" y="123"/>
      <point x="197" y="-10"/>
      <point x="437" y="-10" type="curve" smooth="yes"/>
      <point x="750" y="-10"/>
      <point x="930" y="173"/>
    </contour>
    <contour>
      <point x="433" y="83" type="curve"/>
      <point x="377" y="83"/>
      <point x="349" y="137"/>
      <point x="349" y="251" type="curve" smooth="yes"/>
      <point x="349" y="309"/>
      <point x="357" y="375"/>
      <point x="373" y="434" type="curve" smooth="yes"/>
      <point x="399" y="539"/>
      <point x="451" y="627"/>
      <point x="525" y="627" type="curve"/>
      <point x="582" y="627"/>
      <point x="609" y="573"/>
      <point x="609" y="459" type="curve" smooth="yes"/>
      <point x="609" y="401"/>
      <point x="601" y="335"/>
      <point x="586" y="276" type="curve" smooth="yes"/>
      <point x="559" y="171"/>
      <point x="508" y="83"/>
    </contour>
    <contour>
      <point x="578" y="-228" type="curve" smooth="yes"/>
      <point x="662" y="-228"/>
      <point x="736" y="-212"/>
      <point x="778" y="-197" type="curve"/>
      <point x="814" y="-37" type="line"/>
      <point x="797" y="-43"/>
      <point x="707" y="-72"/>
      <point x="601" y="-72" type="curve" smooth="yes"/>
      <point x="511" y="-72"/>
      <point x="473" y="-53"/>
      <point x="473" y="-15" type="curve" smooth="yes"/>
      <point x="473" y="-6"/>
      <point x="475" y="3"/>
      <point x="478" y="14" type="curve"/>
      <point x="365" y="13" type="line"/>
      <point x="351" y="-14"/>
      <point x="338" y="-46"/>
      <point x="338" y="-74" type="curve" smooth="yes"/>
      <point x="338" y="-169"/>
      <point x="440" y="-228"/>
    </contour>
  </outline>
</glyph>
<glyph name="T" format="2">
  <advance width="896"/>
  <unicode hex="0054"/>
  <anchor x="461" y="741" name="top"/>
  <anchor x="461" y="0" name="bottom"/>
  <outline>
    <contour>
      <point x="245" y="112" type="line" smooth="yes"/>
      <point x="239" y="83"/>
      <point x="218" y="76"/>
      <point x="189" y="76" type="curve" smooth="yes"/>
      <point x="172" y="76" type="line"/>
      <point x="154" y="0" type="line"/>
      <point x="595" y="0" type="line"/>
      <point x="612" y="76" type="line"/>
      <point x="596" y="76" type="line" smooth="yes"/>
      <point x="567" y="76"/>
      <point x="549" y="83"/>
      <point x="554" y="112" type="curve" smooth="yes"/>
      <point x="658" y="623" type="line"/>
      <point x="667" y="623" type="line" smooth="yes"/>
      <point x="747" y="623"/>
      <point x="779" y="616"/>
      <point x="776" y="580" type="curve" smooth="yes"/>
      <point x="761" y="467" type="line"/>
      <point x="894" y="467" type="line"/>
      <point x="947" y="710" type="line"/>
      <point x="105" y="710" type="line"/>
      <point x="51" y="467" type="line"/>
      <point x="183" y="467" type="line"/>
      <point x="216" y="580" type="line" smooth="yes"/>
      <point x="227" y="616"/>
      <point x="260" y="623"/>
      <point x="339" y="623" type="curve" smooth="yes"/>
      <point x="348" y="623" type="line"/>
    </contour>
  </outline>
</glyph>
<glyph name="bracketleft" format="2">
  <advance width="428"/>
  <unicode hex="005B"/>
  <outline>
    <contour>
      <point x="366" y="-39" type="line"/>
      <point x="238" y="-39" type="line"/>
      <point x="379" y="659" type="line"/>
      <point x="507" y="659" type="line"/>
      <point x="528" y="750" type="line"/>
      <point x="174" y="750" type="line"/>
      <point x="-9" y="-130" type="line"/>
      <point x="344" y="-130" type="line"/>
    </contour>
  </outline>
</glyph>
<glyph name="underscore" format="2">
  <advance width="565"/>
  <unicode hex="005F"/>
  <outline>
    <contour>
      <point x="-6" y="-78" type="line"/>
      <point x="-27" y="-180" type="line"/>
      <point x="567" y="-180" type="line"/>
      <point x="589" y="-78" type="line"/>
    </contour>
  </outline>
</glyph>
<glyph name="c" format="2">
  <advance width="692"/>
  <unicode hex="0063"/>
  <anchor x="368" y="513" name="top"/>
  <anchor x="379" y="0" name="bottom"/>
  <outline>
    <contour>
      <point x="428" y="523" type="curve" smooth="yes"/>
      <point x="178" y="523"/>
      <point x="23" y="397"/>
      <point x="23" y="228" type="curve" smooth="yes"/>
      <point x="23" y="74"/>
      <point x="168" y="-14"/>
      <point x="364" y="-14" type="curve" smooth="yes"/>
      <point x="526" y="-14"/>
      <point x="613" y="47"/>
      <point x="658" y="141" type="curve"/>
      <point x="571" y="186" type="line"/>
      <point x="543" y="134"/>
      <point x="496" y="79"/>
      <point x="427" y="79" type="curve" smooth="yes"/>
      <point x="355" y="79"/>
      <point x="320" y="136"/>
      <point x="320" y="214" type="curve" smooth="yes"/>
      <point x="320" y="318"/>
      <point x="366" y="434"/>
      <point x="445" y="434" type="curve" smooth="yes"/>
      <point x="473" y="434"/>
      <point x="488" y="419"/>
      <point x="495" y="397" type="curve"/>
      <point x="526" y="405"/>
      <point x="536" y="450"/>
      <point x="485" y="455" type="curve"/>
      <point x="456" y="325" type="line"/>
      <point x="663" y="325" type="line"/>
      <point x="691" y="461" type="line"/>
      <point x="670" y="480"/>
      <point x="591" y="523"/>
    </contour>
  </outline>
</glyph>
<glyph name="k" format="2">
  <advance width="803"/>
  <unicode hex="006B"/>
  <anchor x="409" y="0" name="bottom"/>
  <outline>
    <contour>
      <point x="661" y="193" type="line" smooth="yes"/>
      <point x="691" y="113"/>
      <point x="711" y="89"/>
      <point x="740" y="89" type="curve" smooth="yes"/>
      <point x="758" y="89"/>
      <point x="778" y="97"/>
      <point x="780" y="98" type="curve"/>
      <point x="769" y="17" type="line"/>
      <point x="741" y="5"/>
      <point x="677" y="-11"/>
      <point x="604" y="-11" type="curve"/>
      <point x="486" y="-11"/>
      <point x="427" y="36"/>
      <point x="401" y="131" type="curve"/>
      <point x="367" y="261" type="line"/>
      <point x="368" y="275" type="line"/>
      <point x="459" y="354"/>
      <point x="552" y="434"/>
      <point x="642" y="513" type="curve"/>
      <point x="841" y="513" type="line"/>
      <point x="841" y="500" type="line"/>
      <point x="720" y="426"/>
      <point x="598" y="352"/>
      <point x="478" y="277" type="curve"/>
      <point x="592" y="376" type="line"/>
    </contour>
    <contour>
      <point x="-1" y="0" type="line"/>
      <point x="133" y="630" type="line" smooth="yes"/>
      <point x="136" y="648"/>
      <point x="126" y="654"/>
      <point x="103" y="659" type="curve" smooth="yes"/>
      <point x="93" y="661" type="line"/>
      <point x="110" y="735" type="line"/>
      <point x="447" y="735" type="line"/>
      <point x="291" y="0" type="line"/>
    </contour>
  </outline>
</glyph>
<glyph name="l" format="2">
  <advance width="395"/>
  <unicode hex="006C"/>
  <anchor x="211" y="746" name="top"/>
  <anchor x="327" y="735" name="right"/>
  <anchor x="387" y="391" name="mid"/>
  <anchor x="214" y="0" name="bottom"/>
  <outline>
    <contour>
      <point x="330" y="205" type="curve" smooth="yes"/>
      <point x="439" y="735" type="line"/>
      <point x="106" y="735" type="line"/>
      <point x="90" y="661" type="line"/>
      <point x="100" y="659" type="line" smooth="yes"/>
      <point x="122" y="654"/>
      <point x="132" y="648"/>
      <point x="129" y="630" type="curve" smooth="yes"/>
      <point x="47" y="233" type="line" smooth="yes"/>
      <point x="35" y="174"/>
      <point x="27" y="143"/>
      <point x="27" y="115" type="curve" smooth="yes"/>
      <point x="27" y="31"/>
      <point x="103" y="-11"/>
      <point x="208" y="-11" type="curve" smooth="yes"/>
      <point x="278" y="-11"/>
      <point x="337" y="5"/>
      <point x="362" y="18" type="curve"/>
      <point x="380" y="96" type="line"/>
      <point x="375" y="95"/>
      <point x="360" y="88"/>
      <point x="343" y="88" type="curve" smooth="yes"/>
      <point x="323" y="88"/>
      <point x="312" y="94"/>
      <point x="312" y="111" type="curve" smooth="yes"/>
      <point x="312" y="129"/>
      <point x="320" y="161"/>
    </contour>
  </outline>
</glyph>
<glyph name="o" format="2">
  <advance width="788"/>
  <unicode hex="006F"/>
  <anchor x="395" y="513" name="top"/>
  <anchor x="508" y="0" name="right"/>
  <anchor x="395" y="0" name="bottom"/>
  <outline>
    <contour>
      <point x="23" y="235" type="curve" smooth="yes"/>
      <point x="23" y="82"/>
      <point x="164" y="-14"/>
      <point x="377" y="-14" type="curve" smooth="yes"/>
      <point x="619" y="-14"/>
      <point x="765" y="110"/>
      <point x="765" y="274" type="curve" smooth="yes"/>
      <point x="765" y="427"/>
      <point x="626" y="523"/>
      <point x="411" y="523" type="curve" smooth="yes"/>
      <point x="170" y="523"/>
      <point x="23" y="399"/>
    </contour>
    <contour>
      <point x="455" y="221" type="curve" smooth="yes"/>
      <point x="440" y="145"/>
      <point x="410" y="75"/>
      <point x="364" y="75" type="curve" smooth="yes"/>
      <point x="331" y="75"/>
      <point x="321" y="108"/>
      <point x="321" y="168" type="curve" smooth="yes"/>
      <point x="321" y="203"/>
      <point x="324" y="247"/>
      <point x="333" y="288" type="curve" smooth="yes"/>
      <point x="349" y="364"/>
      <point x="378" y="434"/>
      <point x="425" y="434" type="curve" smooth="yes"/>
      <point x="457" y="434"/>
      <point x="468" y="402"/>
      <point x="468" y="341" type="curve" smooth="yes"/>
      <point x="468" y="306"/>
      <point x="464" y="263"/>
    </contour>
  </outline>
</glyph>
<glyph name="q" format="2">
  <advance width="790"/>
  <unicode hex="0071"/>
  <outline>
    <contour>
      <point x="287" y="-223" type="line"/>
      <point x="683" y="-223" type="line"/>
      <point x="698" y="-152" type="line"/>
      <point x="697" y="-152" type="line" smooth="yes"/>
      <point x="677" y="-152"/>
      <point x="660" y="-146"/>
      <point x="665" y="-125" type="curve" smooth="yes"/>
      <point x="800" y="522" type="line"/>
      <point x="615" y="522" type="line"/>
      <point x="504" y="439" type="line"/>
      <point x="495" y="452" type="line"/>
      <point x="370" y="-144" type="line" smooth="yes"/>
      <point x="369" y="-150"/>
      <point x="330" y="-152"/>
      <point x="304" y="-152" type="curve" smooth="yes"/>
      <point x="302" y="-152" type="line"/>
    </contour>
    <contour>
      <point x="23" y="194" type="curve" smooth="yes"/>
      <point x="23" y="64"/>
      <point x="113" y="-14"/>
      <point x="227" y="-14" type="curve" smooth="yes"/>
      <point x="361" y="-14"/>
      <point x="433" y="71"/>
      <point x="508" y="198" type="curve"/>
      <point x="481" y="220" type="line"/>
      <point x="442" y="139"/>
      <point x="409" y="95"/>
      <point x="367" y="95" type="curve" smooth="yes"/>
      <point x="336" y="95"/>
      <point x="321" y="119"/>
      <point x="321" y="180" type="curve" smooth="yes"/>
      <point x="321" y="280"/>
      <point x="356" y="443"/>
      <point x="452" y="443" type="curve" smooth="yes"/>
      <point x="500" y="443"/>
      <point x="519" y="406"/>
      <point x="515" y="356" type="curve"/>
      <point x="633" y="356" type="line"/>
      <point x="627" y="436"/>
      <point x="562" y="523"/>
      <point x="406" y="523" type="curve" smooth="yes"/>
      <point x="166" y="523"/>
      <point x="23" y="367"/>
    </contour>
  </outline>
</glyph>
<glyph name="u" format="2">
  <advance width="794"/>
  <unicode hex="0075"/>
  <anchor x="378" y="513" name="top"/>
  <anchor x="553" y="0" name="right"/>
  <anchor x="374" y="0" name="bottom"/>
  <outline>
    <contour>
      <point x="335" y="203" type="curve" smooth="yes"/>
      <point x="403" y="513" type="line"/>
      <point x="67" y="513" type="line"/>
      <point x="51" y="439" type="line"/>
      <point x="61" y="437" type="line" smooth="yes"/>
      <point x="83" y="432"/>
      <point x="93" y="426"/>
      <point x="90" y="407" type="curve" smooth="yes"/>
      <point x="49" y="224" type="line" smooth="yes"/>
      <point x="34" y="170"/>
      <point x="30" y="140"/>
      <point x="30" y="111" type="curve" smooth="yes"/>
      <point x="30" y="38"/>
      <point x="85" y="-13"/>
      <point x="192" y="-13" type="curve" smooth="yes"/>
      <point x="325" y="-13"/>
      <point x="404" y="60"/>
      <point x="482" y="168" type="curve"/>
      <point x="469" y="228" type="line"/>
      <point x="434" y="154"/>
      <point x="382" y="101"/>
      <point x="351" y="101" type="curve" smooth="yes"/>
      <point x="331" y="101"/>
      <point x="324" y="116"/>
      <point x="324" y="139" type="curve" smooth="yes"/>
      <point x="324" y="156"/>
      <point x="328" y="174"/>
    </contour>
    <contour>
      <point x="603" y="-11" type="curve" smooth="yes"/>
      <point x="670" y="-11"/>
      <point x="732" y="5"/>
      <point x="760" y="18" type="curve"/>
      <point x="777" y="96" type="line"/>
      <point x="773" y="95"/>
      <point x="758" y="88"/>
      <point x="741" y="88" type="curve" smooth="yes"/>
      <point x="719" y="88"/>
      <point x="710" y="95"/>
      <point x="710" y="111" type="curve" smooth="yes"/>
      <point x="710" y="129"/>
      <point x="718" y="162"/>
      <point x="728" y="206" type="curve" smooth="yes"/>
      <point x="793" y="513" type="line"/>
      <point x="501" y="513" type="line"/>
      <point x="413" y="109" type="line"/>
      <point x="425" y="134" type="line"/>
      <point x="425" y="126"/>
      <point x="425" y="121"/>
      <point x="425" y="115" type="curve"/>
      <point x="425" y="30"/>
      <point x="491" y="-11"/>
    </contour>
  </outline>
</glyph>
<glyph name="x" format="2">
  <advance width="735"/>
  <unicode hex="0078"/>
  <outline>
    <contour>
      <point x="478" y="247" type="line"/>
      <point x="759" y="503" type="line"/>
      <point x="759" y="513" type="line"/>
      <point x="575" y="513" type="line"/>
      <point x="412" y="285" type="line"/>
    </contour>
    <contour>
      <point x="-18" y="0" type="line"/>
      <point x="174" y="0" type="line"/>
      <point x="338" y="225" type="line"/>
      <point x="260" y="267" type="line"/>
      <point x="-18" y="12" type="line"/>
    </contour>
    <contour>
      <point x="500" y="-12" type="curve" smooth="yes"/>
      <point x="566" y="-12"/>
      <point x="640" y="2"/>
      <point x="673" y="15" type="curve"/>
      <point x="679" y="96" type="line"/>
      <point x="675" y="95"/>
      <point x="656" y="87"/>
      <point x="638" y="87" type="curve" smooth="yes"/>
      <point x="610" y="87"/>
      <point x="590" y="100"/>
      <point x="566" y="158" type="curve" smooth="yes"/>
      <point x="408" y="513" type="line"/>
      <point x="116" y="513" type="line"/>
      <point x="101" y="439" type="line"/>
      <point x="118" y="437" type="line" smooth="yes"/>
      <point x="145" y="433"/>
      <point x="157" y="425"/>
      <point x="164" y="407" type="curve" smooth="yes"/>
      <point x="296" y="114" type="line" smooth="yes"/>
      <point x="337" y="16"/>
      <point x="397" y="-12"/>
    </contour>
  </outline>
</glyph>
<glyph name="asciitilde" format="2">
  <advance width="624"/>
  <unicode hex="007E"/>
  <outline>
    <contour>
      <point x="229" y="477" type="curve" smooth="yes"/>
      <point x="122" y="477"/>
      <point x="66" y="413"/>
      <point x="22" y="295" type="curve"/>
      <point x="135" y="259" type="line"/>
      <point x="147" y="294"/>
      <point x="161" y="322"/>
      <point x="205" y="322" type="curve" smooth="yes"/>
      <point x="264" y="322"/>
      <point x="299" y="262"/>
      <point x="407" y="262" type="curve" smooth="yes"/>
      <point x="507" y="262"/>
      <point x="578" y="327"/>
      <point x="619" y="448" type="curve"/>
      <point x="507" y="485" type="line"/>
      <point x="490" y="445"/>
      <point x="473" y="418"/>
      <point x="429" y="418" type="curve" smooth="yes"/>
      <point x="361" y="418"/>
      <point x="331" y="477"/>
    </contour>
  </outline>
</glyph>
<glyph name="sterling" format="2">
  <advance width="660"/>
  <unicode hex="00A3"/>
  <outline>
    <contour>
      <point x="422" y="627" type="curve" smooth="yes"/>
      <point x="453" y="627"/>
      <point x="470" y="611"/>
      <point x="479" y="586" type="curve"/>
      <point x="515" y="592"/>
      <point x="508" y="625"/>
      <point x="459" y="628" type="curve"/>
      <point x="437" y="522" type="line"/>
      <point x="637" y="522" type="line"/>
      <point x="664" y="647" type="line"/>
      <point x="653" y="659"/>
      <point x="582" y="720"/>
      <point x="398" y="720" type="curve" smooth="yes"/>
      <point x="186" y="720"/>
      <point x="78" y="633"/>
      <point x="78" y="517" type="curve" smooth="yes"/>
      <point x="78" y="424"/>
      <point x="153" y="344"/>
      <point x="153" y="250" type="curve" smooth="yes"/>
      <point x="153" y="169"/>
      <point x="95" y="119"/>
      <point x="-13" y="103" type="curve"/>
      <point x="-39" y="-11" type="line"/>
      <point x="264" y="6"/>
      <point x="362" y="160"/>
      <point x="362" y="311" type="curve" smooth="yes"/>
      <point x="362" y="387"/>
      <point x="349" y="449"/>
      <point x="349" y="509" type="curve" smooth="yes"/>
      <point x="349" y="578"/>
      <point x="371" y="627"/>
    </contour>
    <contour>
      <point x="29" y="397" type="line"/>
      <point x="5" y="295" type="line"/>
      <point x="504" y="295" type="line"/>
      <point x="528" y="397" type="line"/>
    </contour>
    <contour>
      <point x="410" y="-11" type="curve" smooth="yes"/>
      <point x="527" y="-11"/>
      <point x="589" y="94"/>
      <point x="629" y="192" type="curve"/>
      <point x="516" y="234" type="line"/>
      <point x="489" y="175"/>
      <point x="465" y="141"/>
      <point x="412" y="141" type="curve" smooth="yes"/>
      <point x="350" y="141"/>
      <point x="308" y="171"/>
      <point x="254" y="230" type="curve"/>
      <point x="160" y="146" type="line"/>
      <point x="270" y="34"/>
      <point x="308" y="-11"/>
    </contour>
  </outline>
</glyph>
<glyph name="currency" format="2">
  <advance width="661"/>
  <unicode hex="00A4"/>
  <outline>
    <contour>
      <point x="74" y="91" type="line"/>
      <point x="236" y="207" type="line"/>
      <point x="131" y="289" type="line"/>
      <point x="-21" y="181" type="line"/>
    </contour>
    <contour>
      <point x="52" y="569" type="line"/>
      <point x="164" y="457" type="line"/>
      <point x="306" y="539" type="line"/>
      <point x="188" y="657" type="line"/>
    </contour>
    <contour>
      <point x="336" y="290" type="curve" smooth="yes"/>
      <point x="288" y="290"/>
      <point x="260" y="323"/>
      <point x="260" y="368" type="curve" smooth="yes"/>
      <point x="260" y="420"/>
      <point x="292" y="456"/>
      <point x="345" y="456" type="curve" smooth="yes"/>
      <point x="392" y="456"/>
      <point x="421" y="423"/>
      <point x="421" y="378" type="curve" smooth="yes"/>
      <point x="421" y="326"/>
      <point x="389" y="290"/>
    </contour>
    <contour>
      <point x="324" y="153" type="curve" smooth="yes"/>
      <point x="491" y="153"/>
      <point x="608" y="260"/>
      <point x="608" y="387" type="curve" smooth="yes"/>
      <point x="608" y="507"/>
      <point x="495" y="593"/>
      <point x="357" y="593" type="curve" smooth="yes"/>
      <point x="190" y="593"/>
      <point x="73" y="486"/>
      <point x="73" y="360" type="curve" smooth="yes"/>
      <point x="73" y="239"/>
      <point x="186" y="153"/>
    </contour>
    <contour>
      <point x="489" y="89" type="line"/>
      <point x="625" y="178" type="line"/>
      <point x="513" y="289" type="line"/>
      <point x="371" y="207" type="line"/>
    </contour>
    <contour>
      <point x="699" y="565" type="line"/>
      <point x="604" y="655" type="line"/>
      <point x="442" y="539" type="line"/>
      <point x="546" y="456" type="line"/>
    </contour>
  </outline>
</glyph>
<glyph name="dieresis" format="2">
  <advance width="590"/>
  <unicode hex="00A8"/>
  <anchor x="295" y="526" name="_top"/>
  <outline>
    <contour>
      <point x="136" y="566" type="curve" smooth="yes"/>
      <point x="227" y="566"/>
      <point x="279" y="603"/>
      <point x="279" y="662" type="curve" smooth="yes"/>
      <point x="279" y="715"/>
      <point x="233" y="748"/>
      <point x="150" y="748" type="curve" smooth="yes"/>
      <point x="58" y="748"/>
      <point x="6" y="711"/>
      <point x="6" y="652" type="curve" smooth="yes"/>
      <point x="6" y="599"/>
      <point x="52" y="566"/>
    </contour>
    <contour>
      <point x="438" y="566" type="curve" smooth="yes"/>
      <point x="530" y="566"/>
      <point x="582" y="603"/>
      <point x="582" y="662" type="curve" smooth="yes"/>
      <point x="582" y="715"/>
      <point x="536" y="748"/>
      <point x="452" y="748" type="curve" smooth="yes"/>
      <point x="361" y="748"/>
      <point x="309" y="711"/>
      <point x="309" y="652" type="curve" smooth="yes"/>
      <point x="309" y="599"/>
      <point x="355" y="566"/>
    </contour>
  </outline>
</glyph>
<glyph name="copyright" format="2">
  <advance width="1014"/>
  <unicode hex="00A9"/>
  <outline>
    <contour>
      <point x="542" y="491" type="curve" smooth="yes"/>
      <point x="588" y="491"/>
      <point x="621" y="457"/>
      <point x="632" y="407" type="curve"/>
      <point x="713" y="407" type="line"/>
      <point x="713" y="550" type="line"/>
      <point x="643" y="550" type="line"/>
      <point x="635" y="445" type="line"/>
      <point x="680" y="421" type="line"/>
      <point x="662" y="519"/>
      <point x="602" y="561"/>
      <point x="501" y="561" type="curve" smooth="yes"/>
      <point x="369" y="561"/>
      <point x="262" y="476"/>
      <point x="262" y="354" type="curve" smooth="yes"/>
      <point x="262" y="231"/>
      <point x="367" y="149"/>
      <point x="516" y="149" type="curve" smooth="yes"/>
      <point x="625" y="149"/>
      <point x="704" y="208"/>
      <point x="723" y="288" type="curve"/>
      <point x="654" y="316" type="line"/>
      <point x="641" y="259"/>
      <point x="603" y="219"/>
      <point x="547" y="219" type="curve" smooth="yes"/>
      <point x="482" y="219"/>
      <point x="455" y="271"/>
      <point x="455" y="354" type="curve" smooth="yes"/>
      <point x="455" y="442"/>
      <point x="481" y="491"/>
    </contour>
    <contour>
      <point x="154" y="355" type="curve" smooth="yes"/>
      <point x="154" y="531"/>
      <point x="295" y="668"/>
      <point x="507" y="668" type="curve" smooth="yes"/>
      <point x="717" y="668"/>
      <point x="860" y="531"/>
      <point x="860" y="355" type="curve" smooth="yes"/>
      <point x="860" y="179"/>
      <point x="717" y="42"/>
      <point x="507" y="42" type="curve" smooth="yes"/>
      <point x="295" y="42"/>
      <point x="154" y="179"/>
    </contour>
    <contour>
      <point x="35" y="355" type="curve" smooth="yes"/>
      <point x="35" y="133"/>
      <point x="233" y="-38"/>
      <point x="507" y="-38" type="curve" smooth="yes"/>
      <point x="780" y="-38"/>
      <point x="979" y="133"/>
      <point x="979" y="355" type="curve" smooth="yes"/>
      <point x="979" y="577"/>
      <point x="780" y="748"/>
      <point x="507" y="748" type="curve" smooth="yes"/>
      <point x="233" y="748"/>
      <point x="35" y="577"/>
    </contour>
  </outline>
</glyph>
<glyph name="logicalnot" format="2">
  <advance width="661"/>
  <unicode hex="00AC"/>
  <outline>
    <contour>
      <point x="427" y="334" type="line"/>
      <point x="386" y="134" type="line"/>
      <point x="563" y="134" type="line"/>
      <point x="622" y="407" type="line"/>
      <point x="90" y="407" type="line"/>
      <point x="61" y="280" type="line"/>
      <point x="464" y="280" type="line"/>
    </contour>
  </outline>
</glyph>
<glyph name="registered" format="2">
  <advance width="1014"/>
  <unicode hex="00AE"/>
  <outline>
    <contour>
      <point x="513" y="28" type="curve" smooth="yes"/>
      <point x="790" y="-9"/>
      <point x="989" y="105"/>
      <point x="985" y="289" type="curve" smooth="yes"/>
      <point x="982" y="474"/>
      <point x="777" y="645"/>
      <point x="500" y="682" type="curve" smooth="yes"/>
      <point x="223" y="719"/>
      <point x="25" y="605"/>
      <point x="29" y="421" type="curve" smooth="yes"/>
      <point x="32" y="236"/>
      <point x="236" y="65"/>
    </contour>
    <contour>
      <point x="275" y="152" type="line"/>
      <point x="508" y="152" type="line"/>
      <point x="508" y="212" type="line"/>
      <point x="500" y="212" type="line" smooth="yes"/>
      <point x="490" y="212"/>
      <point x="483" y="214"/>
      <point x="483" y="218" type="curve" smooth="yes"/>
      <point x="483" y="308" type="line"/>
      <point x="524" y="308" type="line" smooth="yes"/>
      <point x="665" y="308"/>
      <point x="735" y="358"/>
      <point x="735" y="436" type="curve" smooth="yes"/>
      <point x="735" y="512"/>
      <point x="672" y="557"/>
      <point x="528" y="557" type="curve" smooth="yes"/>
      <point x="275" y="557" type="line"/>
      <point x="275" y="496" type="line"/>
      <point x="279" y="496" type="line" smooth="yes"/>
      <point x="297" y="496"/>
      <point x="313" y="492"/>
      <point x="313" y="476" type="curve" smooth="yes"/>
      <point x="313" y="232" type="line" smooth="yes"/>
      <point x="313" y="216"/>
      <point x="297" y="212"/>
      <point x="279" y="212" type="curve" smooth="yes"/>
      <point x="275" y="212" type="line"/>
    </contour>
    <contour>
      <point x="498" y="490" type="line" smooth="yes"/>
      <point x="540" y="490"/>
      <point x="565" y="472"/>
      <point x="565" y="428" type="curve" smooth="yes"/>
      <point x="565" y="382"/>
      <point x="540" y="358"/>
      <point x="495" y="358" type="curve" smooth="yes"/>
      <point x="483" y="358" type="line"/>
      <point x="483" y="490" type="line"/>
    </contour>
    <contour>
      <point x="512" y="99" type="curve" smooth="yes"/>
      <point x="298" y="131"/>
      <point x="152" y="268"/>
      <point x="149" y="412" type="curve" smooth="yes"/>
      <point x="145" y="556"/>
      <point x="287" y="643"/>
      <point x="501" y="611" type="curve" smooth="yes"/>
      <point x="715" y="579"/>
      <point x="862" y="442"/>
      <point x="866" y="298" type="curve" smooth="yes"/>
      <point x="869" y="154"/>
      <point x="726" y="67"/>
    </contour>
    <contour>
      <point x="488" y="335" type="line"/>
      <point x="569" y="152" type="line"/>
      <point x="747" y="152" type="line"/>
      <point x="747" y="212" type="line"/>
      <point x="741" y="212" type="line" smooth="yes"/>
      <point x="728" y="212"/>
      <point x="720" y="215"/>
      <point x="712" y="228" type="curve" smooth="yes"/>
      <point x="632" y="376" type="line"/>
    </contour>
  </outline>
</glyph>
<glyph name="degree" format="2">
  <advance width="598"/>
  <unicode hex="00B0"/>
  <outline>
    <contour>
      <point x="327" y="438" type="curve" smooth="yes"/>
      <point x="269" y="438"/>
      <point x="230" y="475"/>
      <point x="230" y="531" type="curve" smooth="yes"/>
      <point x="230" y="589"/>
      <point x="269" y="624"/>
      <point x="327" y="624" type="curve" smooth="yes"/>
      <point x="386" y="624"/>
      <point x="425" y="589"/>
      <point x="425" y="531" type="curve" smooth="yes"/>
      <point x="425" y="475"/>
      <point x="386" y="438"/>
    </contour>
    <contour>
      <point x="327" y="333" type="curve" smooth="yes"/>
      <point x="466" y="333"/>
      <point x="579" y="413"/>
      <point x="579" y="531" type="curve" smooth="yes"/>
      <point x="579" y="649"/>
      <point x="466" y="729"/>
      <point x="327" y="729" type="curve" smooth="yes"/>
      <point x="188" y="729"/>
      <point x="75" y="649"/>
      <point x="75" y="531" type="curve" smooth="yes"/>
      <point x="75" y="413"/>
      <point x="188" y="333"/>
    </contour>
  </outline>
</glyph>
<glyph name="paragraph" format="2">
  <advance width="776"/>
  <unicode hex="00B6"/>
  <outline>
    <contour>
      <point x="830" y="710" type="line"/>
      <point x="812" y="634" type="line"/>
      <point x="801" y="634" type="line" smooth="yes"/>
      <point x="772" y="634"/>
      <point x="750" y="627"/>
      <point x="744" y="598" type="curve" smooth="yes"/>
      <point x="620" y="0" type="line"/>
      <point x="460" y="0" type="line"/>
      <point x="608" y="710" type="line"/>
    </contour>
    <contour>
      <point x="647" y="710" type="line"/>
      <point x="629" y="634" type="line"/>
      <point x="434" y="634" type="line"/>
      <point x="453" y="710" type="line"/>
    </contour>
    <contour>
      <point x="400" y="0" type="line"/>
      <point x="240" y="0" type="line"/>
      <point x="300" y="295" type="line"/>
      <point x="294" y="295" type="line" smooth="yes"/>
      <point x="142" y="295"/>
      <point x="49" y="374"/>
      <point x="49" y="487" type="curve" smooth="yes"/>
      <point x="49" y="611"/>
      <point x="144" y="710"/>
      <point x="364" y="710" type="curve" smooth="yes"/>
      <point x="549" y="710" type="line"/>
    </contour>
  </outline>
</glyph>
<glyph name="Eth" format="2">
  <advance width="966"/>
  <unicode hex="00D0"/>
  <outline>
    <contour>
      <point x="21" y="309" type="line"/>
      <point x="504" y="309" type="line"/>
      <point x="525" y="401" type="line"/>
      <point x="42" y="401" type="line"/>
    </contour>
    <component base="D"/>
  </outline>
</glyph>
<glyph name="Oslash" format="2">
  <advance width="954"/>
  <unicode hex="00D8"/>
  <anchor x="475" y="731" name="top"/>
  <outline>
    <contour>
      <point x="-103" y="-15" type="line"/>
      <point x="45" y="-15" type="line"/>
      <point x="1033" y="725" type="line"/>
      <point x="885" y="725" type="line"/>
    </contour>
    <contour>
      <point x="440" y="-10" type="curve" smooth="yes"/>
      <point x="753" y="-10"/>
      <point x="934" y="173"/>
      <point x="934" y="393" type="curve" smooth="yes"/>
      <point x="934" y="587"/>
      <point x="765" y="720"/>
      <point x="525" y="720" type="curve" smooth="yes"/>
      <point x="212" y="720"/>
      <point x="32" y="537"/>
      <point x="32" y="317" type="curve" smooth="yes"/>
      <point x="32" y="123"/>
      <point x="201" y="-10"/>
    </contour>
    <contour>
      <point x="433" y="83" type="curve"/>
      <point x="372" y="83"/>
      <point x="345" y="133"/>
      <point x="345" y="251" type="curve" smooth="yes"/>
      <point x="345" y="306"/>
      <point x="353" y="369"/>
      <point x="368" y="427" type="curve" smooth="yes"/>
      <point x="395" y="535"/>
      <point x="446" y="627"/>
      <point x="525" y="627" type="curve"/>
      <point x="586" y="627"/>
      <point x="614" y="577"/>
      <point x="614" y="459" type="curve" smooth="yes"/>
      <point x="614" y="404"/>
      <point x="605" y="341"/>
      <point x="591" y="283" type="curve" smooth="yes"/>
      <point x="564" y="175"/>
      <point x="512" y="83"/>
    </contour>
  </outline>
</glyph>
<glyph name="thorn" format="2">
  <advance width="797"/>
  <unicode hex="00FE"/>
  <outline>
    <contour>
      <point x="-87" y="-223" type="line"/>
      <point x="308" y="-223" type="line"/>
      <point x="324" y="-152" type="line"/>
      <point x="322" y="-152" type="line" smooth="yes"/>
      <point x="296" y="-152"/>
      <point x="260" y="-150"/>
      <point x="261" y="-144" type="curve"/>
      <point x="445" y="735" type="line"/>
      <point x="110" y="735" type="line"/>
      <point x="93" y="661" type="line"/>
      <point x="103" y="659" type="line" smooth="yes"/>
      <point x="126" y="654"/>
      <point x="136" y="648"/>
      <point x="132" y="630" type="curve" smooth="yes"/>
      <point x="-27" y="-125" type="line" smooth="yes"/>
      <point x="-32" y="-146"/>
      <point x="-50" y="-152"/>
      <point x="-71" y="-152" type="curve" smooth="yes"/>
      <point x="-72" y="-152" type="line"/>
    </contour>
    <contour>
      <point x="391" y="-14" type="curve" smooth="yes"/>
      <point x="631" y="-14"/>
      <point x="774" y="142"/>
      <point x="774" y="315" type="curve" smooth="yes"/>
      <point x="774" y="446"/>
      <point x="685" y="523"/>
      <point x="570" y="523" type="curve" smooth="yes"/>
      <point x="437" y="523"/>
      <point x="364" y="438"/>
      <point x="289" y="312" type="curve"/>
      <point x="316" y="289" type="line"/>
      <point x="355" y="370"/>
      <point x="389" y="415"/>
      <point x="430" y="415" type="curve" smooth="yes"/>
      <point x="462" y="415"/>
      <point x="476" y="390"/>
      <point x="476" y="329" type="curve" smooth="yes"/>
      <point x="476" y="230"/>
      <point x="441" y="67"/>
      <point x="346" y="67" type="curve" smooth="yes"/>
      <point x="297" y="67"/>
      <point x="278" y="101"/>
      <point x="282" y="149" type="curve"/>
      <point x="165" y="148" type="line"/>
      <point x="170" y="71"/>
      <point x="235" y="-14"/>
    </contour>
  </outline>
</glyph>
<glyph name="Aogonek" format="2">
  <advance width="874"/>
  <unicode hex="0104"/>
  <outline>
    <contour>
      <point x="385" y="-244" type="curve" smooth="yes"/>
      <point x="279" y="-244"/>
      <point x="208" y="-206"/>
      <point x="208" y="-132" type="curve" smooth="yes"/>
      <point x="208" y="-59"/>
      <point x="296" y="3"/>
      <point x="558" y="56" type="curve"/>
      <point x="580" y="13" type="line"/>
      <point x="439" y="-47"/>
      <point x="425" y="-87"/>
      <point x="425" y="-111" type="curve" smooth="yes"/>
      <point x="425" y="-136"/>
      <point x="442" y="-149"/>
      <point x="469" y="-149" type="curve" smooth="yes"/>
      <point x="497" y="-149"/>
      <point x="518" y="-134"/>
      <point x="530" y="-125" type="curve"/>
      <point x="576" y="-178" type="line"/>
      <point x="527" y="-215"/>
      <point x="469" y="-244"/>
    </contour>
    <contour>
      <point x="148" y="224" type="line"/>
      <point x="186" y="309" type="line"/>
      <point x="480" y="309" type="line"/>
      <point x="463" y="224" type="line"/>
    </contour>
    <contour>
      <point x="408" y="595" type="line"/>
      <point x="135" y="94" type="line"/>
      <point x="133" y="83"/>
      <point x="158" y="76"/>
      <point x="186" y="76" type="curve" smooth="yes"/>
      <point x="200" y="76" type="line"/>
      <point x="182" y="0" type="line"/>
      <point x="-54" y="0" type="line"/>
      <point x="-36" y="76" type="line"/>
      <point x="-31" y="76" type="line"/>
      <point x="-5" y="76"/>
      <point x="9" y="86"/>
      <point x="28" y="118" type="curve" smooth="yes"/>
      <point x="365" y="710" type="line"/>
      <point x="663" y="710" type="line"/>
      <point x="759" y="105" type="line" smooth="yes"/>
      <point x="762" y="81"/>
      <point x="778" y="76"/>
      <point x="805" y="76" type="curve"/>
      <point x="809" y="76" type="line"/>
      <point x="792" y="0" type="line"/>
      <point x="455" y="0" type="line"/>
      <point x="370" y="595" type="line"/>
    </contour>
  </outline>
</glyph>
<glyph name="itilde" format="2">
  <advance width="403"/>
  <unicode hex="0129"/>
  <outline>
    <contour>
      <point x="315" y="557" type="curve" smooth="yes"/>
      <point x="394" y="557"/>
      <point x="453" y="604"/>
      <point x="489" y="709" type="curve"/>
      <point x="386" y="745" type="line"/>
      <point x="370" y="706"/>
      <point x="355" y="688"/>
      <point x="330" y="688" type="curve" smooth="yes"/>
      <point x="277" y="688"/>
      <point x="259" y="741"/>
      <point x="173" y="741" type="curve" smooth="yes"/>
      <point x="83" y="741"/>
      <point x="35" y="696"/>
      <point x="1" y="590" type="curve"/>
      <point x="106" y="555" type="line"/>
      <point x="119" y="594"/>
      <point x="133" y="612"/>
      <point x="159" y="612" type="curve" smooth="yes"/>
      <point x="202" y="612"/>
      <point x="229" y="557"/>
    </contour>
    <component base="dotlessi"/>
  </outline>
</glyph>
<glyph name="Iogonek" format="2">
  <advance width="484"/>
  <unicode hex="012E"/>
  <outline>
    <contour>
      <point x="319" y="42" type="line"/>
      <point x="54" y="-11"/>
      <point x="-30" y="-61"/>
      <point x="-30" y="-142" type="curve" smooth="yes"/>
      <point x="-30" y="-209"/>
      <point x="41" y="-244"/>
      <point x="146" y="-244" type="curve" smooth="yes"/>
      <point x="230" y="-244"/>
      <point x="289" y="-215"/>
      <point x="337" y="-178" type="curve"/>
      <point x="291" y="-125" type="line"/>
      <point x="280" y="-134"/>
      <point x="258" y="-149"/>
      <point x="231" y="-149" type="curve" smooth="yes"/>
      <point x="204" y="-149"/>
      <point x="186" y="-138"/>
      <point x="186" y="-113" type="curve"/>
      <point x="186" y="-83"/>
      <point x="200" y="-46"/>
      <point x="342" y="13" type="curve"/>
    </contour>
    <component base="I"/>
  </outline>
</glyph>
<glyph name="Ldot" format="2">
  <advance width="813"/>
  <unicode hex="013F"/>
  <outline>
    <contour>
      <point x="549" y="710" type="line"/>
      <point x="106" y="710" type="line"/>
      <point x="88" y="634" type="line"/>
      <point x="99" y="634" type="line" smooth="yes"/>
      <point x="129" y="634"/>
      <point x="149" y="627"/>
      <point x="143" y="598" type="curve" smooth="yes"/>
      <point x="44" y="111" type="line" smooth="yes"/>
      <point x="38" y="83"/>
      <point x="16" y="76"/>
      <point x="-13" y="76" type="curve" smooth="yes"/>
      <point x="-25" y="76" type="line"/>
      <point x="-43" y="0" type="line"/>
      <point x="666" y="0" type="line"/>
      <point x="713" y="232" type="line"/>
      <point x="581" y="232" type="line"/>
      <point x="550" y="129" type="line" smooth="yes"/>
      <point x="539" y="93"/>
      <point x="500" y="86"/>
      <point x="412" y="86" type="curve" smooth="yes"/>
      <point x="349" y="86" type="line"/>
      <point x="453" y="599" type="line" smooth="yes"/>
      <point x="458" y="627"/>
      <point x="481" y="634"/>
      <point x="513" y="634" type="curve" smooth="yes"/>
      <point x="532" y="634" type="line"/>
    </contour>
    <component base="periodcentered" xOffset="469" yOffset="25"/>
  </outline>
</glyph>
<glyph name="lslash" format="2">
  <advance width="478"/>
  <unicode hex="0142"/>
  <outline>
    <contour>
      <point x="0" y="193" type="line"/>
      <point x="482" y="428" type="line"/>
      <point x="504" y="526" type="line"/>
      <point x="23" y="291" type="line"/>
    </contour>
    <component base="l" xOffset="30"/>
  </outline>
</glyph>
<glyph name="Eng" format="2">
  <advance width="864"/>
  <unicode hex="014A"/>
  <outline>
    <contour>
      <point x="465" y="-212" type="curve" smooth="yes"/>
      <point x="417" y="-212"/>
      <point x="367" y="-204"/>
      <point x="333" y="-193" type="curve"/>
      <point x="355" y="-93" type="line"/>
      <point x="376" y="-100"/>
      <point x="418" y="-114"/>
      <point x="468" y="-114" type="curve" smooth="yes"/>
      <point x="522" y="-114"/>
      <point x="566" y="-86"/>
      <point x="581" y="-5" type="curve" smooth="yes"/>
      <point x="604" y="93" type="line"/>
      <point x="592" y="-107" type="line"/>
      <point x="218" y="672" type="line"/>
      <point x="276" y="676" type="line"/>
      <point x="157" y="90" type="line" smooth="yes"/>
      <point x="156" y="83"/>
      <point x="183" y="76"/>
      <point x="214" y="76" type="curve" smooth="yes"/>
      <point x="228" y="76" type="line"/>
      <point x="210" y="0" type="line"/>
      <point x="-43" y="0" type="line"/>
      <point x="-25" y="76" type="line"/>
      <point x="-13" y="76" type="line" smooth="yes"/>
      <point x="16" y="76"/>
      <point x="39" y="87"/>
      <point x="45" y="116" type="curve" smooth="yes"/>
      <point x="141" y="598" type="line" smooth="yes"/>
      <point x="149" y="627"/>
      <point x="129" y="634"/>
      <point x="99" y="634" type="curve" smooth="yes"/>
      <point x="88" y="634" type="line"/>
      <point x="105" y="710" type="line"/>
      <point x="532" y="710" type="line"/>
      <point x="695" y="290" type="line"/>
      <point x="625" y="146" type="line"/>
      <point x="719" y="620" type="line" smooth="yes"/>
      <point x="720" y="627"/>
      <point x="692" y="634"/>
      <point x="663" y="634" type="curve" smooth="yes"/>
      <point x="649" y="634" type="line"/>
      <point x="665" y="710" type="line"/>
      <point x="918" y="710" type="line"/>
      <point x="901" y="634" type="line"/>
      <point x="890" y="634" type="line" smooth="yes"/>
      <point x="861" y="634"/>
      <point x="838" y="627"/>
      <point x="831" y="599" type="curve" smooth="yes"/>
      <point x="709" y="-5" type="line" smooth="yes"/>
      <point x="680" y="-149"/>
      <point x="608" y="-212"/>
    </contour>
  </outline>
</glyph>
<glyph name="eng" format="2">
  <advance width="787"/>
  <unicode hex="014B"/>
  <outline>
    <contour>
      <point x="392" y="18" type="line" smooth="yes"/>
      <point x="362" y="-104"/>
      <point x="338" y="-144"/>
      <point x="283" y="-144" type="curve" smooth="yes"/>
      <point x="239" y="-144"/>
      <point x="186" y="-124"/>
      <point x="181" y="-122" type="curve"/>
      <point x="154" y="-207" type="line"/>
      <point x="182" y="-218"/>
      <point x="253" y="-236"/>
      <point x="355" y="-236" type="curve" smooth="yes"/>
      <point x="544" y="-236"/>
      <point x="639" y="-179"/>
      <point x="686" y="9" type="curve" smooth="yes"/>
      <point x="746" y="289" type="line" smooth="yes"/>
      <point x="761" y="343"/>
      <point x="766" y="375"/>
      <point x="766" y="403" type="curve" smooth="yes"/>
      <point x="766" y="475"/>
      <point x="710" y="523"/>
      <point x="603" y="523" type="curve" smooth="yes"/>
      <point x="467" y="523"/>
      <point x="390" y="449"/>
      <point x="314" y="341" type="curve"/>
      <point x="323" y="288" type="line"/>
      <point x="357" y="359"/>
      <point x="407" y="409"/>
      <point x="444" y="409" type="curve" smooth="yes"/>
      <point x="464" y="409"/>
      <point x="472" y="395"/>
      <point x="472" y="375" type="curve" smooth="yes"/>
      <point x="472" y="359"/>
      <point x="468" y="339"/>
      <point x="461" y="310" type="curve" smooth="yes"/>
    </contour>
    <contour>
      <point x="290" y="0" type="line"/>
      <point x="378" y="404" type="line"/>
      <point x="361" y="379" type="line"/>
      <point x="385" y="513" type="line"/>
      <point x="62" y="513" type="line"/>
      <point x="46" y="439" type="line"/>
      <point x="56" y="437" type="line" smooth="yes"/>
      <point x="78" y="432"/>
      <point x="89" y="426"/>
      <point x="85" y="408" type="curve" smooth="yes"/>
      <point x="-1" y="0" type="line"/>
    </contour>
  </outline>
</glyph>
<glyph name="oe" format="2">
  <advance width="1114"/>
  <unicode hex="0153"/>
  <outline>
    <contour>
      <point x="761" y="218" type="curve" smooth="yes"/>
      <point x="761" y="360"/>
      <point x="789" y="436"/>
      <point x="840" y="436" type="curve" smooth="yes"/>
      <point x="867" y="436"/>
      <point x="876" y="415"/>
      <point x="876" y="383" type="curve" smooth="yes"/>
      <point x="876" y="300"/>
      <point x="807" y="264"/>
      <point x="617" y="259" type="curve"/>
      <point x="604" y="196" type="line"/>
      <point x="938" y="205"/>
      <point x="1101" y="257"/>
      <point x="1101" y="384" type="curve" smooth="yes"/>
      <point x="1101" y="463"/>
      <point x="1023" y="523"/>
      <point x="887" y="523" type="curve" smooth="yes"/>
      <point x="654" y="523"/>
      <point x="528" y="353"/>
      <point x="528" y="223" type="curve" smooth="yes"/>
      <point x="528" y="111"/>
      <point x="612" y="-14"/>
      <point x="802" y="-14" type="curve" smooth="yes"/>
      <point x="954" y="-14"/>
      <point x="1045" y="55"/>
      <point x="1083" y="125" type="curve"/>
      <point x="1000" y="172" type="line"/>
      <point x="964" y="117"/>
      <point x="920" y="81"/>
      <point x="862" y="81" type="curve" smooth="yes"/>
      <point x="793" y="81"/>
      <point x="761" y="126"/>
    </contour>
    <contour>
      <point x="410" y="523" type="curve" smooth="yes"/>
      <point x="167" y="523"/>
      <point x="23" y="399"/>
      <point x="23" y="235" type="curve" smooth="yes"/>
      <point x="23" y="82"/>
      <point x="161" y="-14"/>
      <point x="356" y="-14" type="curve" smooth="yes"/>
      <point x="587" y="-14"/>
      <point x="701" y="137"/>
      <point x="701" y="276" type="curve" smooth="yes"/>
      <point x="701" y="411"/>
      <point x="599" y="523"/>
    </contour>
    <contour>
      <point x="455" y="221" type="curve" smooth="yes"/>
      <point x="440" y="145"/>
      <point x="410" y="75"/>
      <point x="364" y="75" type="curve" smooth="yes"/>
      <point x="331" y="75"/>
      <point x="321" y="108"/>
      <point x="321" y="168" type="curve" smooth="yes"/>
      <point x="321" y="203"/>
      <point x="324" y="247"/>
      <point x="333" y="288" type="curve" smooth="yes"/>
      <point x="349" y="364"/>
      <point x="378" y="434"/>
      <point x="425" y="434" type="curve" smooth="yes"/>
      <point x="457" y="434"/>
      <point x="468" y="402"/>
      <point x="468" y="341" type="curve" smooth="yes"/>
      <point x="468" y="306"/>
      <point x="464" y="263"/>
    </contour>
  </outline>
</glyph>
<glyph name="Tbar" format="2">
  <advance width="896"/>
  <unicode hex="0166"/>
  <outline>
    <contour>
      <point x="121" y="357" type="line"/>
      <point x="99" y="265" type="line"/>
      <point x="754" y="265" type="line"/>
      <point x="776" y="357" type="line"/>
    </contour>
    <component base="T"/>
  </outline>
</glyph>
<glyph name="Schwa" format="2">
  <advance width="913"/>
  <unicode hex="018F"/>
  <outline>
    <contour>
      <point x="407" y="-10" type="curve" smooth="yes"/>
      <point x="676" y="-10"/>
      <point x="890" y="159"/>
      <point x="890" y="412" type="curve" smooth="yes"/>
      <point x="890" y="592"/>
      <point x="747" y="720"/>
      <point x="464" y="720" type="curve" smooth="yes"/>
      <point x="276" y="720"/>
      <point x="159" y="651"/>
      <point x="81" y="548" type="curve"/>
      <point x="168" y="490" type="line"/>
      <point x="222" y="557"/>
      <point x="299" y="627"/>
      <point x="418" y="627" type="curve" smooth="yes"/>
      <point x="531" y="627"/>
      <point x="574" y="572"/>
      <point x="574" y="457" type="curve" smooth="yes"/>
      <point x="574" y="336"/>
      <point x="527" y="83"/>
      <point x="417" y="83" type="curve" smooth="yes"/>
      <point x="359" y="83"/>
      <point x="337" y="116"/>
      <point x="337" y="200" type="curve" smooth="yes"/>
      <point x="337" y="237"/>
      <point x="344" y="286"/>
      <point x="358" y="350" type="curve"/>
      <point x="315" y="311" type="line"/>
      <point x="724" y="311" type="line"/>
      <point x="741" y="399" type="line"/>
      <point x="42" y="399" type="line"/>
      <point x="32" y="355"/>
      <point x="28" y="314"/>
      <point x="28" y="276" type="curve"/>
      <point x="28" y="95"/>
      <point x="154" y="-10"/>
    </contour>
  </outline>
</glyph>
<glyph name="icaron" format="2">
  <advance width="403"/>
  <unicode hex="01D0"/>
  <outline>
    <contour>
      <point x="154" y="568" type="line"/>
      <point x="45" y="717" type="line"/>
      <point x="51" y="742" type="line"/>
      <point x="170" y="742" type="line"/>
      <point x="349" y="635" type="line"/>
      <point x="176" y="635" type="line"/>
      <point x="431" y="742" type="line"/>
      <point x="541" y="742" type="line"/>
      <point x="536" y="717" type="line"/>
      <point x="364" y="568" type="line"/>
    </contour>
    <component base="dotlessi"/>
  </outline>
</glyph>
<glyph name="Oogonek" format="2">
  <advance width="954"/>
  <unicode hex="01EA"/>
  <outline>
    <contour>
      <point x="433" y="83" type="curve"/>
      <point x="377" y="83"/>
      <point x="349" y="137"/>
      <point x="349" y="251" type="curve" smooth="yes"/>
      <point x="349" y="309"/>
      <point x="357" y="375"/>
      <point x="373" y="434" type="curve" smooth="yes"/>
      <point x="399" y="539"/>
      <point x="451" y="627"/>
      <point x="525" y="627" type="curve"/>
      <point x="582" y="627"/>
      <point x="609" y="573"/>
      <point x="609" y="459" type="curve" smooth="yes"/>
      <point x="609" y="401"/>
      <point x="601" y="335"/>
      <point x="586" y="276" type="curve" smooth="yes"/>
      <point x="559" y="171"/>
      <point x="508" y="83"/>
    </contour>
    <contour>
      <point x="413" y="-244" type="curve" smooth="yes"/>
      <point x="497" y="-244"/>
      <point x="555" y="-215"/>
      <point x="603" y="-178" type="curve"/>
      <point x="558" y="-125" type="line"/>
      <point x="546" y="-134"/>
      <point x="524" y="-149"/>
      <point x="497" y="-149" type="curve" smooth="yes"/>
      <point x="470" y="-149"/>
      <point x="452" y="-136"/>
      <point x="452" y="-111" type="curve" smooth="yes"/>
      <point x="452" y="-17"/>
      <point x="661" y="-11"/>
      <point x="798" y="97" type="curve" smooth="yes"/>
      <point x="887" y="172"/>
      <point x="930" y="279"/>
      <point x="930" y="393" type="curve" smooth="yes"/>
      <point x="930" y="587"/>
      <point x="761" y="720"/>
      <point x="522" y="720" type="curve" smooth="yes"/>
      <point x="208" y="720"/>
      <point x="28" y="537"/>
      <point x="28" y="317" type="curve" smooth="yes"/>
      <point x="28" y="123"/>
      <point x="197" y="-10"/>
      <point x="437" y="-10" type="curve" smooth="yes"/>
      <point x="473" y="-10"/>
      <point x="508" y="-6"/>
      <point x="541" y="-1" type="curve"/>
      <point x="586" y="27" type="line"/>
      <point x="323" y="-15"/>
      <point x="236" y="-59"/>
      <point x="236" y="-136" type="curve" smooth="yes"/>
      <point x="236" y="-206"/>
      <point x="307" y="-244"/>
    </contour>
  </outline>
</glyph>
<glyph name="oogonek" format="2">
  <advance width="788"/>
  <unicode hex="01EB"/>
  <outline>
    <contour>
      <point x="362" y="-244" type="curve" smooth="yes"/>
      <point x="446" y="-244"/>
      <point x="504" y="-215"/>
      <point x="553" y="-178" type="curve"/>
      <point x="506" y="-125" type="line"/>
      <point x="494" y="-134"/>
      <point x="473" y="-149"/>
      <point x="446" y="-149" type="curve" smooth="yes"/>
      <point x="419" y="-149"/>
      <point x="402" y="-138"/>
      <point x="402" y="-112" type="curve" smooth="yes"/>
      <point x="402" y="-36"/>
      <point x="581" y="-3"/>
      <point x="682" y="78" type="curve" smooth="yes"/>
      <point x="733" y="122"/>
      <point x="765" y="192"/>
      <point x="765" y="274" type="curve" smooth="yes"/>
      <point x="765" y="427"/>
      <point x="626" y="523"/>
      <point x="411" y="523" type="curve" smooth="yes"/>
      <point x="170" y="523"/>
      <point x="23" y="399"/>
      <point x="23" y="235" type="curve" smooth="yes"/>
      <point x="23" y="82"/>
      <point x="164" y="-14"/>
      <point x="377" y="-14" type="curve" smooth="yes"/>
      <point x="416" y="-14"/>
      <point x="452" y="-10"/>
      <point x="485" y="-3" type="curve"/>
      <point x="547" y="33" type="line"/>
      <point x="269" y="-15"/>
      <point x="185" y="-65"/>
      <point x="185" y="-142" type="curve" smooth="yes"/>
      <point x="185" y="-210"/>
      <point x="256" y="-244"/>
    </contour>
    <contour>
      <point x="364" y="75" type="curve" smooth="yes"/>
      <point x="331" y="75"/>
      <point x="321" y="108"/>
      <point x="321" y="168" type="curve" smooth="yes"/>
      <point x="321" y="203"/>
      <point x="324" y="247"/>
      <point x="333" y="288" type="curve" smooth="yes"/>
      <point x="349" y="364"/>
      <point x="378" y="434"/>
      <point x="425" y="434" type="curve" smooth="yes"/>
      <point x="457" y="434"/>
      <point x="468" y="402"/>
      <point x="468" y="341" type="curve" smooth="yes"/>
      <point x="468" y="306"/>
      <point x="464" y="263"/>
      <point x="455" y="221" type="curve" smooth="yes"/>
      <point x="440" y="145"/>
      <point x="410" y="75"/>
    </contour>
  </outline>
</glyph>
<glyph name="dotlessj" format="2">
  <advance width="427"/>
  <unicode hex="0237"/>
  <anchor x="202" y="513" name="top"/>
  <outline>
    <contour>
      <point x="54" y="19" type="line" smooth="yes"/>
      <point x="29" y="-105"/>
      <point x="2" y="-144"/>
      <point x="-53" y="-144" type="curve" smooth="yes"/>
      <point x="-98" y="-144"/>
      <point x="-150" y="-124"/>
      <point x="-156" y="-122" type="curve"/>
      <point x="-182" y="-207" type="line"/>
      <point x="-153" y="-218"/>
      <point x="-83" y="-236"/>
      <point x="19" y="-236" type="curve" smooth="yes"/>
      <point x="207" y="-236"/>
      <point x="308" y="-180"/>
      <point x="347" y="9" type="curve" smooth="yes"/>
      <point x="448" y="513" type="line"/>
      <point x="112" y="513" type="line"/>
      <point x="96" y="439" type="line"/>
      <point x="106" y="437" type="line" smooth="yes"/>
      <point x="128" y="432"/>
      <point x="138" y="426"/>
      <point x="135" y="408" type="curve" smooth="yes"/>
    </contour>
  </outline>
</glyph>
<glyph name="schwa" format="2">
  <advance width="674"/>
  <unicode hex="0259"/>
  <outline>
    <contour>
      <point x="330" y="523" type="curve" smooth="yes"/>
      <point x="158" y="523"/>
      <point x="70" y="454"/>
      <point x="34" y="388" type="curve"/>
      <point x="117" y="341" type="line"/>
      <point x="152" y="391"/>
      <point x="202" y="429"/>
      <point x="262" y="429" type="curve" smooth="yes"/>
      <point x="332" y="429"/>
      <point x="358" y="384"/>
      <point x="358" y="283" type="curve" smooth="yes"/>
      <point x="358" y="149"/>
      <point x="329" y="73"/>
      <point x="278" y="73" type="curve" smooth="yes"/>
      <point x="252" y="73"/>
      <point x="243" y="93"/>
      <point x="243" y="126" type="curve" smooth="yes"/>
      <point x="243" y="208"/>
      <point x="311" y="246"/>
      <point x="502" y="250" type="curve"/>
      <point x="515" y="313" type="line"/>
      <point x="181" y="304"/>
      <point x="19" y="254"/>
      <point x="19" y="128" type="curve" smooth="yes"/>
      <point x="19" y="46"/>
      <point x="97" y="-14"/>
      <point x="259" y="-14" type="curve" smooth="yes"/>
      <point x="509" y="-14"/>
      <point x="650" y="125"/>
      <point x="650" y="282" type="curve" smooth="yes"/>
      <point x="650" y="421"/>
      <point x="547" y="523"/>
    </contour>
  </outline>
</glyph>
<glyph name="verticallinemod" format="2">
  <advance width="590"/>
  <unicode hex="02C8"/>
  <outline>
    <contour>
      <point x="247" y="547" type="line"/>
      <point x="343" y="547" type="line"/>
      <point x="343" y="750" type="line"/>
      <point x="247" y="750" type="line"/>
    </contour>
  </outline>
</glyph>
<glyph name="breve" format="2">
  <advance width="589"/>
  <unicode hex="02D8"/>
  <anchor x="297" y="517" name="_top"/>
  <outline>
    <contour>
      <point x="295" y="559" type="curve" smooth="yes"/>
      <point x="420" y="559"/>
      <point x="509" y="609"/>
      <point x="523" y="748" type="curve"/>
      <point x="402" y="748" type="line"/>
      <point x="392" y="702"/>
      <point x="369" y="685"/>
      <point x="310" y="685" type="curve" smooth="yes"/>
      <point x="256" y="685"/>
      <point x="231" y="703"/>
      <point x="233" y="748" type="curve"/>
      <point x="105" y="748" type="line"/>
      <point x="101" y="732"/>
      <point x="100" y="718"/>
      <point x="100" y="704" type="curve" smooth="yes"/>
      <point x="100" y="604"/>
      <point x="183" y="559"/>
    </contour>
  </outline>
</glyph>
<glyph name="ring" format="2">
  <advance width="590"/>
  <unicode hex="02DA"/>
  <anchor x="295" y="526" name="_top"/>
  <outline>
    <contour>
      <point x="291" y="617" type="curve" smooth="yes"/>
      <point x="265" y="617"/>
      <point x="253" y="632"/>
      <point x="253" y="656" type="curve" smooth="yes"/>
      <point x="253" y="690"/>
      <point x="271" y="710"/>
      <point x="299" y="710" type="curve" smooth="yes"/>
      <point x="325" y="710"/>
      <point x="337" y="695"/>
      <point x="337" y="671" type="curve" smooth="yes"/>
      <point x="337" y="637"/>
      <point x="319" y="617"/>
    </contour>
    <contour>
      <point x="291" y="555" type="curve" smooth="yes"/>
      <point x="395" y="555"/>
      <point x="471" y="594"/>
      <point x="471" y="672" type="curve" smooth="yes"/>
      <point x="471" y="738"/>
      <point x="399" y="772"/>
      <point x="299" y="772" type="curve" smooth="yes"/>
      <point x="199" y="772"/>
      <point x="119" y="733"/>
      <point x="119" y="655" type="curve" smooth="yes"/>
      <point x="119" y="588"/>
      <point x="195" y="555"/>
    </contour>
  </outline>
</glyph>
<glyph name="ogonek" format="2">
  <advance width="707"/>
  <unicode hex="02DB"/>
  <anchor x="407" y="9" name="_right"/>
  <outline>
    <contour>
      <point x="499" y="42" type="line"/>
      <point x="233" y="-11"/>
      <point x="149" y="-61"/>
      <point x="149" y="-142" type="curve" smooth="yes"/>
      <point x="149" y="-209"/>
      <point x="220" y="-244"/>
      <point x="326" y="-244" type="curve" smooth="yes"/>
      <point x="410" y="-244"/>
      <point x="468" y="-215"/>
      <point x="516" y="-178" type="curve"/>
      <point x="471" y="-125" type="line"/>
      <point x="459" y="-134"/>
      <point x="437" y="-149"/>
      <point x="410" y="-149" type="curve" smooth="yes"/>
      <point x="383" y="-149"/>
      <point x="365" y="-138"/>
      <point x="365" y="-113" type="curve"/>
      <point x="365" y="-83"/>
      <point x="380" y="-46"/>
      <point x="521" y="13" type="curve"/>
    </contour>
  </outline>
</glyph>
<glyph name="Delta" format="2">
  <advance width="922"/>
  <unicode hex="0394"/>
  <outline>
    <contour>
      <point x="-37" y="0" type="line"/>
      <point x="827" y="0" type="line"/>
      <point x="856" y="127" type="line"/>
      <point x="651" y="710" type="line"/>
      <point x="429" y="710" type="line"/>
      <point x="-8" y="127" type="line"/>
    </contour>
    <contour>
      <point x="569" y="72" type="line"/>
      <point x="741" y="147" type="line"/>
      <point x="58" y="147" type="line"/>
      <point x="82" y="93" type="line"/>
      <point x="524" y="688" type="line"/>
      <point x="385" y="644" type="line"/>
    </contour>
  </outline>
</glyph>
<glyph name="Omega" format="2">
  <advance width="1022"/>
  <unicode hex="03A9"/>
  <outline>
    <contour>
      <point x="571" y="627" type="curve" smooth="yes"/>
      <point x="449" y="627"/>
      <point x="406" y="526"/>
      <point x="406" y="395" type="curve" smooth="yes"/>
      <point x="406" y="308"/>
      <point x="427" y="237"/>
      <point x="461" y="173" type="curve"/>
      <point x="422" y="0" type="line"/>
      <point x="-18" y="0" type="line"/>
      <point x="31" y="228" type="line"/>
      <point x="139" y="228" type="line"/>
      <point x="142" y="180" type="line" smooth="yes"/>
      <point x="143" y="145"/>
      <point x="183" y="137"/>
      <point x="273" y="137" type="curve" smooth="yes"/>
      <point x="383" y="137" type="line"/>
      <point x="402" y="92" type="line"/>
      <point x="288" y="171"/>
      <point x="114" y="296"/>
      <point x="114" y="444" type="curve" smooth="yes"/>
      <point x="114" y="594"/>
      <point x="279" y="720"/>
      <point x="571" y="720" type="curve" smooth="yes"/>
      <point x="839" y="720"/>
      <point x="984" y="620"/>
      <point x="984" y="476" type="curve" smooth="yes"/>
      <point x="984" y="304"/>
      <point x="793" y="205"/>
      <point x="552" y="97" type="curve"/>
      <point x="591" y="137" type="line"/>
      <point x="700" y="137" type="line" smooth="yes"/>
      <point x="790" y="137"/>
      <point x="832" y="144"/>
      <point x="850" y="180" type="curve" smooth="yes"/>
      <point x="869" y="228" type="line"/>
      <point x="978" y="228" type="line"/>
      <point x="930" y="0" type="line"/>
      <point x="489" y="0" type="line"/>
      <point x="529" y="172" type="line"/>
      <point x="625" y="258"/>
      <point x="692" y="369"/>
      <point x="692" y="494" type="curve" smooth="yes"/>
      <point x="692" y="575"/>
      <point x="661" y="627"/>
    </contour>
  </outline>
</glyph>
<glyph name="pi" format="2">
  <advance width="942"/>
  <unicode hex="03C0"/>
  <outline>
    <contour>
      <point x="393" y="0" type="line"/>
      <point x="486" y="453" type="line"/>
      <point x="308" y="453" type="line"/>
      <point x="244" y="197"/>
      <point x="198" y="174"/>
      <point x="162" y="0" type="curve"/>
    </contour>
    <contour>
      <point x="902" y="363" type="line"/>
      <point x="937" y="513" type="line"/>
      <point x="359" y="513" type="line" smooth="yes"/>
      <point x="147" y="513"/>
      <point x="62" y="427"/>
      <point x="17" y="307" type="curve"/>
      <point x="148" y="254" type="line"/>
      <point x="171" y="321"/>
      <point x="204" y="363"/>
      <point x="308" y="363" type="curve" smooth="yes"/>
    </contour>
    <contour>
      <point x="779" y="453" type="line"/>
      <point x="601" y="453" type="line"/>
      <point x="540" y="247"/>
      <point x="481" y="200"/>
      <point x="481" y="118" type="curve" smooth="yes"/>
      <point x="481" y="36"/>
      <point x="556" y="-10"/>
      <point x="681" y="-10" type="curve" smooth="yes"/>
      <point x="789" y="-10"/>
      <point x="867" y="41"/>
      <point x="912" y="128" type="curve"/>
      <point x="827" y="170" type="line"/>
      <point x="799" y="125"/>
      <point x="777" y="96"/>
      <point x="746" y="96" type="curve" smooth="yes"/>
      <point x="726" y="96"/>
      <point x="715" y="103"/>
      <point x="715" y="121" type="curve" smooth="yes"/>
      <point x="715" y="134"/>
      <point x="718" y="146"/>
      <point x="722" y="169" type="curve" smooth="yes"/>
    </contour>
  </outline>
</glyph>
<glyph name="idieresisacute" format="2">
  <advance width="403"/>
  <unicode hex="1E2F"/>
  <outline>
    <contour>
      <point x="102" y="566" type="curve" smooth="yes"/>
      <point x="18" y="566"/>
      <point x="-28" y="599"/>
      <point x="-28" y="652" type="curve" smooth="yes"/>
      <point x="-28" y="711"/>
      <point x="24" y="748"/>
      <point x="116" y="748" type="curve" smooth="yes"/>
      <point x="199" y="748"/>
      <point x="245" y="715"/>
      <point x="245" y="662" type="curve" smooth="yes"/>
      <point x="245" y="603"/>
      <point x="193" y="566"/>
    </contour>
    <contour>
      <point x="404" y="566" type="curve" smooth="yes"/>
      <point x="321" y="566"/>
      <point x="275" y="599"/>
      <point x="275" y="652" type="curve" smooth="yes"/>
      <point x="275" y="711"/>
      <point x="327" y="748"/>
      <point x="418" y="748" type="curve" smooth="yes"/>
      <point x="502" y="748"/>
      <point x="548" y="715"/>
      <point x="548" y="662" type="curve" smooth="yes"/>
      <point x="548" y="603"/>
      <point x="496" y="566"/>
    </contour>
    <contour>
      <point x="234" y="893" type="curve" smooth="yes"/>
      <point x="186" y="790" type="line"/>
      <point x="184" y="760" type="line"/>
      <point x="261" y="760" type="line"/>
      <point x="349" y="805" type="line" smooth="yes"/>
      <point x="431" y="836"/>
      <point x="474" y="864"/>
      <point x="474" y="911" type="curve" smooth="yes"/>
      <point x="474" y="950"/>
      <point x="436" y="984"/>
      <point x="368" y="984" type="curve" smooth="yes"/>
      <point x="299" y="984"/>
      <point x="264" y="951"/>
    </contour>
    <component base="dotlessi"/>
  </outline>
</glyph>
<glyph name="Germandbls" format="2">
  <advance width="1075"/>
  <unicode hex="1E9E"/>
  <outline>
    <contour>
      <point x="563" y="223" type="curve"/>
      <point x="446" y="223" type="line"/>
      <point x="398" y="0" type="line"/>
      <point x="489" y="0" type="line"/>
      <point x="552" y="163" type="line"/>
      <point x="494" y="200" type="line"/>
      <point x="497" y="64"/>
      <point x="567" y="-10"/>
      <point x="757" y="-10" type="curve" smooth="yes"/>
      <point x="917" y="-10"/>
      <point x="1028" y="66"/>
      <point x="1028" y="189" type="curve" smooth="yes"/>
      <point x="1028" y="312"/>
      <point x="912" y="394"/>
      <point x="706" y="419" type="curve"/>
      <point x="753" y="347" type="line"/>
      <point x="1017" y="618" type="line"/>
      <point x="1037" y="710" type="line"/>
      <point x="522" y="710" type="line" smooth="yes"/>
      <point x="286" y="710"/>
      <point x="155" y="648"/>
      <point x="120" y="476" type="curve" smooth="yes"/>
      <point x="44" y="112" type="line" smooth="yes"/>
      <point x="38" y="83"/>
      <point x="16" y="76"/>
      <point x="-13" y="76" type="curve" smooth="yes"/>
      <point x="-25" y="76" type="line"/>
      <point x="-43" y="0" type="line"/>
      <point x="328" y="0" type="line"/>
      <point x="431" y="493" type="line" smooth="yes"/>
      <point x="451" y="591"/>
      <point x="479" y="626"/>
      <point x="575" y="626" type="curve" smooth="yes"/>
      <point x="939" y="626" type="line"/>
      <point x="825" y="673" type="line"/>
      <point x="591" y="432" type="line"/>
      <point x="571" y="340" type="line"/>
      <point x="680" y="322"/>
      <point x="757" y="254"/>
      <point x="757" y="173" type="curve" smooth="yes"/>
      <point x="757" y="115"/>
      <point x="730" y="83"/>
      <point x="679" y="83" type="curve" smooth="yes"/>
      <point x="606" y="83"/>
      <point x="570" y="142"/>
    </contour>
  </outline>
</glyph>
<glyph name="endash" format="2">
  <advance width="731"/>
  <unicode hex="2013"/>
  <outline>
    <contour>
      <point x="92" y="374" type="line"/>
      <point x="66" y="256" type="line"/>
      <point x="643" y="256" type="line"/>
      <point x="670" y="374" type="line"/>
    </contour>
  </outline>
</glyph>
<glyph name="perthousand" format="2">
  <advance width="1443"/>
  <unicode hex="2030"/>
  <outline>
    <contour>
      <point x="244" y="374" type="curve" smooth="yes"/>
      <point x="395" y="374"/>
      <point x="485" y="459"/>
      <point x="485" y="563" type="curve" smooth="yes"/>
      <point x="485" y="658"/>
      <point x="411" y="720"/>
      <point x="279" y="720" type="curve" smooth="yes"/>
      <point x="128" y="720"/>
      <point x="38" y="635"/>
      <point x="38" y="531" type="curve" smooth="yes"/>
      <point x="38" y="436"/>
      <point x="113" y="374"/>
    </contour>
    <contour>
      <point x="244" y="444" type="curve" smooth="yes"/>
      <point x="224" y="444"/>
      <point x="217" y="461"/>
      <point x="217" y="494" type="curve" smooth="yes"/>
      <point x="217" y="531"/>
      <point x="232" y="650"/>
      <point x="280" y="650" type="curve" smooth="yes"/>
      <point x="300" y="650"/>
      <point x="307" y="632"/>
      <point x="307" y="599" type="curve" smooth="yes"/>
      <point x="307" y="562"/>
      <point x="292" y="444"/>
    </contour>
    <contour>
      <point x="694" y="-10" type="curve" smooth="yes"/>
      <point x="563" y="-10"/>
      <point x="488" y="52"/>
      <point x="488" y="147" type="curve" smooth="yes"/>
      <point x="488" y="251"/>
      <point x="578" y="336"/>
      <point x="729" y="336" type="curve" smooth="yes"/>
      <point x="861" y="336"/>
      <point x="936" y="274"/>
      <point x="936" y="179" type="curve" smooth="yes"/>
      <point x="936" y="75"/>
      <point x="846" y="-10"/>
    </contour>
    <contour>
      <point x="694" y="60" type="curve" smooth="yes"/>
      <point x="742" y="60"/>
      <point x="757" y="178"/>
      <point x="757" y="216" type="curve" smooth="yes"/>
      <point x="757" y="248"/>
      <point x="750" y="266"/>
      <point x="729" y="266" type="curve" smooth="yes"/>
      <point x="681" y="266"/>
      <point x="666" y="147"/>
      <point x="666" y="110" type="curve" smooth="yes"/>
      <point x="666" y="77"/>
      <point x="673" y="60"/>
    </contour>
    <contour>
      <point x="1161" y="-10" type="curve" smooth="yes"/>
      <point x="1030" y="-10"/>
      <point x="955" y="52"/>
      <point x="955" y="147" type="curve" smooth="yes"/>
      <point x="955" y="251"/>
      <point x="1045" y="336"/>
      <point x="1196" y="336" type="curve" smooth="yes"/>
      <point x="1327" y="336"/>
      <point x="1402" y="274"/>
      <point x="1402" y="179" type="curve" smooth="yes"/>
      <point x="1402" y="75"/>
      <point x="1312" y="-10"/>
    </contour>
    <contour>
      <point x="1161" y="60" type="curve" smooth="yes"/>
      <point x="1209" y="60"/>
      <point x="1224" y="178"/>
      <point x="1224" y="216" type="curve" smooth="yes"/>
      <point x="1224" y="248"/>
      <point x="1217" y="266"/>
      <point x="1196" y="266" type="curve" smooth="yes"/>
      <point x="1148" y="266"/>
      <point x="1133" y="147"/>
      <point x="1133" y="110" type="curve" smooth="yes"/>
      <point x="1133" y="77"/>
      <point x="1140" y="60"/>
    </contour>
    <component base="fraction" xOffset="237"/>
  </outline>
</glyph>
<glyph name="lira" format="2">
  <advance width="661"/>
  <unicode hex="20A4"/>
  <outline>
    <contour>
      <point x="-22" y="-11" type="line"/>
      <point x="281" y="4"/>
      <point x="379" y="156"/>
      <point x="379" y="304" type="curve" smooth="yes"/>
      <point x="379" y="378"/>
      <point x="367" y="444"/>
      <point x="367" y="510" type="curve" smooth="yes"/>
      <point x="367" y="584"/>
      <point x="387" y="630"/>
      <point x="438" y="630" type="curve" smooth="yes"/>
      <point x="472" y="630"/>
      <point x="487" y="614"/>
      <point x="498" y="588" type="curve"/>
      <point x="531" y="595"/>
      <point x="528" y="625"/>
      <point x="478" y="628" type="curve"/>
      <point x="460" y="539" type="line"/>
      <point x="650" y="539" type="line"/>
      <point x="673" y="652" type="line"/>
      <point x="662" y="664"/>
      <point x="579" y="720"/>
      <point x="416" y="720" type="curve" smooth="yes"/>
      <point x="211" y="720"/>
      <point x="108" y="633"/>
      <point x="108" y="516" type="curve" smooth="yes"/>
      <point x="108" y="427"/>
      <point x="169" y="352"/>
      <point x="169" y="246" type="curve" smooth="yes"/>
      <point x="169" y="163"/>
      <point x="111" y="119"/>
      <point x="4" y="103" type="curve"/>
    </contour>
    <contour>
      <point x="421" y="-11" type="curve" smooth="yes"/>
      <point x="535" y="-11"/>
      <point x="599" y="57"/>
      <point x="643" y="164" type="curve"/>
      <point x="532" y="203" type="line"/>
      <point x="506" y="144"/>
      <point x="483" y="120"/>
      <point x="432" y="120" type="curve" smooth="yes"/>
      <point x="379" y="120"/>
      <point x="338" y="149"/>
      <point x="285" y="207" type="curve"/>
      <point x="162" y="146" type="line"/>
      <point x="283" y="34"/>
      <point x="320" y="-11"/>
    </contour>
    <contour>
      <point x="24" y="324" type="line"/>
      <point x="7" y="246" type="line"/>
      <point x="503" y="246" type="line"/>
      <point x="520" y="324" type="line"/>
    </contour>
    <contour>
      <point x="55" y="474" type="line"/>
      <point x="39" y="396" type="line"/>
      <point x="535" y="396" type="line"/>
      <point x="552" y="474" type="line"/>
    </contour>
  </outline>
</glyph>
<glyph name="naira" format="2">
  <advance width="661"/>
  <unicode hex="20A6"/>
  <outline>
    <contour>
      <point x="-48" y="0" type="line"/>
      <point x="162" y="0" type="line"/>
      <point x="180" y="76" type="line"/>
      <point x="172" y="76" type="line" smooth="yes"/>
      <point x="150" y="76"/>
      <point x="133" y="84"/>
      <point x="134" y="91" type="curve" smooth="yes"/>
      <point x="251" y="674" type="line"/>
      <point x="217" y="693" type="line"/>
      <point x="246" y="0" type="line"/>
      <point x="528" y="0" type="line"/>
      <point x="649" y="597" type="line" smooth="yes"/>
      <point x="655" y="626"/>
      <point x="675" y="634"/>
      <point x="701" y="634" type="curve" smooth="yes"/>
      <point x="711" y="634" type="line"/>
      <point x="728" y="710" type="line"/>
      <point x="521" y="710" type="line"/>
      <point x="503" y="634" type="line"/>
      <point x="512" y="634" type="line" smooth="yes"/>
      <point x="531" y="634"/>
      <point x="547" y="626"/>
      <point x="546" y="619" type="curve" smooth="yes"/>
      <point x="430" y="58" type="line"/>
      <point x="471" y="21" type="line"/>
      <point x="453" y="710" type="line"/>
      <point x="100" y="710" type="line"/>
      <point x="83" y="634" type="line"/>
      <point x="92" y="634" type="line" smooth="yes"/>
      <point x="118" y="634"/>
      <point x="135" y="627"/>
      <point x="129" y="598" type="curve" smooth="yes"/>
      <point x="32" y="117" type="line" smooth="yes"/>
      <point x="26" y="88"/>
      <point x="4" y="76"/>
      <point x="-21" y="76" type="curve" smooth="yes"/>
      <point x="-31" y="76" type="line"/>
    </contour>
    <contour>
      <point x="157" y="504" type="line"/>
      <point x="59" y="504" type="line"/>
      <point x="43" y="429" type="line"/>
      <point x="140" y="429" type="line"/>
    </contour>
    <contour>
      <point x="321" y="437" type="line"/>
      <point x="552" y="437" type="line"/>
      <point x="568" y="429" type="line"/>
      <point x="670" y="429" type="line"/>
      <point x="687" y="504" type="line"/>
      <point x="340" y="504" type="line"/>
    </contour>
    <contour>
      <point x="532" y="253" type="line"/>
      <point x="633" y="253" type="line"/>
      <point x="649" y="328" type="line"/>
      <point x="549" y="328" type="line"/>
    </contour>
    <contour>
      <point x="403" y="320" type="line"/>
      <point x="143" y="320" type="line"/>
      <point x="133" y="328" type="line"/>
      <point x="21" y="328" type="line"/>
      <point x="5" y="253" type="line"/>
      <point x="387" y="253" type="line"/>
    </contour>
  </outline>
</glyph>
<glyph name="Euro" format="2">
  <advance width="661"/>
  <unicode hex="20AC"/>
  <outline>
    <contour>
      <point x="492" y="720" type="curve" smooth="yes"/>
      <point x="188" y="720"/>
      <point x="74" y="497"/>
      <point x="74" y="268" type="curve" smooth="yes"/>
      <point x="74" y="91"/>
      <point x="170" y="-11"/>
      <point x="365" y="-11" type="curve" smooth="yes"/>
      <point x="505" y="-11"/>
      <point x="578" y="56"/>
      <point x="629" y="156" type="curve"/>
      <point x="536" y="203" type="line"/>
      <point x="507" y="148"/>
      <point x="468" y="88"/>
      <point x="413" y="88" type="curve" smooth="yes"/>
      <point x="366" y="88"/>
      <point x="345" y="123"/>
      <point x="345" y="212" type="curve" smooth="yes"/>
      <point x="345" y="257"/>
      <point x="352" y="310"/>
      <point x="367" y="373" type="curve" smooth="yes"/>
      <point x="406" y="553"/>
      <point x="430" y="627"/>
      <point x="490" y="627" type="curve" smooth="yes"/>
      <point x="516" y="627"/>
      <point x="531" y="611"/>
      <point x="541" y="592" type="curve"/>
      <point x="578" y="605"/>
      <point x="583" y="628"/>
      <point x="514" y="642" type="curve"/>
      <point x="491" y="539" type="line"/>
      <point x="699" y="539" type="line"/>
      <point x="723" y="661" type="line"/>
      <point x="698" y="681"/>
      <point x="627" y="720"/>
    </contour>
    <contour>
      <point x="24" y="316" type="line"/>
      <point x="4" y="228" type="line"/>
      <point x="460" y="228" type="line"/>
      <point x="480" y="316" type="line"/>
    </contour>
    <contour>
      <point x="56" y="471" type="line"/>
      <point x="35" y="383" type="line"/>
      <point x="537" y="383" type="line"/>
      <point x="558" y="471" type="line"/>
    </contour>
  </outline>
</glyph>
<glyph name="kip" format="2">
  <advance width="661"/>
  <unicode hex="20AD"/>
  <outline>
    <contour>
      <point x="40" y="419" type="line"/>
      <point x="20" y="330" type="line"/>
      <point x="655" y="330" type="line"/>
      <point x="676" y="419" type="line"/>
    </contour>
    <contour>
      <point x="-49" y="0" type="line"/>
      <point x="264" y="0" type="line"/>
      <point x="282" y="76" type="line"/>
      <point x="279" y="76" type="line" smooth="yes"/>
      <point x="269" y="76"/>
      <point x="265" y="79"/>
      <point x="265" y="82" type="curve" smooth="yes"/>
      <point x="376" y="624" type="line" smooth="yes"/>
      <point x="378" y="631"/>
      <point x="395" y="634"/>
      <point x="410" y="634" type="curve" smooth="yes"/>
      <point x="423" y="634" type="line"/>
      <point x="441" y="710" type="line"/>
      <point x="100" y="710" type="line"/>
      <point x="82" y="634" type="line"/>
      <point x="88" y="634" type="line" smooth="yes"/>
      <point x="105" y="634"/>
      <point x="117" y="627"/>
      <point x="113" y="606" type="curve" smooth="yes"/>
      <point x="10" y="104" type="line" smooth="yes"/>
      <point x="6" y="83"/>
      <point x="-8" y="76"/>
      <point x="-25" y="76" type="curve" smooth="yes"/>
      <point x="-31" y="76" type="line"/>
    </contour>
    <contour>
      <point x="290" y="0" type="line"/>
      <point x="599" y="0" type="line"/>
      <point x="617" y="76" type="line"/>
      <point x="616" y="76" type="line" smooth="yes"/>
      <point x="602" y="76"/>
      <point x="593" y="82"/>
      <point x="592" y="102" type="curve" smooth="yes"/>
      <point x="566" y="496" type="line"/>
      <point x="462" y="354" type="line"/>
      <point x="652" y="598" type="line" smooth="yes"/>
      <point x="678" y="628"/>
      <point x="689" y="634"/>
      <point x="712" y="634" type="curve" smooth="yes"/>
      <point x="721" y="634" type="line"/>
      <point x="739" y="710" type="line"/>
      <point x="513" y="710" type="line"/>
      <point x="496" y="634" type="line"/>
      <point x="509" y="634" type="line" smooth="yes"/>
      <point x="528" y="634"/>
      <point x="547" y="633"/>
      <point x="545" y="626" type="curve"/>
      <point x="334" y="364" type="line"/>
      <point x="335" y="353" type="line"/>
      <point x="329" y="82" type="line"/>
      <point x="328" y="79"/>
      <point x="320" y="76"/>
      <point x="311" y="76" type="curve" smooth="yes"/>
      <point x="307" y="76" type="line"/>
    </contour>
  </outline>
</glyph>
<glyph name="peso" format="2">
  <advance width="661"/>
  <unicode hex="20B1"/>
  <outline>
    <contour>
      <point x="48" y="505" type="line"/>
      <point x="30" y="425" type="line"/>
      <point x="248" y="425" type="line"/>
      <point x="270" y="433" type="line"/>
      <point x="495" y="433" type="line"/>
      <point x="534" y="425" type="line"/>
      <point x="675" y="425" type="line"/>
      <point x="693" y="505" type="line"/>
      <point x="567" y="505" type="line"/>
      <point x="527" y="497" type="line"/>
      <point x="257" y="497" type="line"/>
      <point x="251" y="505" type="line"/>
    </contour>
    <contour>
      <point x="-55" y="0" type="line"/>
      <point x="267" y="0" type="line"/>
      <point x="284" y="76" type="line"/>
      <point x="277" y="76" type="line" smooth="yes"/>
      <point x="251" y="76"/>
      <point x="237" y="78"/>
      <point x="238" y="85" type="curve" smooth="yes"/>
      <point x="260" y="208" type="line"/>
      <point x="287" y="208" type="line" smooth="yes"/>
      <point x="552" y="208"/>
      <point x="641" y="337"/>
      <point x="641" y="511" type="curve" smooth="yes"/>
      <point x="641" y="635"/>
      <point x="565" y="710"/>
      <point x="376" y="710" type="curve" smooth="yes"/>
      <point x="94" y="710" type="line"/>
      <point x="76" y="634" type="line"/>
      <point x="88" y="634" type="line" smooth="yes"/>
      <point x="105" y="634"/>
      <point x="117" y="627"/>
      <point x="111" y="598" type="curve" smooth="yes"/>
      <point x="12" y="112" type="line" smooth="yes"/>
      <point x="6" y="83"/>
      <point x="-8" y="76"/>
      <point x="-25" y="76" type="curve" smooth="yes"/>
      <point x="-37" y="76" type="line"/>
    </contour>
    <contour>
      <point x="360" y="623" type="line" smooth="yes"/>
      <point x="401" y="623"/>
      <point x="414" y="601"/>
      <point x="414" y="542" type="curve" smooth="yes"/>
      <point x="414" y="516"/>
      <point x="411" y="488"/>
      <point x="401" y="449" type="curve" smooth="yes"/>
      <point x="372" y="318"/>
      <point x="347" y="294"/>
      <point x="300" y="294" type="curve" smooth="yes"/>
      <point x="280" y="294" type="line"/>
      <point x="347" y="623" type="line"/>
    </contour>
  </outline>
</glyph>
<glyph name="guarani" format="2">
  <advance width="661"/>
  <unicode hex="20B2"/>
  <outline>
    <contour>
      <point x="394" y="790" type="line"/>
      <point x="367" y="662" type="line"/>
      <point x="390" y="647" type="line"/>
      <point x="267" y="63" type="line"/>
      <point x="239" y="41" type="line"/>
      <point x="204" y="-120" type="line"/>
      <point x="335" y="-120" type="line"/>
      <point x="368" y="37" type="line"/>
      <point x="351" y="62" type="line"/>
      <point x="475" y="655" type="line"/>
      <point x="499" y="671" type="line"/>
      <point x="525" y="790" type="line"/>
    </contour>
    <contour>
      <point x="320" y="-7" type="curve" smooth="yes"/>
      <point x="444" y="-7"/>
      <point x="532" y="40"/>
      <point x="567" y="67" type="curve"/>
      <point x="606" y="254" type="line"/>
      <point x="610" y="281"/>
      <point x="619" y="286"/>
      <point x="634" y="286" type="curve" smooth="yes"/>
      <point x="640" y="286" type="line"/>
      <point x="657" y="362" type="line"/>
      <point x="461" y="362" type="line"/>
      <point x="444" y="286" type="line"/>
      <point x="444" y="286" type="line"/>
      <point x="441" y="276"/>
      <point x="438" y="265"/>
      <point x="436" y="250" type="curve"/>
      <point x="404" y="94" type="line"/>
      <point x="393" y="88"/>
      <point x="376" y="78"/>
      <point x="338" y="78" type="curve" smooth="yes"/>
      <point x="277" y="78"/>
      <point x="245" y="120"/>
      <point x="245" y="219" type="curve" smooth="yes"/>
      <point x="245" y="264"/>
      <point x="253" y="323"/>
      <point x="269" y="390" type="curve" smooth="yes"/>
      <point x="300" y="530"/>
      <point x="323" y="632"/>
      <point x="433" y="632" type="curve" smooth="yes"/>
      <point x="503" y="632"/>
      <point x="530" y="611"/>
      <point x="557" y="577" type="curve"/>
      <point x="571" y="581"/>
      <point x="614" y="624"/>
      <point x="527" y="625" type="curve"/>
      <point x="505" y="513" type="line"/>
      <point x="665" y="513" type="line"/>
      <point x="692" y="641" type="line"/>
      <point x="674" y="658"/>
      <point x="592" y="717"/>
      <point x="429" y="717" type="curve" smooth="yes"/>
      <point x="184" y="717"/>
      <point x="14" y="524"/>
      <point x="14" y="289" type="curve" smooth="yes"/>
      <point x="14" y="99"/>
      <point x="137" y="-7"/>
    </contour>
  </outline>
</glyph>
<glyph name="manat" format="2">
  <advance width="661"/>
  <unicode hex="20BC"/>
  <outline>
    <contour>
      <point x="386" y="720" type="line"/>
      <point x="273" y="159" type="line"/>
      <point x="351" y="159" type="line"/>
      <point x="464" y="720" type="line"/>
    </contour>
    <contour>
      <point x="394" y="590" type="curve"/>
      <point x="176" y="590"/>
      <point x="26" y="348"/>
      <point x="-43" y="0" type="curve"/>
      <point x="193" y="0" type="line"/>
      <point x="249" y="396"/>
      <point x="290" y="507"/>
      <point x="380" y="507" type="curve"/>
      <point x="478" y="507"/>
      <point x="470" y="392"/>
      <point x="367" y="0" type="curve"/>
      <point x="602" y="0" type="line"/>
      <point x="670" y="345"/>
      <point x="599" y="590"/>
    </contour>
  </outline>
</glyph>
<glyph name="ruble" format="2">
  <advance width="661"/>
  <unicode hex="20BD"/>
  <outline>
    <contour>
      <point x="425" y="165" type="line"/>
      <point x="-9" y="165" type="line"/>
      <point x="8" y="242" type="line"/>
      <point x="442" y="242" type="line"/>
    </contour>
    <contour>
      <point x="35" y="379" type="line"/>
      <point x="354" y="379" type="line" smooth="yes"/>
      <point x="396" y="379"/>
      <point x="424" y="422"/>
      <point x="438" y="496" type="curve" smooth="yes"/>
      <point x="443" y="521"/>
      <point x="444" y="536"/>
      <point x="444" y="553" type="curve" smooth="yes"/>
      <point x="444" y="604"/>
      <point x="426" y="623"/>
      <point x="397" y="623" type="curve" smooth="yes"/>
      <point x="389" y="623" type="line"/>
      <point x="281" y="86" type="line"/>
      <point x="278" y="79"/>
      <point x="304" y="76"/>
      <point x="325" y="76" type="curve" smooth="yes"/>
      <point x="335" y="76" type="line"/>
      <point x="318" y="0" type="line"/>
      <point x="-43" y="0" type="line"/>
      <point x="-25" y="76" type="line"/>
      <point x="-18" y="76" type="line" smooth="yes"/>
      <point x="4" y="76"/>
      <point x="22" y="83"/>
      <point x="27" y="112" type="curve" smooth="yes"/>
      <point x="125" y="598" type="line" smooth="yes"/>
      <point x="131" y="627"/>
      <point x="116" y="634"/>
      <point x="94" y="634" type="curve" smooth="yes"/>
      <point x="87" y="634" type="line"/>
      <point x="105" y="710" type="line"/>
      <point x="396" y="710" type="line" smooth="yes"/>
      <point x="594" y="710"/>
      <point x="689" y="642"/>
      <point x="689" y="532" type="curve" smooth="yes"/>
      <point x="689" y="395"/>
      <point x="599" y="302"/>
      <point x="354" y="302" type="curve" smooth="yes"/>
      <point x="17" y="302" type="line"/>
    </contour>
  </outline>
</glyph>
<glyph name="numero" format="2">
  <advance width="1519"/>
  <unicode hex="2116"/>
  <outline>
    <contour>
      <point x="987" y="238" type="line"/>
      <point x="1385" y="238" type="line"/>
      <point x="1362" y="142" type="line"/>
      <point x="964" y="142" type="line"/>
    </contour>
    <component base="N"/>
    <component base="ordmasculine" xOffset="876"/>
  </outline>
</glyph>
<glyph name="servicemark" format="2">
  <advance width="1101"/>
  <unicode hex="2120"/>
  <outline>
    <contour>
      <point x="504" y="373" type="line"/>
      <point x="630" y="373" type="line"/>
      <point x="640" y="419" type="line"/>
      <point x="636" y="419" type="line" smooth="yes"/>
      <point x="625" y="419"/>
      <point x="611" y="421"/>
      <point x="613" y="423" type="curve"/>
      <point x="670" y="703" type="line"/>
      <point x="657" y="700" type="line"/>
      <point x="693" y="372" type="line"/>
      <point x="800" y="372" type="line"/>
      <point x="976" y="699" type="line"/>
      <point x="964" y="700" type="line"/>
      <point x="906" y="423" type="line"/>
      <point x="905" y="420"/>
      <point x="893" y="419"/>
      <point x="881" y="419" type="curve" smooth="yes"/>
      <point x="877" y="419" type="line"/>
      <point x="867" y="373" type="line"/>
      <point x="1081" y="373" type="line"/>
      <point x="1091" y="419" type="line"/>
      <point x="1086" y="419" type="line" smooth="yes"/>
      <point x="1072" y="419"/>
      <point x="1064" y="422"/>
      <point x="1066" y="435" type="curve" smooth="yes"/>
      <point x="1111" y="648" type="line" smooth="yes"/>
      <point x="1114" y="662"/>
      <point x="1124" y="665"/>
      <point x="1138" y="665" type="curve" smooth="yes"/>
      <point x="1142" y="665" type="line"/>
      <point x="1152" y="710" type="line"/>
      <point x="908" y="710" type="line"/>
      <point x="751" y="416" type="line"/>
      <point x="828" y="475" type="line"/>
      <point x="820" y="710" type="line"/>
      <point x="575" y="710" type="line"/>
      <point x="566" y="665" type="line"/>
      <point x="571" y="665" type="line" smooth="yes"/>
      <point x="584" y="665"/>
      <point x="593" y="662"/>
      <point x="590" y="648" type="curve" smooth="yes"/>
      <point x="545" y="435" type="line" smooth="yes"/>
      <point x="543" y="422"/>
      <point x="532" y="419"/>
      <point x="520" y="419" type="curve" smooth="yes"/>
      <point x="513" y="419" type="line"/>
    </contour>
    <contour>
      <point x="156" y="611" type="curve" smooth="yes"/>
      <point x="156" y="544"/>
      <point x="208" y="524"/>
      <point x="265" y="501" type="curve" smooth="yes"/>
      <point x="318" y="480"/>
      <point x="342" y="473"/>
      <point x="342" y="452" type="curve" smooth="yes"/>
      <point x="342" y="431"/>
      <point x="322" y="417"/>
      <point x="289" y="417" type="curve" smooth="yes"/>
      <point x="237" y="417"/>
      <point x="203" y="445"/>
      <point x="191" y="490" type="curve"/>
      <point x="121" y="490" type="line"/>
      <point x="95" y="370" type="line"/>
      <point x="152" y="370" type="line"/>
      <point x="179" y="456" type="line"/>
      <point x="137" y="470" type="line"/>
      <point x="153" y="406"/>
      <point x="191" y="367"/>
      <point x="301" y="367" type="curve" smooth="yes"/>
      <point x="423" y="367"/>
      <point x="485" y="411"/>
      <point x="485" y="488" type="curve" smooth="yes"/>
      <point x="485" y="542"/>
      <point x="434" y="570"/>
      <point x="355" y="598" type="curve" smooth="yes"/>
      <point x="317" y="611"/>
      <point x="297" y="618"/>
      <point x="297" y="639" type="curve" smooth="yes"/>
      <point x="297" y="657"/>
      <point x="309" y="667"/>
      <point x="335" y="667" type="curve" smooth="yes"/>
      <point x="379" y="667"/>
      <point x="405" y="645"/>
      <point x="418" y="616" type="curve"/>
      <point x="483" y="616" type="line"/>
      <point x="505" y="714" type="line"/>
      <point x="450" y="714" type="line"/>
      <point x="422" y="643" type="line"/>
      <point x="460" y="625" type="line"/>
      <point x="450" y="693"/>
      <point x="396" y="717"/>
      <point x="319" y="717" type="curve" smooth="yes"/>
      <point x="218" y="717"/>
      <point x="156" y="675"/>
    </contour>
  </outline>
</glyph>
<glyph name="partialdiff" format="2">
  <advance width="703"/>
  <unicode hex="2202"/>
  <outline>
    <contour>
      <point x="301" y="-12" type="curve" smooth="yes"/>
      <point x="534" y="-12"/>
      <point x="686" y="170"/>
      <point x="686" y="419" type="curve" smooth="yes"/>
      <point x="686" y="635"/>
      <point x="539" y="745"/>
      <point x="342" y="745" type="curve" smooth="yes"/>
      <point x="259" y="745"/>
      <point x="181" y="728"/>
      <point x="117" y="699" type="curve"/>
      <point x="156" y="621" type="line"/>
      <point x="201" y="640"/>
      <point x="242" y="656"/>
      <point x="288" y="656" type="curve" smooth="yes"/>
      <point x="376" y="656"/>
      <point x="413" y="602"/>
      <point x="413" y="467" type="curve" smooth="yes"/>
      <point x="413" y="274"/>
      <point x="376" y="72"/>
      <point x="326" y="72" type="curve" smooth="yes"/>
      <point x="299" y="72"/>
      <point x="291" y="109"/>
      <point x="291" y="194" type="curve" smooth="yes"/>
      <point x="291" y="331"/>
      <point x="323" y="434"/>
      <point x="393" y="434" type="curve" smooth="yes"/>
      <point x="423" y="434"/>
      <point x="459" y="408"/>
      <point x="480" y="374" type="curve"/>
      <point x="487" y="478" type="line"/>
      <point x="482" y="490"/>
      <point x="456" y="518"/>
      <point x="366" y="518" type="curve" smooth="yes"/>
      <point x="179" y="518"/>
      <point x="17" y="375"/>
      <point x="17" y="215" type="curve" smooth="yes"/>
      <point x="17" y="83"/>
      <point x="99" y="-12"/>
    </contour>
  </outline>
</glyph>
<glyph name="emptyset" format="2">
  <advance width="821"/>
  <unicode hex="2205"/>
  <outline>
    <contour>
      <point x="400" y="61" type="curve" smooth="yes"/>
      <point x="265" y="61"/>
      <point x="170" y="139"/>
      <point x="170" y="261" type="curve" smooth="yes"/>
      <point x="170" y="391"/>
      <point x="277" y="479"/>
      <point x="424" y="479" type="curve" smooth="yes"/>
      <point x="558" y="479"/>
      <point x="653" y="402"/>
      <point x="653" y="280" type="curve" smooth="yes"/>
      <point x="653" y="150"/>
      <point x="546" y="61"/>
    </contour>
    <contour>
      <point x="400" y="-10" type="curve" smooth="yes"/>
      <point x="590" y="-10"/>
      <point x="748" y="110"/>
      <point x="748" y="280" type="curve" smooth="yes"/>
      <point x="748" y="441"/>
      <point x="596" y="550"/>
      <point x="424" y="550" type="curve" smooth="yes"/>
      <point x="233" y="550"/>
      <point x="75" y="431"/>
      <point x="75" y="261" type="curve" smooth="yes"/>
      <point x="75" y="99"/>
      <point x="228" y="-10"/>
    </contour>
    <contour>
      <point x="24" y="-51" type="line"/>
      <point x="832" y="544" type="line"/>
      <point x="783" y="591" type="line"/>
      <point x="-25" y="-4" type="line"/>
    </contour>
  </outline>
</glyph>
<glyph name="minus" format="2">
  <advance width="661"/>
  <unicode hex="2212"/>
  <outline>
    <contour>
      <point x="614" y="405" type="line"/>
      <point x="82" y="405" type="line"/>
      <point x="54" y="277" type="line"/>
      <point x="586" y="277" type="line"/>
    </contour>
  </outline>
</glyph>
<glyph name="infinity" format="2">
  <advance width="915"/>
  <unicode hex="221E"/>
  <outline>
    <contour>
      <point x="372" y="329" type="curve" smooth="yes"/>
      <point x="355" y="410"/>
      <point x="324" y="445"/>
      <point x="255" y="445" type="curve" smooth="yes"/>
      <point x="183" y="445"/>
      <point x="151" y="399"/>
      <point x="151" y="341" type="curve" smooth="yes"/>
      <point x="151" y="281"/>
      <point x="197" y="246"/>
      <point x="261" y="246" type="curve" smooth="yes"/>
      <point x="330" y="246"/>
      <point x="378" y="288"/>
      <point x="402" y="332" type="curve"/>
      <point x="464" y="326" type="line"/>
      <point x="388" y="193"/>
      <point x="335" y="137"/>
      <point x="236" y="137" type="curve"/>
      <point x="125" y="137"/>
      <point x="56" y="210"/>
      <point x="56" y="320" type="curve" smooth="yes"/>
      <point x="56" y="461"/>
      <point x="164" y="556"/>
      <point x="311" y="556" type="curve" smooth="yes"/>
      <point x="468" y="556"/>
      <point x="520" y="463"/>
      <point x="552" y="357" type="curve" smooth="yes"/>
      <point x="574" y="275"/>
      <point x="607" y="249"/>
      <point x="669" y="249" type="curve" smooth="yes"/>
      <point x="737" y="249"/>
      <point x="772" y="298"/>
      <point x="772" y="358" type="curve" smooth="yes"/>
      <point x="772" y="410"/>
      <point x="735" y="447"/>
      <point x="663" y="447" type="curve" smooth="yes"/>
      <point x="591" y="447"/>
      <point x="540" y="402"/>
      <point x="517" y="357" type="curve"/>
      <point x="456" y="363" type="line"/>
      <point x="512" y="484"/>
      <point x="586" y="556"/>
      <point x="693" y="556" type="curve" smooth="yes"/>
      <point x="800" y="556"/>
      <point x="866" y="483"/>
      <point x="866" y="380" type="curve" smooth="yes"/>
      <point x="866" y="230"/>
      <point x="755" y="137"/>
      <point x="623" y="137" type="curve" smooth="yes"/>
      <point x="465" y="137"/>
      <point x="403" y="206"/>
    </contour>
  </outline>
</glyph>
<glyph name="integral" format="2">
  <advance width="830"/>
  <unicode hex="222B"/>
  <outline>
    <contour>
      <point x="527" y="510" type="line" smooth="yes"/>
      <point x="545" y="621"/>
      <point x="571" y="650"/>
      <point x="613" y="650" type="curve" smooth="yes"/>
      <point x="646" y="650"/>
      <point x="666" y="633"/>
      <point x="674" y="601" type="curve"/>
      <point x="707" y="618"/>
      <point x="681" y="660"/>
      <point x="648" y="662" type="curve"/>
      <point x="636" y="572" type="line"/>
      <point x="809" y="572" type="line"/>
      <point x="827" y="697" type="line"/>
      <point x="806" y="709"/>
      <point x="725" y="737"/>
      <point x="594" y="737" type="curve" smooth="yes"/>
      <point x="405" y="737"/>
      <point x="264" y="665"/>
      <point x="240" y="521" type="curve" smooth="yes"/>
      <point x="160" y="-7" type="line" smooth="yes"/>
      <point x="141" y="-118"/>
      <point x="117" y="-149"/>
      <point x="74" y="-149" type="curve" smooth="yes"/>
      <point x="41" y="-149"/>
      <point x="21" y="-132"/>
      <point x="13" y="-100" type="curve"/>
      <point x="-20" y="-117"/>
      <point x="6" y="-159"/>
      <point x="39" y="-161" type="curve"/>
      <point x="51" y="-71" type="line"/>
      <point x="-122" y="-71" type="line"/>
      <point x="-140" y="-196" type="line"/>
      <point x="-119" y="-208"/>
      <point x="-38" y="-236"/>
      <point x="94" y="-236" type="curve" smooth="yes"/>
      <point x="282" y="-236"/>
      <point x="422" y="-168"/>
      <point x="455" y="23" type="curve" smooth="yes"/>
    </contour>
  </outline>
</glyph>
<glyph name="approxequal" format="2">
  <advance width="661"/>
  <unicode hex="2248"/>
  <outline>
    <contour>
      <point x="428" y="222" type="curve" smooth="yes"/>
      <point x="366" y="222"/>
      <point x="331" y="298"/>
      <point x="217" y="298" type="curve" smooth="yes"/>
      <point x="107" y="298"/>
      <point x="47" y="231"/>
      <point x="7" y="102" type="curve"/>
      <point x="132" y="75" type="line"/>
      <point x="143" y="115"/>
      <point x="158" y="148"/>
      <point x="200" y="148" type="curve" smooth="yes"/>
      <point x="258" y="148"/>
      <point x="304" y="72"/>
      <point x="417" y="72" type="curve" smooth="yes"/>
      <point x="520" y="72"/>
      <point x="587" y="142"/>
      <point x="631" y="272" type="curve"/>
      <point x="507" y="299" type="line"/>
      <point x="487" y="253"/>
      <point x="471" y="222"/>
    </contour>
    <contour>
      <point x="484" y="479" type="curve" smooth="yes"/>
      <point x="422" y="479"/>
      <point x="387" y="555"/>
      <point x="273" y="555" type="curve" smooth="yes"/>
      <point x="163" y="555"/>
      <point x="103" y="489"/>
      <point x="63" y="359" type="curve"/>
      <point x="188" y="332" type="line"/>
      <point x="198" y="372"/>
      <point x="214" y="405"/>
      <point x="256" y="405" type="curve" smooth="yes"/>
      <point x="314" y="405"/>
      <point x="360" y="329"/>
      <point x="472" y="329" type="curve" smooth="yes"/>
      <point x="575" y="329"/>
      <point x="643" y="399"/>
      <point x="687" y="530" type="curve"/>
      <point x="563" y="557" type="line"/>
      <point x="543" y="511"/>
      <point x="527" y="479"/>
    </contour>
  </outline>
</glyph>
<glyph name="notequal" format="2">
  <advance width="661"/>
  <unicode hex="2260"/>
  <outline>
    <contour>
      <point x="517" y="636" type="line"/>
      <point x="8" y="42" type="line"/>
      <point x="163" y="42" type="line"/>
      <point x="673" y="636" type="line"/>
    </contour>
    <component base="equal"/>
  </outline>
</glyph>
<glyph name="hook" format="2">
  <advance width="602"/>
  <unicode hex="2440"/>
  <anchor x="275" y="517" name="_top"/>
  <outline>
    <contour>
      <point x="81" y="688" type="line"/>
      <point x="96" y="749"/>
      <point x="155" y="793"/>
      <point x="276" y="793" type="curve" smooth="yes"/>
      <point x="398" y="793"/>
      <point x="454" y="756"/>
      <point x="454" y="696" type="curve" smooth="yes"/>
      <point x="454" y="626"/>
      <point x="384" y="591"/>
      <point x="243" y="590" type="curve"/>
      <point x="307" y="626" type="line"/>
      <point x="293" y="557" type="line"/>
      <point x="165" y="557" type="line"/>
      <point x="181" y="636" type="line"/>
      <point x="267" y="637"/>
      <point x="293" y="657"/>
      <point x="293" y="688" type="curve" smooth="yes"/>
      <point x="293" y="708"/>
      <point x="280" y="719"/>
      <point x="257" y="719" type="curve" smooth="yes"/>
      <point x="232" y="719"/>
      <point x="221" y="709"/>
      <point x="215" y="688" type="curve"/>
    </contour>
  </outline>
</glyph>
<glyph name="uni25B4" format="2">
  <advance width="761"/>
  <unicode hex="25B4"/>
  <outline>
    <contour>
      <point x="65" y="91" type="line"/>
      <point x="696" y="91" type="line"/>
      <point x="380" y="464" type="line"/>
    </contour>
  </outline>
</glyph>
<glyph name="uni25B5" format="2">
  <advance width="762"/>
  <unicode hex="25B5"/>
  <outline>
    <contour>
      <point x="708" y="91" type="line"/>
      <point x="77" y="91" type="line"/>
      <point x="392" y="464" type="line"/>
    </contour>
    <contour>
      <point x="608" y="141" type="line"/>
      <point x="600" y="125" type="line"/>
      <point x="386" y="380" type="line"/>
      <point x="399" y="380" type="line"/>
      <point x="186" y="125" type="line"/>
      <point x="177" y="141" type="line"/>
    </contour>
  </outline>
</glyph>
<glyph name="uni25B9" format="2">
  <advance width="676"/>
  <unicode hex="25B9"/>
  <outline>
    <contour>
      <point x="153" y="545" type="line"/>
      <point x="153" y="10" type="line"/>
      <point x="594" y="277" type="line"/>
    </contour>
    <contour>
      <point x="218" y="460" type="line"/>
      <point x="200" y="453" type="line"/>
      <point x="500" y="272" type="line"/>
      <point x="500" y="283" type="line"/>
      <point x="200" y="102" type="line"/>
      <point x="218" y="95" type="line"/>
    </contour>
  </outline>
</glyph>
<glyph name="uni25BF" format="2">
  <advance width="738"/>
  <unicode hex="25BF"/>
  <outline>
    <contour>
      <point x="684" y="464" type="line"/>
      <point x="53" y="464" type="line"/>
      <point x="368" y="91" type="line"/>
    </contour>
    <contour>
      <point x="584" y="414" type="line"/>
      <point x="576" y="430" type="line"/>
      <point x="362" y="175" type="line"/>
      <point x="375" y="175" type="line"/>
      <point x="162" y="430" type="line"/>
      <point x="153" y="414" type="line"/>
    </contour>
  </outline>
</glyph>
<glyph name="zero.den" format="2">
  <advance width="446"/>
  <unicode hex="E402"/>
  <outline>
    <contour>
      <point x="229" y="168" type="curve" smooth="yes"/>
      <point x="203" y="71"/>
      <point x="193" y="51"/>
      <point x="180" y="51" type="curve" smooth="yes"/>
      <point x="171" y="51"/>
      <point x="167" y="61"/>
      <point x="167" y="76" type="curve" smooth="yes"/>
      <point x="167" y="92"/>
      <point x="174" y="133"/>
      <point x="194" y="202" type="curve" smooth="yes"/>
      <point x="220" y="299"/>
      <point x="229" y="319"/>
      <point x="242" y="319" type="curve" smooth="yes"/>
      <point x="252" y="319"/>
      <point x="255" y="309"/>
      <point x="255" y="294" type="curve" smooth="yes"/>
      <point x="255" y="278"/>
      <point x="249" y="237"/>
    </contour>
    <contour>
      <point x="422" y="216" type="curve" smooth="yes"/>
      <point x="422" y="307"/>
      <point x="359" y="378"/>
      <point x="237" y="378" type="curve" smooth="yes"/>
      <point x="62" y="378"/>
      <point x="0" y="248"/>
      <point x="0" y="155" type="curve" smooth="yes"/>
      <point x="0" y="64"/>
      <point x="64" y="-7"/>
      <point x="191" y="-7" type="curve" smooth="yes"/>
      <point x="361" y="-7"/>
      <point x="422" y="123"/>
    </contour>
  </outline>
</glyph>
<glyph name="six.den" format="2">
  <advance width="453"/>
  <unicode hex="E408"/>
  <outline>
    <contour>
      <point x="204" y="-6" type="curve" smooth="yes"/>
      <point x="82" y="-6"/>
      <point x="3" y="45"/>
      <point x="3" y="151" type="curve" smooth="yes"/>
      <point x="3" y="312"/>
      <point x="194" y="390"/>
      <point x="399" y="391" type="curve"/>
      <point x="405" y="335" type="line"/>
      <point x="187" y="326"/>
      <point x="178" y="177"/>
      <point x="178" y="90" type="curve" smooth="yes"/>
      <point x="178" y="61"/>
      <point x="182" y="50"/>
      <point x="197" y="50" type="curve" smooth="yes"/>
      <point x="222" y="50"/>
      <point x="237" y="122"/>
      <point x="237" y="157" type="curve" smooth="yes"/>
      <point x="237" y="179"/>
      <point x="230" y="192"/>
      <point x="216" y="192" type="curve" smooth="yes"/>
      <point x="198" y="192"/>
      <point x="184" y="176"/>
      <point x="171" y="154" type="curve"/>
      <point x="179" y="184" type="line"/>
      <point x="193" y="211"/>
      <point x="239" y="248"/>
      <point x="306" y="248" type="curve" smooth="yes"/>
      <point x="384" y="248"/>
      <point x="422" y="210"/>
      <point x="422" y="150" type="curve" smooth="yes"/>
      <point x="422" y="60"/>
      <point x="331" y="-6"/>
    </contour>
  </outline>
</glyph>
<glyph name="eight.den" format="2">
  <advance width="477"/>
  <unicode hex="E40A"/>
  <outline>
    <contour>
      <point x="206" y="-7" type="curve" smooth="yes"/>
      <point x="345" y="-7"/>
      <point x="425" y="49"/>
      <point x="425" y="114" type="curve" smooth="yes"/>
      <point x="425" y="165"/>
      <point x="383" y="211"/>
      <point x="200" y="211" type="curve" smooth="yes"/>
      <point x="67" y="211"/>
      <point x="-4" y="173"/>
      <point x="-4" y="108" type="curve" smooth="yes"/>
      <point x="-4" y="44"/>
      <point x="64" y="-7"/>
    </contour>
    <contour>
      <point x="244" y="189" type="curve" smooth="yes"/>
      <point x="387" y="189"/>
      <point x="446" y="230"/>
      <point x="446" y="287" type="curve" smooth="yes"/>
      <point x="446" y="341"/>
      <point x="374" y="377"/>
      <point x="251" y="377" type="curve"/>
      <point x="127" y="377"/>
      <point x="47" y="339"/>
      <point x="47" y="281" type="curve" smooth="yes"/>
      <point x="47" y="224"/>
      <point x="105" y="189"/>
    </contour>
    <contour>
      <point x="238" y="227" type="curve" smooth="yes"/>
      <point x="226" y="227"/>
      <point x="222" y="236"/>
      <point x="222" y="248" type="curve" smooth="yes"/>
      <point x="222" y="257"/>
      <point x="223" y="269"/>
      <point x="229" y="287" type="curve" smooth="yes"/>
      <point x="234" y="305"/>
      <point x="241" y="316"/>
      <point x="254" y="316" type="curve" smooth="yes"/>
      <point x="266" y="316"/>
      <point x="271" y="307"/>
      <point x="271" y="295" type="curve" smooth="yes"/>
      <point x="271" y="287"/>
      <point x="269" y="274"/>
      <point x="264" y="257" type="curve" smooth="yes"/>
      <point x="259" y="238"/>
      <point x="252" y="227"/>
    </contour>
    <contour>
      <point x="223" y="169" type="curve" smooth="yes"/>
      <point x="236" y="169"/>
      <point x="239" y="159"/>
      <point x="239" y="143" type="curve" smooth="yes"/>
      <point x="239" y="130"/>
      <point x="234" y="109"/>
      <point x="229" y="94" type="curve" smooth="yes"/>
      <point x="222" y="68"/>
      <point x="214" y="56"/>
      <point x="199" y="56" type="curve" smooth="yes"/>
      <point x="186" y="56"/>
      <point x="182" y="65"/>
      <point x="182" y="82" type="curve" smooth="yes"/>
      <point x="182" y="95"/>
      <point x="187" y="116"/>
      <point x="191" y="131" type="curve" smooth="yes"/>
      <point x="199" y="157"/>
      <point x="207" y="169"/>
    </contour>
  </outline>
</glyph>
<glyph name="f_f_l" format="2">
  <advance width="1284"/>
  <unicode hex="FB04"/>
  <outline>
    <contour>
      <point x="52" y="513" type="line"/>
      <point x="35" y="433" type="line"/>
      <point x="605" y="433" type="line"/>
      <point x="623" y="513" type="line"/>
    </contour>
    <contour>
      <point x="463" y="513" type="line"/>
      <point x="446" y="433" type="line"/>
      <point x="915" y="433" type="line"/>
      <point x="933" y="513" type="line"/>
    </contour>
    <contour>
      <point x="523" y="647" type="curve" smooth="yes"/>
      <point x="541" y="647"/>
      <point x="555" y="642"/>
      <point x="561" y="639" type="curve"/>
      <point x="580" y="717" type="line"/>
      <point x="565" y="723"/>
      <point x="517" y="733"/>
      <point x="449" y="733" type="curve" smooth="yes"/>
      <point x="272" y="733"/>
      <point x="177" y="670"/>
      <point x="157" y="530" type="curve" smooth="yes"/>
      <point x="47" y="-223" type="line"/>
      <point x="257" y="-223" type="line"/>
      <point x="460" y="579" type="line" smooth="yes"/>
      <point x="468" y="626"/>
      <point x="487" y="647"/>
    </contour>
    <contour>
      <point x="1215" y="192" type="curve" smooth="yes"/>
      <point x="1324" y="732" type="line"/>
      <point x="1000" y="732" type="line"/>
      <point x="1025" y="691" type="line"/>
      <point x="930" y="220" type="line" smooth="yes"/>
      <point x="917" y="169"/>
      <point x="910" y="139"/>
      <point x="910" y="112" type="curve" smooth="yes"/>
      <point x="910" y="29"/>
      <point x="987" y="-14"/>
      <point x="1091" y="-14" type="curve" smooth="yes"/>
      <point x="1162" y="-14"/>
      <point x="1222" y="2"/>
      <point x="1246" y="15" type="curve"/>
      <point x="1265" y="92" type="line"/>
      <point x="1260" y="91"/>
      <point x="1245" y="84"/>
      <point x="1227" y="84" type="curve" smooth="yes"/>
      <point x="1207" y="84"/>
      <point x="1197" y="90"/>
      <point x="1197" y="108" type="curve" smooth="yes"/>
      <point x="1197" y="124"/>
      <point x="1205" y="153"/>
    </contour>
    <contour>
      <point x="959" y="662" type="curve" smooth="yes"/>
      <point x="1010" y="662"/>
      <point x="1042" y="633"/>
      <point x="1051" y="584" type="curve"/>
      <point x="1230" y="693" type="line"/>
      <point x="1164" y="719"/>
      <point x="1061" y="748"/>
      <point x="942" y="748" type="curve" smooth="yes"/>
      <point x="737" y="748"/>
      <point x="591" y="692"/>
      <point x="564" y="513" type="curve" smooth="yes"/>
      <point x="463" y="-193" type="line"/>
      <point x="672" y="-193" type="line"/>
      <point x="865" y="563" type="line" smooth="yes"/>
      <point x="882" y="636"/>
      <point x="910" y="662"/>
    </contour>
  </outline>
</glyph>
<glyph name="Euro.proportional" format="2">
  <advance width="858"/>
  <outline>
    <contour>
      <point x="588" y="720" type="curve" smooth="yes"/>
      <point x="286" y="720"/>
      <point x="115" y="540"/>
      <point x="115" y="306" type="curve" smooth="yes"/>
      <point x="115" y="110"/>
      <point x="280" y="-10"/>
      <point x="481" y="-10" type="curve" smooth="yes"/>
      <point x="661" y="-10"/>
      <point x="758" y="81"/>
      <point x="810" y="211" type="curve"/>
      <point x="717" y="248" type="line"/>
      <point x="680" y="151"/>
      <point x="615" y="82"/>
      <point x="537" y="82" type="curve" smooth="yes"/>
      <point x="454" y="82"/>
      <point x="409" y="135"/>
      <point x="409" y="261" type="curve" smooth="yes"/>
      <point x="409" y="307"/>
      <point x="416" y="366"/>
      <point x="433" y="423" type="curve" smooth="yes"/>
      <point x="461" y="533"/>
      <point x="514" y="629"/>
      <point x="600" y="629" type="curve" smooth="yes"/>
      <point x="648" y="629"/>
      <point x="671" y="606"/>
      <point x="688" y="576" type="curve"/>
      <point x="734" y="572"/>
      <point x="751" y="616"/>
      <point x="659" y="621" type="curve"/>
      <point x="637" y="514" type="line"/>
      <point x="835" y="514" type="line"/>
      <point x="865" y="652" type="line"/>
      <point x="834" y="674"/>
      <point x="743" y="720"/>
    </contour>
    <contour>
      <point x="75" y="465" type="line"/>
      <point x="56" y="381" type="line"/>
      <point x="603" y="381" type="line"/>
      <point x="619" y="465" type="line"/>
    </contour>
    <contour>
      <point x="43" y="304" type="line"/>
      <point x="24" y="220" type="line"/>
      <point x="532" y="220" type="line"/>
      <point x="551" y="304" type="line"/>
    </contour>
  </outline>
</glyph>
<glyph name="acute.pl" format="2">
  <advance width="590"/>
  <anchor x="260" y="489" name="_top"/>
  <outline>
    <contour>
      <point x="189" y="684" type="curve" smooth="yes"/>
      <point x="165" y="590" type="line"/>
      <point x="161" y="559" type="line"/>
      <point x="253" y="559" type="line"/>
      <point x="310" y="613" type="line" smooth="yes"/>
      <point x="380" y="667"/>
      <point x="406" y="699"/>
      <point x="406" y="736" type="curve" smooth="yes"/>
      <point x="406" y="772"/>
      <point x="369" y="796"/>
      <point x="314" y="796" type="curve" smooth="yes"/>
      <point x="240" y="796"/>
      <point x="207" y="754"/>
    </contour>
  </outline>
</glyph>
<glyph name="acute.uc" format="2">
  <advance width="590"/>
  <anchor x="260" y="727" name="_top"/>
  <outline>
    <contour>
      <point x="263" y="867" type="curve"/>
      <point x="208" y="787" type="line"/>
      <point x="204" y="758" type="line"/>
      <point x="284" y="758" type="line"/>
      <point x="366" y="782" type="line" smooth="yes"/>
      <point x="468" y="807"/>
      <point x="507" y="833"/>
      <point x="507" y="883" type="curve" smooth="yes"/>
      <point x="507" y="918"/>
      <point x="470" y="946"/>
      <point x="407" y="946" type="curve" smooth="yes"/>
      <point x="346" y="946"/>
      <point x="302" y="921"/>
    </contour>
  </outline>
</glyph>
<glyph name="acute.ucpl" format="2">
  <advance width="590"/>
  <anchor x="233" y="694" name="_top"/>
  <outline>
    <contour>
      <point x="189" y="876" type="curve" smooth="yes"/>
      <point x="162" y="782" type="line"/>
      <point x="161" y="754" type="line"/>
      <point x="253" y="754" type="line"/>
      <point x="310" y="803" type="line" smooth="yes"/>
      <point x="383" y="860"/>
      <point x="410" y="885"/>
      <point x="410" y="922" type="curve" smooth="yes"/>
      <point x="410" y="960"/>
      <point x="371" y="986"/>
      <point x="315" y="986" type="curve" smooth="yes"/>
      <point x="245" y="986"/>
      <point x="209" y="947"/>
    </contour>
  </outline>
</glyph>
<glyph name="at.uc" format="2">
  <advance width="1101"/>
  <outline>
    <contour>
      <point x="451" y="118" type="curve" smooth="yes"/>
      <point x="547" y="118"/>
      <point x="590" y="164"/>
      <point x="673" y="284" type="curve"/>
      <point x="642" y="339" type="line"/>
      <point x="572" y="228"/>
      <point x="545" y="197"/>
      <point x="512" y="197" type="curve" smooth="yes"/>
      <point x="489" y="197"/>
      <point x="479" y="218"/>
      <point x="479" y="260" type="curve" smooth="yes"/>
      <point x="479" y="355"/>
      <point x="520" y="469"/>
      <point x="586" y="469" type="curve" smooth="yes"/>
      <point x="622" y="469"/>
      <point x="648" y="442"/>
      <point x="653" y="347" type="curve"/>
      <point x="695" y="391" type="line"/>
      <point x="689" y="501"/>
      <point x="656" y="548"/>
      <point x="530" y="548" type="curve" smooth="yes"/>
      <point x="363" y="548"/>
      <point x="253" y="412"/>
      <point x="253" y="286" type="curve" smooth="yes"/>
      <point x="253" y="185"/>
      <point x="327" y="118"/>
    </contour>
    <contour>
      <point x="540" y="-62" type="curve" smooth="yes"/>
      <point x="660" y="-62"/>
      <point x="771" y="-42"/>
      <point x="846" y="-11" type="curve"/>
      <point x="836" y="71" type="line"/>
      <point x="756" y="40"/>
      <point x="649" y="22"/>
      <point x="540" y="22" type="curve" smooth="yes"/>
      <point x="316" y="22"/>
      <point x="149" y="115"/>
      <point x="149" y="302" type="curve" smooth="yes"/>
      <point x="149" y="496"/>
      <point x="334" y="649"/>
      <point x="622" y="649" type="curve" smooth="yes"/>
      <point x="845" y="649"/>
      <point x="964" y="566"/>
      <point x="964" y="429" type="curve" smooth="yes"/>
      <point x="964" y="298"/>
      <point x="877" y="199"/>
      <point x="814" y="199" type="curve" smooth="yes"/>
      <point x="796" y="199"/>
      <point x="788" y="206"/>
      <point x="788" y="220" type="curve" smooth="yes"/>
      <point x="788" y="227"/>
      <point x="789" y="235"/>
      <point x="794" y="250" type="curve"/>
      <point x="891" y="542" type="line"/>
      <point x="703" y="542" type="line"/>
      <point x="647" y="461" type="line"/>
      <point x="639" y="457" type="line"/>
      <point x="562" y="220" type="line"/>
      <point x="582" y="219" type="line"/>
      <point x="595" y="156"/>
      <point x="645" y="123"/>
      <point x="765" y="123" type="curve" smooth="yes"/>
      <point x="954" y="123"/>
      <point x="1090" y="257"/>
      <point x="1090" y="429" type="curve" smooth="yes"/>
      <point x="1090" y="620"/>
      <point x="908" y="733"/>
      <point x="622" y="733" type="curve" smooth="yes"/>
      <point x="278" y="733"/>
      <point x="23" y="548"/>
      <point x="23" y="302" type="curve" smooth="yes"/>
      <point x="23" y="60"/>
      <point x="255" y="-62"/>
    </contour>
  </outline>
</glyph>
<glyph name="b.italic" format="2">
  <advance width="761"/>
  <outline>
    <contour>
      <point x="425" y="-10" type="curve" smooth="yes"/>
      <point x="594" y="-10"/>
      <point x="707" y="99"/>
      <point x="707" y="257" type="curve" smooth="yes"/>
      <point x="707" y="414"/>
      <point x="597" y="518"/>
      <point x="434" y="518" type="curve" smooth="yes"/>
      <point x="335" y="518"/>
      <point x="276" y="479"/>
      <point x="212" y="399" type="curve"/>
      <point x="212" y="316" type="line"/>
      <point x="265" y="411"/>
      <point x="334" y="461"/>
      <point x="427" y="461" type="curve" smooth="yes"/>
      <point x="536" y="461"/>
      <point x="596" y="382"/>
      <point x="596" y="257" type="curve" smooth="yes"/>
      <point x="596" y="131"/>
      <point x="536" y="47"/>
      <point x="422" y="47" type="curve" smooth="yes"/>
      <point x="334" y="47"/>
      <point x="267" y="91"/>
      <point x="212" y="184" type="curve"/>
      <point x="212" y="97" type="line"/>
      <point x="271" y="23"/>
      <point x="331" y="-10"/>
    </contour>
    <contour>
      <point x="127" y="642" type="curve" smooth="yes"/>
      <point x="127" y="-3" type="line"/>
      <point x="198" y="-3" type="line"/>
      <point x="221" y="106" type="line"/>
      <point x="232" y="121" type="line"/>
      <point x="232" y="735" type="line"/>
      <point x="27" y="735" type="line"/>
      <point x="27" y="689" type="line"/>
      <point x="40" y="687" type="line" smooth="yes"/>
      <point x="100" y="678"/>
      <point x="127" y="671"/>
    </contour>
  </outline>
</glyph>
<glyph name="blackrightpointingtriangle" format="2">
  <advance width="954"/>
  <outline>
    <contour>
      <point x="431" y="10" type="line"/>
      <point x="871" y="277" type="line"/>
      <point x="431" y="545" type="line"/>
    </contour>
  </outline>
</glyph>
<glyph name="blacksquare" format="2">
  <advance width="694"/>
  <outline>
    <contour>
      <point x="100" y="104" type="line"/>
      <point x="594" y="104" type="line"/>
      <point x="594" y="522" type="line"/>
      <point x="100" y="522" type="line"/>
    </contour>
  </outline>
</glyph>
<glyph name="braceleft.uc" format="2">
  <advance width="452"/>
  <outline>
    <contour>
      <point x="19" y="76" type="curve" smooth="yes"/>
      <point x="19" y="-30"/>
      <point x="155" y="-60"/>
      <point x="323" y="-61" type="curve"/>
      <point x="323" y="-61" type="line"/>
      <point x="363" y="18" type="line"/>
      <point x="363" y="18" type="line"/>
      <point x="293" y="22"/>
      <point x="257" y="40"/>
      <point x="257" y="79" type="curve" smooth="yes"/>
      <point x="257" y="139"/>
      <point x="366" y="202"/>
      <point x="366" y="267" type="curve" smooth="yes"/>
      <point x="366" y="305"/>
      <point x="346" y="337"/>
      <point x="217" y="350" type="curve"/>
      <point x="218" y="354" type="line"/>
      <point x="363" y="365"/>
      <point x="392" y="398"/>
      <point x="392" y="445" type="curve" smooth="yes"/>
      <point x="392" y="492"/>
      <point x="353" y="552"/>
      <point x="353" y="600" type="curve" smooth="yes"/>
      <point x="353" y="652"/>
      <point x="403" y="678"/>
      <point x="473" y="680" type="curve" smooth="yes"/>
      <point x="475" y="680"/>
      <point x="476" y="680"/>
      <point x="477" y="680" type="curve"/>
      <point x="473" y="757" type="line"/>
      <point x="439" y="760"/>
      <point x="405" y="761"/>
      <point x="373" y="761" type="curve" smooth="yes"/>
      <point x="237" y="761"/>
      <point x="115" y="727"/>
      <point x="115" y="628" type="curve" smooth="yes"/>
      <point x="115" y="562"/>
      <point x="182" y="495"/>
      <point x="223" y="408" type="curve"/>
      <point x="235" y="439" type="line"/>
      <point x="47" y="397" type="line"/>
      <point x="30" y="323" type="line"/>
      <point x="199" y="273" type="line"/>
      <point x="200" y="305" type="line"/>
      <point x="99" y="206"/>
      <point x="19" y="165"/>
    </contour>
  </outline>
</glyph>
<glyph name="breve_grave.uc" format="2">
  <advance width="602"/>
  <anchor x="286" y="744" name="_top"/>
  <outline>
    <contour>
      <point x="319" y="948" type="curve"/>
      <point x="244" y="955" type="line" smooth="yes"/>
      <point x="176" y="973"/>
      <point x="147" y="991"/>
      <point x="147" y="1021" type="curve" smooth="yes"/>
      <point x="147" y="1052"/>
      <point x="178" y="1079"/>
      <point x="238" y="1079" type="curve" smooth="yes"/>
      <point x="298" y="1079"/>
      <point x="326" y="1061"/>
      <point x="361" y="1014" type="curve" smooth="yes"/>
      <point x="361" y="1017"/>
      <point x="401" y="967"/>
      <point x="401" y="972" type="curve"/>
      <point x="401" y="976"/>
      <point x="401" y="956"/>
      <point x="400" y="956" type="curve"/>
      <point x="400" y="956"/>
      <point x="320" y="953"/>
    </contour>
    <component base="breve.uc"/>
  </outline>
</glyph>
<glyph name="breve_hook.uc" format="2">
  <advance width="590"/>
  <anchor x="290" y="724" name="_top"/>
  <outline>
    <contour>
      <point x="162" y="1006" type="line"/>
      <point x="174" y="1056"/>
      <point x="228" y="1089"/>
      <point x="329" y="1089" type="curve" smooth="yes"/>
      <point x="430" y="1089"/>
      <point x="485" y="1065"/>
      <point x="485" y="1013" type="curve" smooth="yes"/>
      <point x="485" y="955"/>
      <point x="425" y="935"/>
      <point x="322" y="931" type="curve"/>
      <point x="362" y="955" type="line"/>
      <point x="352" y="908" type="line"/>
      <point x="240" y="908" type="line"/>
      <point x="252" y="965" type="line"/>
      <point x="323" y="966"/>
      <point x="345" y="983"/>
      <point x="345" y="1007" type="curve" smooth="yes"/>
      <point x="345" y="1024"/>
      <point x="335" y="1032"/>
      <point x="316" y="1032" type="curve" smooth="yes"/>
      <point x="299" y="1032"/>
      <point x="287" y="1024"/>
      <point x="281" y="1006" type="curve"/>
    </contour>
    <contour>
      <point x="289" y="758" type="curve" smooth="yes"/>
      <point x="145" y="758"/>
      <point x="89" y="810"/>
      <point x="89" y="888" type="curve" smooth="yes"/>
      <point x="89" y="892"/>
      <point x="89" y="896"/>
      <point x="89" y="899" type="curve"/>
      <point x="218" y="899" type="line"/>
      <point x="217" y="865"/>
      <point x="236" y="849"/>
      <point x="298" y="849" type="curve" smooth="yes"/>
      <point x="353" y="849"/>
      <point x="370" y="864"/>
      <point x="380" y="899" type="curve"/>
      <point x="502" y="899" type="line"/>
      <point x="482" y="802"/>
      <point x="413" y="758"/>
    </contour>
  </outline>
</glyph>
<glyph name="breve_tilde" format="2">
  <advance width="590"/>
  <anchor x="300" y="524" name="_top"/>
  <outline>
    <contour>
      <point x="401" y="763" type="curve" smooth="yes"/>
      <point x="481" y="763"/>
      <point x="532" y="803"/>
      <point x="566" y="890" type="curve"/>
      <point x="465" y="927" type="line"/>
      <point x="449" y="892"/>
      <point x="434" y="878"/>
      <point x="412" y="878" type="curve" smooth="yes"/>
      <point x="362" y="878"/>
      <point x="341" y="923"/>
      <point x="252" y="923" type="curve" smooth="yes"/>
      <point x="170" y="923"/>
      <point x="127" y="886"/>
      <point x="93" y="800" type="curve"/>
      <point x="194" y="764" type="line"/>
      <point x="206" y="799"/>
      <point x="220" y="813"/>
      <point x="243" y="813" type="curve" smooth="yes"/>
      <point x="283" y="813"/>
      <point x="320" y="763"/>
    </contour>
    <contour>
      <point x="304" y="560" type="curve" smooth="yes"/>
      <point x="431" y="560"/>
      <point x="507" y="614"/>
      <point x="522" y="728" type="curve"/>
      <point x="400" y="728" type="line"/>
      <point x="393" y="691"/>
      <point x="365" y="676"/>
      <point x="315" y="676" type="curve" smooth="yes"/>
      <point x="253" y="676"/>
      <point x="231" y="697"/>
      <point x="231" y="728" type="curve"/>
      <point x="104" y="728" type="line"/>
      <point x="103" y="723"/>
      <point x="102" y="710"/>
      <point x="102" y="701" type="curve" smooth="yes"/>
      <point x="103" y="618"/>
      <point x="169" y="560"/>
    </contour>
  </outline>
</glyph>
<glyph name="caron.alt" format="2">
  <advance width="590"/>
  <anchor x="123" y="574" name="_right"/>
  <outline>
    <contour>
      <point x="219" y="528" type="line"/>
      <point x="99" y="528" type="line"/>
      <point x="101" y="538" type="line"/>
      <point x="156" y="710" type="line"/>
      <point x="354" y="710" type="line"/>
    </contour>
  </outline>
</glyph>
<glyph name="circumflex.uc" format="2">
  <advance width="590"/>
  <anchor x="291" y="694" name="_top"/>
  <outline>
    <contour>
      <point x="440" y="912" type="line"/>
      <point x="544" y="773" type="line"/>
      <point x="538" y="751" type="line"/>
      <point x="396" y="751" type="line"/>
      <point x="237" y="845" type="line"/>
      <point x="405" y="845" type="line"/>
      <point x="198" y="751" type="line"/>
      <point x="62" y="751" type="line"/>
      <point x="68" y="773" type="line"/>
      <point x="230" y="912" type="line"/>
    </contour>
  </outline>
</glyph>
<glyph name="circumflex_hook" format="2">
  <advance width="602"/>
  <anchor x="304" y="559" name="_top"/>
  <outline>
    <contour>
      <point x="417" y="805" type="line"/>
      <point x="428" y="855"/>
      <point x="483" y="891"/>
      <point x="584" y="891" type="curve" smooth="yes"/>
      <point x="689" y="891"/>
      <point x="737" y="859"/>
      <point x="737" y="812" type="curve" smooth="yes"/>
      <point x="737" y="755"/>
      <point x="679" y="729"/>
      <point x="568" y="728" type="curve"/>
      <point x="614" y="751" type="line"/>
      <point x="605" y="701" type="line"/>
      <point x="493" y="701" type="line"/>
      <point x="505" y="765" type="line"/>
      <point x="579" y="766"/>
      <point x="598" y="782"/>
      <point x="598" y="808" type="curve" smooth="yes"/>
      <point x="598" y="822"/>
      <point x="591" y="831"/>
      <point x="570" y="831" type="curve" smooth="yes"/>
      <point x="550" y="831"/>
      <point x="541" y="824"/>
      <point x="535" y="805" type="curve"/>
    </contour>
    <component base="circumflex"/>
  </outline>
</glyph>
<glyph name="circumflex_tilde" format="2">
  <advance width="590"/>
  <anchor x="293" y="551" name="_top"/>
  <outline>
    <contour>
      <point x="450" y="720" type="line"/>
      <point x="549" y="579" type="line"/>
      <point x="543" y="557" type="line"/>
      <point x="424" y="557" type="line"/>
      <point x="233" y="653" type="line"/>
      <point x="406" y="653" type="line"/>
      <point x="172" y="557" type="line"/>
      <point x="53" y="557" type="line"/>
      <point x="59" y="579" type="line"/>
      <point x="219" y="720" type="line"/>
    </contour>
    <contour>
      <point x="266" y="923" type="curve" smooth="yes"/>
      <point x="180" y="923"/>
      <point x="136" y="880"/>
      <point x="102" y="795" type="curve"/>
      <point x="204" y="760" type="line"/>
      <point x="216" y="794"/>
      <point x="229" y="808"/>
      <point x="252" y="808" type="curve" smooth="yes"/>
      <point x="292" y="808"/>
      <point x="327" y="758"/>
      <point x="409" y="758" type="curve" smooth="yes"/>
      <point x="489" y="758"/>
      <point x="542" y="804"/>
      <point x="575" y="890" type="curve"/>
      <point x="474" y="927" type="line"/>
      <point x="459" y="892"/>
      <point x="443" y="878"/>
      <point x="421" y="878" type="curve" smooth="yes"/>
      <point x="371" y="878"/>
      <point x="350" y="923"/>
    </contour>
  </outline>
</glyph>
<glyph name="dieresis.uc" format="2">
  <advance width="590"/>
  <anchor x="295" y="694" name="_top"/>
  <outline>
    <contour>
      <point x="136" y="765" type="curve" smooth="yes"/>
      <point x="227" y="765"/>
      <point x="279" y="802"/>
      <point x="279" y="861" type="curve" smooth="yes"/>
      <point x="279" y="913"/>
      <point x="233" y="946"/>
      <point x="150" y="946" type="curve" smooth="yes"/>
      <point x="58" y="946"/>
      <point x="6" y="909"/>
      <point x="6" y="851" type="curve" smooth="yes"/>
      <point x="6" y="798"/>
      <point x="53" y="765"/>
    </contour>
    <contour>
      <point x="439" y="765" type="curve" smooth="yes"/>
      <point x="530" y="765"/>
      <point x="582" y="802"/>
      <point x="582" y="861" type="curve" smooth="yes"/>
      <point x="582" y="913"/>
      <point x="536" y="946"/>
      <point x="453" y="946" type="curve" smooth="yes"/>
      <point x="361" y="946"/>
      <point x="309" y="909"/>
      <point x="309" y="851" type="curve" smooth="yes"/>
      <point x="309" y="798"/>
      <point x="355" y="765"/>
    </contour>
  </outline>
</glyph>
<glyph name="dollar.altprop" format="2">
  <advance width="724"/>
  <outline>
    <contour>
      <point x="334" y="2" type="curve" smooth="yes"/>
      <point x="553" y="2"/>
      <point x="677" y="85"/>
      <point x="677" y="233" type="curve"/>
      <point x="677" y="330"/>
      <point x="596" y="382"/>
      <point x="467" y="435" type="curve" smooth="yes"/>
      <point x="400" y="466"/>
      <point x="326" y="491"/>
      <point x="326" y="539" type="curve" smooth="yes"/>
      <point x="326" y="577"/>
      <point x="351" y="600"/>
      <point x="413" y="600" type="curve" smooth="yes"/>
      <point x="476" y="600"/>
      <point x="518" y="575"/>
      <point x="541" y="536" type="curve"/>
      <point x="560" y="548"/>
      <point x="515" y="600"/>
      <point x="506" y="600" type="curve"/>
      <point x="488" y="510" type="line"/>
      <point x="678" y="510" type="line"/>
      <point x="700" y="617" type="line"/>
      <point x="664" y="648"/>
      <point x="576" y="688"/>
      <point x="416" y="688" type="curve" smooth="yes"/>
      <point x="199" y="688"/>
      <point x="74" y="618"/>
      <point x="74" y="483" type="curve" smooth="yes"/>
      <point x="74" y="377"/>
      <point x="151" y="327"/>
      <point x="246" y="283" type="curve" smooth="yes"/>
      <point x="333" y="242"/>
      <point x="416" y="222"/>
      <point x="416" y="168" type="curve" smooth="yes"/>
      <point x="416" y="121"/>
      <point x="378" y="95"/>
      <point x="314" y="95" type="curve" smooth="yes"/>
      <point x="239" y="95"/>
      <point x="185" y="123"/>
      <point x="158" y="171" type="curve"/>
      <point x="140" y="156"/>
      <point x="194" y="103"/>
      <point x="202" y="103" type="curve"/>
      <point x="221" y="199" type="line"/>
      <point x="24" y="199" type="line"/>
      <point x="0" y="90" type="line"/>
      <point x="43" y="54"/>
      <point x="152" y="2"/>
    </contour>
    <contour>
      <point x="204" y="-130" type="line"/>
      <point x="335" y="-130" type="line"/>
      <point x="374" y="53" type="line"/>
      <point x="243" y="55" type="line"/>
    </contour>
    <contour>
      <point x="366" y="654" type="line"/>
      <point x="496" y="653" type="line"/>
      <point x="523" y="780" type="line"/>
      <point x="393" y="780" type="line"/>
    </contour>
  </outline>
</glyph>
<glyph name="eight.linprop" format="2">
  <advance width="748"/>
  <outline>
    <contour>
      <point x="400" y="420" type="curve" smooth="yes"/>
      <point x="370" y="420"/>
      <point x="360" y="440"/>
      <point x="360" y="474" type="curve" smooth="yes"/>
      <point x="360" y="491"/>
      <point x="361" y="509"/>
      <point x="367" y="531" type="curve" smooth="yes"/>
      <point x="384" y="599"/>
      <point x="403" y="629"/>
      <point x="440" y="629" type="curve" smooth="yes"/>
      <point x="469" y="629"/>
      <point x="479" y="608"/>
      <point x="479" y="575" type="curve" smooth="yes"/>
      <point x="479" y="558"/>
      <point x="478" y="539"/>
      <point x="472" y="518" type="curve" smooth="yes"/>
      <point x="455" y="447"/>
      <point x="434" y="420"/>
    </contour>
    <contour>
      <point x="327" y="81" type="curve" smooth="yes"/>
      <point x="292" y="81"/>
      <point x="277" y="106"/>
      <point x="277" y="148" type="curve" smooth="yes"/>
      <point x="277" y="169"/>
      <point x="279" y="188"/>
      <point x="286" y="217" type="curve" smooth="yes"/>
      <point x="306" y="299"/>
      <point x="333" y="332"/>
      <point x="378" y="332" type="curve" smooth="yes"/>
      <point x="415" y="332"/>
      <point x="428" y="308"/>
      <point x="428" y="270" type="curve" smooth="yes"/>
      <point x="428" y="248"/>
      <point x="427" y="228"/>
      <point x="419" y="195" type="curve" smooth="yes"/>
      <point x="399" y="118"/>
      <point x="374" y="81"/>
    </contour>
    <contour>
      <point x="339" y="-11" type="curve" smooth="yes"/>
      <point x="574" y="-11"/>
      <point x="698" y="88"/>
      <point x="698" y="210" type="curve" smooth="yes"/>
      <point x="698" y="293"/>
      <point x="635" y="353"/>
      <point x="499" y="381" type="curve"/>
      <point x="516" y="360" type="line"/>
      <point x="520" y="385" type="line"/>
      <point x="501" y="366" type="line"/>
      <point x="641" y="384"/>
      <point x="728" y="449"/>
      <point x="728" y="543" type="curve" smooth="yes"/>
      <point x="728" y="649"/>
      <point x="618" y="720"/>
      <point x="434" y="720" type="curve" smooth="yes"/>
      <point x="237" y="720"/>
      <point x="111" y="646"/>
      <point x="111" y="535" type="curve" smooth="yes"/>
      <point x="111" y="458"/>
      <point x="176" y="401"/>
      <point x="281" y="376" type="curve"/>
      <point x="256" y="401" type="line"/>
      <point x="248" y="371" type="line"/>
      <point x="279" y="393" type="line"/>
      <point x="102" y="379"/>
      <point x="7" y="302"/>
      <point x="7" y="192" type="curve" smooth="yes"/>
      <point x="7" y="69"/>
      <point x="135" y="-11"/>
    </contour>
  </outline>
</glyph>
<glyph name="eight.lintab" format="2">
  <advance width="661"/>
  <outline>
    <contour>
      <point x="298" y="83" type="curve" smooth="yes"/>
      <point x="275" y="83"/>
      <point x="266" y="109"/>
      <point x="266" y="150" type="curve" smooth="yes"/>
      <point x="266" y="171"/>
      <point x="269" y="191"/>
      <point x="274" y="216" type="curve" smooth="yes"/>
      <point x="291" y="299"/>
      <point x="308" y="332"/>
      <point x="339" y="332" type="curve" smooth="yes"/>
      <point x="365" y="332"/>
      <point x="372" y="308"/>
      <point x="372" y="271" type="curve" smooth="yes"/>
      <point x="372" y="249"/>
      <point x="369" y="226"/>
      <point x="363" y="198" type="curve" smooth="yes"/>
      <point x="346" y="121"/>
      <point x="325" y="83"/>
    </contour>
    <contour>
      <point x="368" y="420" type="curve" smooth="yes"/>
      <point x="347" y="420"/>
      <point x="337" y="440"/>
      <point x="337" y="474" type="curve" smooth="yes"/>
      <point x="337" y="492"/>
      <point x="340" y="510"/>
      <point x="345" y="533" type="curve" smooth="yes"/>
      <point x="359" y="600"/>
      <point x="375" y="627"/>
      <point x="399" y="627" type="curve" smooth="yes"/>
      <point x="422" y="627"/>
      <point x="431" y="606"/>
      <point x="431" y="573" type="curve" smooth="yes"/>
      <point x="431" y="555"/>
      <point x="428" y="538"/>
      <point x="424" y="517" type="curve" smooth="yes"/>
      <point x="409" y="446"/>
      <point x="392" y="420"/>
    </contour>
    <contour>
      <point x="312" y="-11" type="curve" smooth="yes"/>
      <point x="517" y="-11"/>
      <point x="642" y="88"/>
      <point x="642" y="213" type="curve" smooth="yes"/>
      <point x="642" y="288"/>
      <point x="592" y="350"/>
      <point x="480" y="378" type="curve"/>
      <point x="505" y="361" type="line"/>
      <point x="512" y="384" type="line"/>
      <point x="478" y="367" type="line"/>
      <point x="603" y="386"/>
      <point x="679" y="450"/>
      <point x="679" y="544" type="curve" smooth="yes"/>
      <point x="679" y="648"/>
      <point x="568" y="720"/>
      <point x="392" y="720" type="curve" smooth="yes"/>
      <point x="207" y="720"/>
      <point x="89" y="645"/>
      <point x="89" y="537" type="curve" smooth="yes"/>
      <point x="89" y="456"/>
      <point x="157" y="397"/>
      <point x="268" y="373" type="curve"/>
      <point x="211" y="399" type="line"/>
      <point x="201" y="379" type="line"/>
      <point x="270" y="394" type="line"/>
      <point x="90" y="385"/>
      <point x="-4" y="307"/>
      <point x="-4" y="201" type="curve" smooth="yes"/>
      <point x="-4" y="71"/>
      <point x="121" y="-11"/>
    </contour>
  </outline>
</glyph>
<glyph name="eight.midprop" format="2">
  <advance width="762"/>
  <outline>
    <contour>
      <point x="342" y="81" type="curve" smooth="yes"/>
      <point x="304" y="81"/>
      <point x="288" y="107"/>
      <point x="288" y="148" type="curve" smooth="yes"/>
      <point x="288" y="170"/>
      <point x="291" y="188"/>
      <point x="298" y="217" type="curve" smooth="yes"/>
      <point x="320" y="299"/>
      <point x="347" y="332"/>
      <point x="395" y="332" type="curve" smooth="yes"/>
      <point x="434" y="332"/>
      <point x="450" y="307"/>
      <point x="450" y="269" type="curve" smooth="yes"/>
      <point x="450" y="247"/>
      <point x="447" y="228"/>
      <point x="439" y="195" type="curve" smooth="yes"/>
      <point x="418" y="118"/>
      <point x="394" y="81"/>
    </contour>
    <contour>
      <point x="421" y="420" type="curve" smooth="yes"/>
      <point x="388" y="420"/>
      <point x="376" y="441"/>
      <point x="376" y="475" type="curve" smooth="yes"/>
      <point x="376" y="492"/>
      <point x="378" y="509"/>
      <point x="384" y="531" type="curve" smooth="yes"/>
      <point x="402" y="599"/>
      <point x="423" y="629"/>
      <point x="461" y="629" type="curve" smooth="yes"/>
      <point x="493" y="629"/>
      <point x="506" y="608"/>
      <point x="506" y="574" type="curve" smooth="yes"/>
      <point x="506" y="557"/>
      <point x="503" y="539"/>
      <point x="498" y="518" type="curve" smooth="yes"/>
      <point x="479" y="447"/>
      <point x="456" y="420"/>
    </contour>
    <contour>
      <point x="355" y="-11" type="curve" smooth="yes"/>
      <point x="595" y="-11"/>
      <point x="720" y="89"/>
      <point x="720" y="211" type="curve" smooth="yes"/>
      <point x="720" y="294"/>
      <point x="655" y="353"/>
      <point x="516" y="381" type="curve"/>
      <point x="532" y="360" type="line"/>
      <point x="537" y="385" type="line"/>
      <point x="521" y="366" type="line"/>
      <point x="663" y="384"/>
      <point x="756" y="452"/>
      <point x="756" y="550" type="curve" smooth="yes"/>
      <point x="756" y="652"/>
      <point x="649" y="720"/>
      <point x="467" y="720" type="curve"/>
      <point x="247" y="720"/>
      <point x="129" y="639"/>
      <point x="129" y="531" type="curve" smooth="yes"/>
      <point x="129" y="452"/>
      <point x="194" y="399"/>
      <point x="302" y="374" type="curve"/>
      <point x="272" y="401" type="line"/>
      <point x="264" y="371" type="line"/>
      <point x="295" y="393" type="line"/>
      <point x="115" y="379"/>
      <point x="19" y="302"/>
      <point x="19" y="192" type="curve" smooth="yes"/>
      <point x="19" y="69"/>
      <point x="149" y="-11"/>
    </contour>
  </outline>
</glyph>
<glyph name="eight.oldprop" format="2">
  <advance width="762"/>
  <outline>
    <contour>
      <point x="351" y="81" type="curve" smooth="yes"/>
      <point x="313" y="81"/>
      <point x="296" y="107"/>
      <point x="296" y="148" type="curve" smooth="yes"/>
      <point x="296" y="170"/>
      <point x="300" y="188"/>
      <point x="306" y="217" type="curve" smooth="yes"/>
      <point x="328" y="299"/>
      <point x="356" y="332"/>
      <point x="403" y="332" type="curve" smooth="yes"/>
      <point x="442" y="332"/>
      <point x="458" y="307"/>
      <point x="458" y="269" type="curve" smooth="yes"/>
      <point x="458" y="247"/>
      <point x="456" y="228"/>
      <point x="447" y="195" type="curve" smooth="yes"/>
      <point x="427" y="118"/>
      <point x="402" y="81"/>
    </contour>
    <contour>
      <point x="429" y="420" type="curve" smooth="yes"/>
      <point x="396" y="420"/>
      <point x="384" y="441"/>
      <point x="384" y="475" type="curve" smooth="yes"/>
      <point x="384" y="492"/>
      <point x="387" y="509"/>
      <point x="392" y="531" type="curve" smooth="yes"/>
      <point x="410" y="599"/>
      <point x="431" y="629"/>
      <point x="469" y="629" type="curve" smooth="yes"/>
      <point x="501" y="629"/>
      <point x="514" y="608"/>
      <point x="514" y="574" type="curve" smooth="yes"/>
      <point x="514" y="557"/>
      <point x="512" y="539"/>
      <point x="506" y="518" type="curve" smooth="yes"/>
      <point x="487" y="447"/>
      <point x="465" y="420"/>
    </contour>
    <contour>
      <point x="364" y="-11" type="curve" smooth="yes"/>
      <point x="603" y="-11"/>
      <point x="728" y="89"/>
      <point x="728" y="211" type="curve" smooth="yes"/>
      <point x="728" y="294"/>
      <point x="663" y="353"/>
      <point x="524" y="381" type="curve"/>
      <point x="540" y="360" type="line"/>
      <point x="545" y="385" type="line"/>
      <point x="530" y="366" type="line"/>
      <point x="671" y="384"/>
      <point x="764" y="452"/>
      <point x="764" y="550" type="curve" smooth="yes"/>
      <point x="764" y="652"/>
      <point x="658" y="720"/>
      <point x="476" y="720" type="curve"/>
      <point x="255" y="720"/>
      <point x="137" y="639"/>
      <point x="137" y="531" type="curve" smooth="yes"/>
      <point x="137" y="452"/>
      <point x="203" y="399"/>
      <point x="311" y="374" type="curve"/>
      <point x="281" y="401" type="line"/>
      <point x="272" y="371" type="line"/>
      <point x="303" y="393" type="line"/>
      <point x="123" y="379"/>
      <point x="27" y="302"/>
      <point x="27" y="192" type="curve" smooth="yes"/>
      <point x="27" y="69"/>
      <point x="157" y="-11"/>
    </contour>
  </outline>
</glyph>
<glyph name="f.short" format="2">
  <advance width="540"/>
  <outline>
    <contour>
      <point x="52" y="513" type="line"/>
      <point x="35" y="433" type="line"/>
      <point x="543" y="433" type="line"/>
      <point x="561" y="513" type="line"/>
    </contour>
    <contour>
      <point x="257" y="-223" type="line"/>
      <point x="456" y="570" type="line" smooth="yes"/>
      <point x="468" y="627"/>
      <point x="488" y="650"/>
      <point x="529" y="650" type="curve" smooth="yes"/>
      <point x="551" y="650"/>
      <point x="575" y="644"/>
      <point x="583" y="641" type="curve"/>
      <point x="602" y="720" type="line"/>
      <point x="583" y="725"/>
      <point x="540" y="735"/>
      <point x="457" y="735" type="curve" smooth="yes"/>
      <point x="280" y="735"/>
      <point x="177" y="672"/>
      <point x="157" y="532" type="curve" smooth="yes"/>
      <point x="47" y="-223" type="line"/>
    </contour>
  </outline>
</glyph>
<glyph name="f_b" format="2">
  <advance width="1270"/>
  <outline>
    <contour>
      <point x="52" y="513" type="line"/>
      <point x="35" y="433" type="line"/>
      <point x="503" y="433" type="line"/>
      <point x="521" y="513" type="line"/>
    </contour>
    <contour>
      <point x="848" y="-14" type="curve" smooth="yes"/>
      <point x="1104" y="-14"/>
      <point x="1246" y="142"/>
      <point x="1246" y="315" type="curve" smooth="yes"/>
      <point x="1246" y="446"/>
      <point x="1157" y="523"/>
      <point x="1042" y="523" type="curve" smooth="yes"/>
      <point x="909" y="523"/>
      <point x="837" y="438"/>
      <point x="762" y="312" type="curve"/>
      <point x="785" y="289" type="line"/>
      <point x="827" y="370"/>
      <point x="860" y="415"/>
      <point x="903" y="415" type="curve" smooth="yes"/>
      <point x="934" y="415"/>
      <point x="949" y="390"/>
      <point x="949" y="329" type="curve" smooth="yes"/>
      <point x="949" y="230"/>
      <point x="913" y="67"/>
      <point x="818" y="67" type="curve" smooth="yes"/>
      <point x="769" y="67"/>
      <point x="751" y="100"/>
      <point x="755" y="146" type="curve"/>
      <point x="702" y="115"/>
      <point x="710" y="85"/>
      <point x="778" y="59" type="curve"/>
      <point x="914" y="735" type="line"/>
      <point x="576" y="735" type="line"/>
      <point x="608" y="678" type="line"/>
      <point x="485" y="69" type="line"/>
      <point x="551" y="27"/>
      <point x="671" y="-14"/>
    </contour>
    <contour>
      <point x="548" y="662" type="curve" smooth="yes"/>
      <point x="599" y="662"/>
      <point x="631" y="633"/>
      <point x="640" y="584" type="curve"/>
      <point x="819" y="693" type="line"/>
      <point x="753" y="719"/>
      <point x="650" y="748"/>
      <point x="531" y="748" type="curve" smooth="yes"/>
      <point x="326" y="748"/>
      <point x="180" y="692"/>
      <point x="153" y="513" type="curve" smooth="yes"/>
      <point x="47" y="-223" type="line"/>
      <point x="257" y="-223" type="line"/>
      <point x="454" y="563" type="line" smooth="yes"/>
      <point x="471" y="636"/>
      <point x="499" y="662"/>
    </contour>
  </outline>
</glyph>
<glyph name="f_f.short" format="2">
  <advance width="951"/>
  <outline>
    <contour>
      <point x="463" y="513" type="line"/>
      <point x="446" y="433" type="line"/>
      <point x="954" y="433" type="line"/>
      <point x="972" y="513" type="line"/>
    </contour>
    <contour>
      <point x="672" y="-198" type="line"/>
      <point x="868" y="570" type="line" smooth="yes"/>
      <point x="880" y="627"/>
      <point x="899" y="650"/>
      <point x="940" y="650" type="curve" smooth="yes"/>
      <point x="962" y="650"/>
      <point x="986" y="644"/>
      <point x="994" y="641" type="curve"/>
      <point x="1013" y="720" type="line"/>
      <point x="994" y="725"/>
      <point x="951" y="735"/>
      <point x="868" y="735" type="curve" smooth="yes"/>
      <point x="692" y="735"/>
      <point x="588" y="672"/>
      <point x="568" y="532" type="curve" smooth="yes"/>
      <point x="463" y="-198" type="line"/>
    </contour>
    <contour>
      <point x="52" y="513" type="line"/>
      <point x="35" y="433" type="line"/>
      <point x="605" y="433" type="line"/>
      <point x="623" y="513" type="line"/>
    </contour>
    <contour>
      <point x="257" y="-223" type="line"/>
      <point x="460" y="579" type="line" smooth="yes"/>
      <point x="468" y="626"/>
      <point x="487" y="647"/>
      <point x="523" y="647" type="curve" smooth="yes"/>
      <point x="541" y="647"/>
      <point x="555" y="642"/>
      <point x="561" y="639" type="curve"/>
      <point x="580" y="717" type="line"/>
      <point x="565" y="723"/>
      <point x="517" y="733"/>
      <point x="449" y="733" type="curve" smooth="yes"/>
      <point x="272" y="733"/>
      <point x="177" y="670"/>
      <point x="157" y="530" type="curve" smooth="yes"/>
      <point x="47" y="-223" type="line"/>
    </contour>
  </outline>
</glyph>
<glyph name="f_f_b.alt" format="2">
  <advance width="1681"/>
  <outline>
    <contour>
      <point x="52" y="513" type="line"/>
      <point x="35" y="433" type="line"/>
      <point x="605" y="433" type="line"/>
      <point x="623" y="513" type="line"/>
    </contour>
    <contour>
      <point x="463" y="513" type="line"/>
      <point x="446" y="433" type="line"/>
      <point x="915" y="433" type="line"/>
      <point x="933" y="513" type="line"/>
    </contour>
    <contour>
      <point x="1259" y="-14" type="curve" smooth="yes"/>
      <point x="1515" y="-14"/>
      <point x="1658" y="142"/>
      <point x="1658" y="315" type="curve" smooth="yes"/>
      <point x="1658" y="446"/>
      <point x="1568" y="523"/>
      <point x="1454" y="523" type="curve" smooth="yes"/>
      <point x="1320" y="523"/>
      <point x="1248" y="438"/>
      <point x="1173" y="312" type="curve"/>
      <point x="1196" y="289" type="line"/>
      <point x="1238" y="370"/>
      <point x="1272" y="415"/>
      <point x="1314" y="415" type="curve" smooth="yes"/>
      <point x="1345" y="415"/>
      <point x="1361" y="390"/>
      <point x="1361" y="329" type="curve" smooth="yes"/>
      <point x="1361" y="230"/>
      <point x="1324" y="67"/>
      <point x="1230" y="67" type="curve" smooth="yes"/>
      <point x="1180" y="67"/>
      <point x="1162" y="100"/>
      <point x="1166" y="146" type="curve"/>
      <point x="1113" y="115"/>
      <point x="1121" y="85"/>
      <point x="1189" y="59" type="curve"/>
      <point x="1325" y="735" type="line"/>
      <point x="987" y="735" type="line"/>
      <point x="1019" y="678" type="line"/>
      <point x="897" y="69" type="line"/>
      <point x="962" y="27"/>
      <point x="1083" y="-14"/>
    </contour>
    <contour>
      <point x="548" y="644" type="curve" smooth="yes"/>
      <point x="588" y="644"/>
      <point x="607" y="627"/>
      <point x="607" y="612" type="curve"/>
      <point x="641" y="618"/>
      <point x="639" y="686"/>
      <point x="590" y="684" type="curve"/>
      <point x="557" y="470" type="line"/>
      <point x="769" y="570" type="line"/>
      <point x="788" y="649" type="line"/>
      <point x="748" y="694"/>
      <point x="650" y="728"/>
      <point x="513" y="728" type="curve" smooth="yes"/>
      <point x="307" y="728"/>
      <point x="179" y="674"/>
      <point x="150" y="496" type="curve" smooth="yes"/>
      <point x="47" y="-223" type="line"/>
      <point x="257" y="-223" type="line"/>
      <point x="447" y="535" type="line" smooth="yes"/>
      <point x="466" y="611"/>
      <point x="487" y="644"/>
    </contour>
    <contour>
      <point x="959" y="662" type="curve" smooth="yes"/>
      <point x="1010" y="662"/>
      <point x="1042" y="633"/>
      <point x="1051" y="584" type="curve"/>
      <point x="1230" y="693" type="line"/>
      <point x="1164" y="719"/>
      <point x="1061" y="748"/>
      <point x="942" y="748" type="curve" smooth="yes"/>
      <point x="737" y="748"/>
      <point x="591" y="692"/>
      <point x="564" y="513" type="curve" smooth="yes"/>
      <point x="463" y="-193" type="line"/>
      <point x="672" y="-193" type="line"/>
      <point x="865" y="563" type="line" smooth="yes"/>
      <point x="882" y="636"/>
      <point x="910" y="662"/>
    </contour>
  </outline>
</glyph>
<glyph name="f_f_b" format="2">
  <advance width="1681"/>
  <outline>
    <contour>
      <point x="52" y="513" type="line"/>
      <point x="35" y="433" type="line"/>
      <point x="605" y="433" type="line"/>
      <point x="623" y="513" type="line"/>
    </contour>
    <contour>
      <point x="463" y="513" type="line"/>
      <point x="446" y="433" type="line"/>
      <point x="915" y="433" type="line"/>
      <point x="933" y="513" type="line"/>
    </contour>
    <contour>
      <point x="1259" y="-14" type="curve" smooth="yes"/>
      <point x="1515" y="-14"/>
      <point x="1658" y="142"/>
      <point x="1658" y="315" type="curve" smooth="yes"/>
      <point x="1658" y="446"/>
      <point x="1568" y="523"/>
      <point x="1454" y="523" type="curve" smooth="yes"/>
      <point x="1320" y="523"/>
      <point x="1248" y="438"/>
      <point x="1173" y="312" type="curve"/>
      <point x="1196" y="289" type="line"/>
      <point x="1238" y="370"/>
      <point x="1272" y="415"/>
      <point x="1314" y="415" type="curve" smooth="yes"/>
      <point x="1345" y="415"/>
      <point x="1361" y="390"/>
      <point x="1361" y="329" type="curve" smooth="yes"/>
      <point x="1361" y="230"/>
      <point x="1324" y="67"/>
      <point x="1230" y="67" type="curve" smooth="yes"/>
      <point x="1180" y="67"/>
      <point x="1162" y="100"/>
      <point x="1166" y="146" type="curve"/>
      <point x="1113" y="115"/>
      <point x="1121" y="85"/>
      <point x="1189" y="59" type="curve"/>
      <point x="1325" y="735" type="line"/>
      <point x="987" y="735" type="line"/>
      <point x="1019" y="678" type="line"/>
      <point x="897" y="69" type="line"/>
      <point x="962" y="27"/>
      <point x="1083" y="-14"/>
    </contour>
    <contour>
      <point x="959" y="662" type="curve" smooth="yes"/>
      <point x="1010" y="662"/>
      <point x="1042" y="633"/>
      <point x="1051" y="584" type="curve"/>
      <point x="1230" y="693" type="line"/>
      <point x="1164" y="719"/>
      <point x="1061" y="748"/>
      <point x="942" y="748" type="curve" smooth="yes"/>
      <point x="737" y="748"/>
      <point x="591" y="692"/>
      <point x="564" y="513" type="curve" smooth="yes"/>
      <point x="463" y="-193" type="line"/>
      <point x="672" y="-193" type="line"/>
      <point x="865" y="563" type="line" smooth="yes"/>
      <point x="882" y="636"/>
      <point x="910" y="662"/>
    </contour>
    <contour>
      <point x="523" y="647" type="curve" smooth="yes"/>
      <point x="541" y="647"/>
      <point x="555" y="642"/>
      <point x="561" y="639" type="curve"/>
      <point x="580" y="717" type="line"/>
      <point x="565" y="723"/>
      <point x="517" y="733"/>
      <point x="449" y="733" type="curve" smooth="yes"/>
      <point x="272" y="733"/>
      <point x="177" y="670"/>
      <point x="157" y="530" type="curve" smooth="yes"/>
      <point x="47" y="-223" type="line"/>
      <point x="257" y="-223" type="line"/>
      <point x="460" y="579" type="line" smooth="yes"/>
      <point x="468" y="626"/>
      <point x="487" y="647"/>
    </contour>
  </outline>
</glyph>
<glyph name="f_f_h.alt" format="2">
  <advance width="1676"/>
  <outline>
    <contour>
      <point x="463" y="513" type="line"/>
      <point x="446" y="433" type="line"/>
      <point x="915" y="433" type="line"/>
      <point x="933" y="513" type="line"/>
    </contour>
    <contour>
      <point x="672" y="-193" type="line"/>
      <point x="865" y="563" type="line" smooth="yes"/>
      <point x="882" y="636"/>
      <point x="910" y="662"/>
      <point x="959" y="662" type="curve" smooth="yes"/>
      <point x="1010" y="662"/>
      <point x="1042" y="633"/>
      <point x="1051" y="584" type="curve"/>
      <point x="1230" y="693" type="line"/>
      <point x="1164" y="719"/>
      <point x="1061" y="748"/>
      <point x="942" y="748" type="curve" smooth="yes"/>
      <point x="737" y="748"/>
      <point x="591" y="692"/>
      <point x="564" y="513" type="curve" smooth="yes"/>
      <point x="463" y="-193" type="line"/>
    </contour>
    <contour>
      <point x="1171" y="0" type="line"/>
      <point x="1328" y="735" type="line"/>
      <point x="989" y="735" type="line"/>
      <point x="1021" y="678" type="line"/>
      <point x="879" y="0" type="line"/>
    </contour>
    <contour>
      <point x="1326" y="233" type="line" smooth="yes"/>
      <point x="1311" y="174"/>
      <point x="1307" y="141"/>
      <point x="1307" y="114" type="curve" smooth="yes"/>
      <point x="1307" y="29"/>
      <point x="1378" y="-11"/>
      <point x="1482" y="-11" type="curve" smooth="yes"/>
      <point x="1550" y="-11"/>
      <point x="1608" y="5"/>
      <point x="1637" y="20" type="curve"/>
      <point x="1655" y="96" type="line"/>
      <point x="1652" y="95"/>
      <point x="1637" y="88"/>
      <point x="1620" y="88" type="curve" smooth="yes"/>
      <point x="1601" y="88"/>
      <point x="1590" y="94"/>
      <point x="1590" y="111" type="curve" smooth="yes"/>
      <point x="1590" y="129"/>
      <point x="1600" y="161"/>
      <point x="1610" y="205" type="curve" smooth="yes"/>
      <point x="1626" y="289" type="line" smooth="yes"/>
      <point x="1641" y="343"/>
      <point x="1647" y="375"/>
      <point x="1647" y="403" type="curve" smooth="yes"/>
      <point x="1647" y="475"/>
      <point x="1590" y="523"/>
      <point x="1482" y="523" type="curve" smooth="yes"/>
      <point x="1348" y="523"/>
      <point x="1270" y="449"/>
      <point x="1195" y="341" type="curve"/>
      <point x="1203" y="288" type="line"/>
      <point x="1237" y="359"/>
      <point x="1288" y="409"/>
      <point x="1324" y="409" type="curve" smooth="yes"/>
      <point x="1344" y="409"/>
      <point x="1352" y="395"/>
      <point x="1352" y="375" type="curve" smooth="yes"/>
      <point x="1352" y="359"/>
      <point x="1348" y="339"/>
      <point x="1340" y="310" type="curve" smooth="yes"/>
    </contour>
    <contour>
      <point x="52" y="513" type="line"/>
      <point x="35" y="433" type="line"/>
      <point x="605" y="433" type="line"/>
      <point x="623" y="513" type="line"/>
    </contour>
    <contour>
      <point x="788" y="649" type="line"/>
      <point x="748" y="694"/>
      <point x="650" y="728"/>
      <point x="513" y="728" type="curve" smooth="yes"/>
      <point x="307" y="728"/>
      <point x="179" y="674"/>
      <point x="150" y="496" type="curve" smooth="yes"/>
      <point x="47" y="-223" type="line"/>
      <point x="257" y="-223" type="line"/>
      <point x="447" y="535" type="line" smooth="yes"/>
      <point x="466" y="611"/>
      <point x="487" y="644"/>
      <point x="548" y="644" type="curve" smooth="yes"/>
      <point x="588" y="644"/>
      <point x="607" y="627"/>
      <point x="607" y="612" type="curve"/>
      <point x="641" y="618"/>
      <point x="639" y="686"/>
      <point x="590" y="684" type="curve"/>
      <point x="557" y="470" type="line"/>
      <point x="769" y="570" type="line"/>
    </contour>
  </outline>
</glyph>
<glyph name="f_f_i.alt" format="2">
  <advance width="1288"/>
  <outline>
    <contour>
      <point x="52" y="513" type="line"/>
      <point x="35" y="433" type="line"/>
      <point x="605" y="433" type="line"/>
      <point x="623" y="513" type="line"/>
    </contour>
    <contour>
      <point x="994" y="664" type="curve" smooth="yes"/>
      <point x="1048" y="664"/>
      <point x="1077" y="645"/>
      <point x="1091" y="630" type="curve"/>
      <point x="1111" y="636"/>
      <point x="1104" y="688"/>
      <point x="1056" y="689" type="curve"/>
      <point x="1037" y="580" type="line"/>
      <point x="1236" y="580" type="line"/>
      <point x="1258" y="702" type="line"/>
      <point x="1217" y="720"/>
      <point x="1114" y="748"/>
      <point x="971" y="748" type="curve" smooth="yes"/>
      <point x="726" y="748"/>
      <point x="590" y="683"/>
      <point x="564" y="515" type="curve" smooth="yes"/>
      <point x="462" y="-198" type="line"/>
      <point x="671" y="-198" type="line"/>
      <point x="863" y="559" type="line" smooth="yes"/>
      <point x="882" y="635"/>
      <point x="917" y="664"/>
    </contour>
    <contour>
      <point x="463" y="513" type="line"/>
      <point x="446" y="433" type="line"/>
      <point x="934" y="433" type="line"/>
      <point x="960" y="433"/>
      <point x="970" y="423"/>
      <point x="965" y="403" type="curve" smooth="yes"/>
      <point x="930" y="233" type="line" smooth="yes"/>
      <point x="917" y="174"/>
      <point x="910" y="143"/>
      <point x="910" y="115" type="curve" smooth="yes"/>
      <point x="910" y="31"/>
      <point x="987" y="-11"/>
      <point x="1091" y="-11" type="curve" smooth="yes"/>
      <point x="1161" y="-11"/>
      <point x="1222" y="5"/>
      <point x="1246" y="18" type="curve"/>
      <point x="1264" y="96" type="line"/>
      <point x="1259" y="95"/>
      <point x="1245" y="88"/>
      <point x="1227" y="88" type="curve" smooth="yes"/>
      <point x="1207" y="88"/>
      <point x="1197" y="94"/>
      <point x="1197" y="111" type="curve" smooth="yes"/>
      <point x="1197" y="129"/>
      <point x="1205" y="161"/>
      <point x="1215" y="205" type="curve" smooth="yes"/>
      <point x="1279" y="513" type="line"/>
    </contour>
    <contour>
      <point x="548" y="644" type="curve" smooth="yes"/>
      <point x="588" y="644"/>
      <point x="607" y="627"/>
      <point x="607" y="612" type="curve"/>
      <point x="641" y="618"/>
      <point x="639" y="683"/>
      <point x="590" y="681" type="curve"/>
      <point x="557" y="470" type="line"/>
      <point x="769" y="570" type="line"/>
      <point x="788" y="649" type="line"/>
      <point x="748" y="694"/>
      <point x="650" y="728"/>
      <point x="513" y="728" type="curve" smooth="yes"/>
      <point x="307" y="728"/>
      <point x="179" y="674"/>
      <point x="150" y="496" type="curve" smooth="yes"/>
      <point x="47" y="-223" type="line"/>
      <point x="257" y="-223" type="line"/>
      <point x="447" y="535" type="line" smooth="yes"/>
      <point x="466" y="611"/>
      <point x="487" y="644"/>
    </contour>
  </outline>
</glyph>
<glyph name="f_f_j" format="2">
  <advance width="1274"/>
  <outline>
    <contour>
      <point x="52" y="513" type="line"/>
      <point x="35" y="433" type="line"/>
      <point x="605" y="433" type="line"/>
      <point x="623" y="513" type="line"/>
    </contour>
    <contour>
      <point x="257" y="-223" type="line"/>
      <point x="460" y="579" type="line" smooth="yes"/>
      <point x="468" y="626"/>
      <point x="487" y="647"/>
      <point x="523" y="647" type="curve" smooth="yes"/>
      <point x="541" y="647"/>
      <point x="555" y="642"/>
      <point x="561" y="639" type="curve"/>
      <point x="580" y="717" type="line"/>
      <point x="565" y="723"/>
      <point x="517" y="733"/>
      <point x="449" y="733" type="curve" smooth="yes"/>
      <point x="272" y="733"/>
      <point x="177" y="670"/>
      <point x="157" y="530" type="curve" smooth="yes"/>
      <point x="47" y="-223" type="line"/>
    </contour>
    <contour>
      <point x="671" y="-193" type="line"/>
      <point x="872" y="584" type="line" smooth="yes"/>
      <point x="883" y="636"/>
      <point x="895" y="650"/>
      <point x="923" y="650" type="curve" smooth="yes"/>
      <point x="933" y="650"/>
      <point x="939" y="648"/>
      <point x="946" y="646" type="curve"/>
      <point x="965" y="725" type="line"/>
      <point x="939" y="730"/>
      <point x="906" y="735"/>
      <point x="852" y="735" type="curve" smooth="yes"/>
      <point x="689" y="735"/>
      <point x="588" y="673"/>
      <point x="568" y="536" type="curve" smooth="yes"/>
      <point x="462" y="-193" type="line"/>
    </contour>
    <contour>
      <point x="1135" y="568" type="curve" smooth="yes"/>
      <point x="1236" y="568"/>
      <point x="1295" y="605"/>
      <point x="1295" y="664" type="curve" smooth="yes"/>
      <point x="1295" y="716"/>
      <point x="1245" y="749"/>
      <point x="1150" y="749" type="curve" smooth="yes"/>
      <point x="1048" y="749"/>
      <point x="989" y="712"/>
      <point x="989" y="654" type="curve" smooth="yes"/>
      <point x="989" y="601"/>
      <point x="1040" y="568"/>
    </contour>
    <contour>
      <point x="463" y="513" type="line"/>
      <point x="446" y="433" type="line"/>
      <point x="934" y="433" type="line" smooth="yes"/>
      <point x="960" y="433"/>
      <point x="970" y="423"/>
      <point x="965" y="403" type="curve" smooth="yes"/>
      <point x="880" y="-1" type="line" smooth="yes"/>
      <point x="856" y="-110"/>
      <point x="836" y="-144"/>
      <point x="792" y="-144" type="curve" smooth="yes"/>
      <point x="773" y="-144"/>
      <point x="752" y="-137"/>
      <point x="749" y="-136" type="curve"/>
      <point x="722" y="-219" type="line"/>
      <point x="745" y="-227"/>
      <point x="800" y="-236"/>
      <point x="853" y="-236" type="curve" smooth="yes"/>
      <point x="1033" y="-236"/>
      <point x="1136" y="-180"/>
      <point x="1178" y="9" type="curve" smooth="yes"/>
      <point x="1279" y="513" type="line"/>
    </contour>
  </outline>
</glyph>
<glyph name="f_f_l.alt" format="2">
  <advance width="1284"/>
  <outline>
    <contour>
      <point x="52" y="513" type="line"/>
      <point x="35" y="433" type="line"/>
      <point x="605" y="433" type="line"/>
      <point x="623" y="513" type="line"/>
    </contour>
    <contour>
      <point x="463" y="513" type="line"/>
      <point x="446" y="433" type="line"/>
      <point x="915" y="433" type="line"/>
      <point x="933" y="513" type="line"/>
    </contour>
    <contour>
      <point x="1215" y="192" type="curve" smooth="yes"/>
      <point x="1324" y="732" type="line"/>
      <point x="1000" y="732" type="line"/>
      <point x="1025" y="691" type="line"/>
      <point x="930" y="220" type="line" smooth="yes"/>
      <point x="917" y="169"/>
      <point x="910" y="139"/>
      <point x="910" y="112" type="curve" smooth="yes"/>
      <point x="910" y="29"/>
      <point x="987" y="-14"/>
      <point x="1091" y="-14" type="curve" smooth="yes"/>
      <point x="1162" y="-14"/>
      <point x="1222" y="2"/>
      <point x="1246" y="15" type="curve"/>
      <point x="1265" y="92" type="line"/>
      <point x="1260" y="91"/>
      <point x="1245" y="84"/>
      <point x="1227" y="84" type="curve" smooth="yes"/>
      <point x="1207" y="84"/>
      <point x="1197" y="90"/>
      <point x="1197" y="108" type="curve" smooth="yes"/>
      <point x="1197" y="124"/>
      <point x="1205" y="153"/>
    </contour>
    <contour>
      <point x="548" y="644" type="curve" smooth="yes"/>
      <point x="588" y="644"/>
      <point x="607" y="627"/>
      <point x="607" y="612" type="curve"/>
      <point x="641" y="618"/>
      <point x="639" y="686"/>
      <point x="590" y="684" type="curve"/>
      <point x="557" y="470" type="line"/>
      <point x="769" y="570" type="line"/>
      <point x="788" y="649" type="line"/>
      <point x="748" y="694"/>
      <point x="650" y="728"/>
      <point x="513" y="728" type="curve" smooth="yes"/>
      <point x="307" y="728"/>
      <point x="179" y="674"/>
      <point x="150" y="496" type="curve" smooth="yes"/>
      <point x="47" y="-223" type="line"/>
      <point x="257" y="-223" type="line"/>
      <point x="447" y="535" type="line" smooth="yes"/>
      <point x="466" y="611"/>
      <point x="487" y="644"/>
    </contour>
    <contour>
      <point x="959" y="662" type="curve" smooth="yes"/>
      <point x="1010" y="662"/>
      <point x="1042" y="633"/>
      <point x="1051" y="584" type="curve"/>
      <point x="1230" y="693" type="line"/>
      <point x="1164" y="719"/>
      <point x="1061" y="748"/>
      <point x="942" y="748" type="curve" smooth="yes"/>
      <point x="737" y="748"/>
      <point x="591" y="692"/>
      <point x="564" y="513" type="curve" smooth="yes"/>
      <point x="463" y="-193" type="line"/>
      <point x="672" y="-193" type="line"/>
      <point x="865" y="563" type="line" smooth="yes"/>
      <point x="882" y="636"/>
      <point x="910" y="662"/>
    </contour>
  </outline>
</glyph>
<glyph name="f_h" format="2">
  <advance width="1265"/>
  <outline>
    <contour>
      <point x="52" y="513" type="line"/>
      <point x="35" y="433" type="line"/>
      <point x="503" y="433" type="line"/>
      <point x="521" y="513" type="line"/>
    </contour>
    <contour>
      <point x="759" y="0" type="line"/>
      <point x="916" y="735" type="line"/>
      <point x="578" y="735" type="line"/>
      <point x="610" y="678" type="line"/>
      <point x="468" y="0" type="line"/>
    </contour>
    <contour>
      <point x="914" y="233" type="line" smooth="yes"/>
      <point x="900" y="174"/>
      <point x="895" y="141"/>
      <point x="895" y="114" type="curve" smooth="yes"/>
      <point x="895" y="29"/>
      <point x="966" y="-11"/>
      <point x="1071" y="-11" type="curve" smooth="yes"/>
      <point x="1139" y="-11"/>
      <point x="1197" y="5"/>
      <point x="1226" y="20" type="curve"/>
      <point x="1244" y="96" type="line"/>
      <point x="1241" y="95"/>
      <point x="1226" y="88"/>
      <point x="1208" y="88" type="curve" smooth="yes"/>
      <point x="1189" y="88"/>
      <point x="1179" y="94"/>
      <point x="1179" y="111" type="curve" smooth="yes"/>
      <point x="1179" y="129"/>
      <point x="1188" y="161"/>
      <point x="1199" y="205" type="curve" smooth="yes"/>
      <point x="1215" y="289" type="line" smooth="yes"/>
      <point x="1230" y="343"/>
      <point x="1235" y="375"/>
      <point x="1235" y="403" type="curve" smooth="yes"/>
      <point x="1235" y="475"/>
      <point x="1179" y="523"/>
      <point x="1071" y="523" type="curve" smooth="yes"/>
      <point x="936" y="523"/>
      <point x="858" y="449"/>
      <point x="783" y="341" type="curve"/>
      <point x="791" y="288" type="line"/>
      <point x="826" y="359"/>
      <point x="876" y="409"/>
      <point x="913" y="409" type="curve" smooth="yes"/>
      <point x="933" y="409"/>
      <point x="941" y="395"/>
      <point x="941" y="375" type="curve" smooth="yes"/>
      <point x="941" y="359"/>
      <point x="937" y="339"/>
      <point x="929" y="310" type="curve" smooth="yes"/>
    </contour>
    <contour>
      <point x="548" y="662" type="curve" smooth="yes"/>
      <point x="599" y="662"/>
      <point x="631" y="633"/>
      <point x="640" y="584" type="curve"/>
      <point x="819" y="693" type="line"/>
      <point x="753" y="719"/>
      <point x="650" y="748"/>
      <point x="531" y="748" type="curve" smooth="yes"/>
      <point x="326" y="748"/>
      <point x="180" y="692"/>
      <point x="153" y="513" type="curve" smooth="yes"/>
      <point x="47" y="-223" type="line"/>
      <point x="257" y="-223" type="line"/>
      <point x="454" y="563" type="line" smooth="yes"/>
      <point x="471" y="636"/>
      <point x="499" y="662"/>
    </contour>
  </outline>
</glyph>
<glyph name="f_i" format="2">
  <advance width="876"/>
  <outline>
    <contour>
      <point x="726" y="568" type="curve" smooth="yes"/>
      <point x="827" y="568"/>
      <point x="887" y="605"/>
      <point x="887" y="664" type="curve" smooth="yes"/>
      <point x="887" y="716"/>
      <point x="836" y="749"/>
      <point x="741" y="749" type="curve" smooth="yes"/>
      <point x="639" y="749"/>
      <point x="580" y="712"/>
      <point x="580" y="654" type="curve" smooth="yes"/>
      <point x="580" y="601"/>
      <point x="631" y="568"/>
    </contour>
    <contour>
      <point x="52" y="513" type="line"/>
      <point x="35" y="433" type="line"/>
      <point x="523" y="433" type="line" smooth="yes"/>
      <point x="548" y="433"/>
      <point x="559" y="423"/>
      <point x="554" y="403" type="curve" smooth="yes"/>
      <point x="519" y="233" type="line" smooth="yes"/>
      <point x="505" y="174"/>
      <point x="499" y="143"/>
      <point x="499" y="115" type="curve" smooth="yes"/>
      <point x="499" y="31"/>
      <point x="576" y="-11"/>
      <point x="680" y="-11" type="curve" smooth="yes"/>
      <point x="750" y="-11"/>
      <point x="810" y="5"/>
      <point x="835" y="18" type="curve"/>
      <point x="853" y="96" type="line"/>
      <point x="848" y="95"/>
      <point x="833" y="88"/>
      <point x="816" y="88" type="curve" smooth="yes"/>
      <point x="796" y="88"/>
      <point x="785" y="94"/>
      <point x="785" y="111" type="curve" smooth="yes"/>
      <point x="785" y="129"/>
      <point x="794" y="161"/>
      <point x="803" y="205" type="curve" smooth="yes"/>
      <point x="868" y="513" type="line"/>
    </contour>
    <contour>
      <point x="511" y="650" type="curve" smooth="yes"/>
      <point x="522" y="650"/>
      <point x="527" y="648"/>
      <point x="535" y="646" type="curve"/>
      <point x="553" y="725" type="line"/>
      <point x="528" y="730"/>
      <point x="495" y="735"/>
      <point x="441" y="735" type="curve" smooth="yes"/>
      <point x="278" y="735"/>
      <point x="177" y="673"/>
      <point x="157" y="536" type="curve" smooth="yes"/>
      <point x="47" y="-223" type="line"/>
      <point x="257" y="-223" type="line"/>
      <point x="460" y="584" type="line" smooth="yes"/>
      <point x="471" y="636"/>
      <point x="483" y="650"/>
    </contour>
  </outline>
</glyph>
